%TF.GenerationSoftware,KiCad,Pcbnew,8.0.1*%
%TF.CreationDate,2024-04-04T14:27:13-04:00*%
%TF.ProjectId,mandreko-deej,6d616e64-7265-46b6-9f2d-6465656a2e6b,rev?*%
%TF.SameCoordinates,Original*%
%TF.FileFunction,Soldermask,Bot*%
%TF.FilePolarity,Negative*%
%FSLAX46Y46*%
G04 Gerber Fmt 4.6, Leading zero omitted, Abs format (unit mm)*
G04 Created by KiCad (PCBNEW 8.0.1) date 2024-04-04 14:27:13*
%MOMM*%
%LPD*%
G01*
G04 APERTURE LIST*
G04 Aperture macros list*
%AMRoundRect*
0 Rectangle with rounded corners*
0 $1 Rounding radius*
0 $2 $3 $4 $5 $6 $7 $8 $9 X,Y pos of 4 corners*
0 Add a 4 corners polygon primitive as box body*
4,1,4,$2,$3,$4,$5,$6,$7,$8,$9,$2,$3,0*
0 Add four circle primitives for the rounded corners*
1,1,$1+$1,$2,$3*
1,1,$1+$1,$4,$5*
1,1,$1+$1,$6,$7*
1,1,$1+$1,$8,$9*
0 Add four rect primitives between the rounded corners*
20,1,$1+$1,$2,$3,$4,$5,0*
20,1,$1+$1,$4,$5,$6,$7,0*
20,1,$1+$1,$6,$7,$8,$9,0*
20,1,$1+$1,$8,$9,$2,$3,0*%
G04 Aperture macros list end*
%ADD10RoundRect,0.102000X-0.729000X-0.729000X0.729000X-0.729000X0.729000X0.729000X-0.729000X0.729000X0*%
%ADD11C,1.662000*%
%ADD12C,3.800000*%
%ADD13C,2.154000*%
%ADD14C,2.904000*%
%ADD15RoundRect,0.736600X-0.000010X0.635000X-0.000010X-0.635000X0.000010X-0.635000X0.000010X0.635000X0*%
G04 APERTURE END LIST*
D10*
%TO.C,S2*%
X132873700Y-52000000D03*
D11*
X138873700Y-52000000D03*
X132873700Y-47000000D03*
X138873700Y-47000000D03*
%TD*%
D12*
%TO.C,TopLeftMountingHole*%
X111000000Y-42500000D03*
%TD*%
D13*
%TO.C,R2*%
X133761200Y-132850000D03*
X137261200Y-132850000D03*
X133761200Y-59350000D03*
D14*
X131311200Y-127500000D03*
X139711200Y-128700000D03*
X131311200Y-64700000D03*
X139711200Y-63500000D03*
%TD*%
D10*
%TO.C,S3*%
X149562500Y-52000000D03*
D11*
X155562500Y-52000000D03*
X149562500Y-47000000D03*
X155562500Y-47000000D03*
%TD*%
D12*
%TO.C,TopRightMountingHole*%
X194500000Y-42500000D03*
%TD*%
D13*
%TO.C,R3*%
X150450000Y-132850000D03*
X153950000Y-132850000D03*
X150450000Y-59350000D03*
D14*
X148000000Y-127500000D03*
X156400000Y-128700000D03*
X148000000Y-64700000D03*
X156400000Y-63500000D03*
%TD*%
D10*
%TO.C,S4*%
X166072200Y-52000000D03*
D11*
X172072200Y-52000000D03*
X166072200Y-47000000D03*
X172072200Y-47000000D03*
%TD*%
D13*
%TO.C,R1*%
X117161900Y-132850000D03*
X120661900Y-132850000D03*
X117161900Y-59350000D03*
D14*
X114711900Y-127500000D03*
X123111900Y-128700000D03*
X114711900Y-64700000D03*
X123111900Y-63500000D03*
%TD*%
D10*
%TO.C,S1*%
X116274400Y-52000000D03*
D11*
X122274400Y-52000000D03*
X116274400Y-47000000D03*
X122274400Y-47000000D03*
%TD*%
D12*
%TO.C,BottomRightMountingHole*%
X194500000Y-150000000D03*
%TD*%
D10*
%TO.C,S5*%
X182671500Y-52000000D03*
D11*
X188671500Y-52000000D03*
X182671500Y-47000000D03*
X188671500Y-47000000D03*
%TD*%
D13*
%TO.C,R4*%
X166959700Y-132850000D03*
X170459700Y-132850000D03*
X166959700Y-59350000D03*
D14*
X164509700Y-127500000D03*
X172909700Y-128700000D03*
X164509700Y-64700000D03*
X172909700Y-63500000D03*
%TD*%
D12*
%TO.C,BottomLeftMountingHole*%
X111500000Y-150000000D03*
%TD*%
D13*
%TO.C,R5*%
X183559000Y-132850000D03*
X187059000Y-132850000D03*
X183559000Y-59350000D03*
D14*
X181109000Y-127500000D03*
X189509000Y-128700000D03*
X181109000Y-64700000D03*
X189509000Y-63500000D03*
%TD*%
D15*
%TO.C,U1*%
X113500000Y-90500000D03*
X116040000Y-90500000D03*
X118580000Y-90500000D03*
X121120000Y-90500000D03*
X123660000Y-90500000D03*
X126200000Y-90500000D03*
X128740000Y-90500000D03*
X131280000Y-90500000D03*
X133820000Y-90500000D03*
X136360000Y-90500000D03*
X138900000Y-90500000D03*
X141440000Y-90500000D03*
X141440000Y-108280000D03*
X138900000Y-108280000D03*
X136360000Y-108280000D03*
X133820000Y-108280000D03*
X131280000Y-108280000D03*
X128740000Y-108280000D03*
X126200000Y-108280000D03*
X123660000Y-108280000D03*
X121120000Y-108280000D03*
X118580000Y-108280000D03*
X116040000Y-108280000D03*
X113500000Y-108280000D03*
%TD*%
M02*
