%TF.GenerationSoftware,KiCad,Pcbnew,8.0.1*%
%TF.CreationDate,2024-04-04T14:27:13-04:00*%
%TF.ProjectId,mandreko-deej,6d616e64-7265-46b6-9f2d-6465656a2e6b,rev?*%
%TF.SameCoordinates,Original*%
%TF.FileFunction,Legend,Top*%
%TF.FilePolarity,Positive*%
%FSLAX46Y46*%
G04 Gerber Fmt 4.6, Leading zero omitted, Abs format (unit mm)*
G04 Created by KiCad (PCBNEW 8.0.1) date 2024-04-04 14:27:13*
%MOMM*%
%LPD*%
G01*
G04 APERTURE LIST*
%ADD10C,0.150000*%
%ADD11C,0.120000*%
%ADD12C,0.127000*%
%ADD13C,0.200000*%
%ADD14C,0.304800*%
G04 APERTURE END LIST*
D10*
X118745233Y-148429580D02*
X118697614Y-148477200D01*
X118697614Y-148477200D02*
X118554757Y-148524819D01*
X118554757Y-148524819D02*
X118459519Y-148524819D01*
X118459519Y-148524819D02*
X118316662Y-148477200D01*
X118316662Y-148477200D02*
X118221424Y-148381961D01*
X118221424Y-148381961D02*
X118173805Y-148286723D01*
X118173805Y-148286723D02*
X118126186Y-148096247D01*
X118126186Y-148096247D02*
X118126186Y-147953390D01*
X118126186Y-147953390D02*
X118173805Y-147762914D01*
X118173805Y-147762914D02*
X118221424Y-147667676D01*
X118221424Y-147667676D02*
X118316662Y-147572438D01*
X118316662Y-147572438D02*
X118459519Y-147524819D01*
X118459519Y-147524819D02*
X118554757Y-147524819D01*
X118554757Y-147524819D02*
X118697614Y-147572438D01*
X118697614Y-147572438D02*
X118745233Y-147620057D01*
X119697614Y-148524819D02*
X119126186Y-148524819D01*
X119411900Y-148524819D02*
X119411900Y-147524819D01*
X119411900Y-147524819D02*
X119316662Y-147667676D01*
X119316662Y-147667676D02*
X119221424Y-147762914D01*
X119221424Y-147762914D02*
X119126186Y-147810533D01*
X117269043Y-150384819D02*
X117364281Y-150384819D01*
X117364281Y-150384819D02*
X117459519Y-150432438D01*
X117459519Y-150432438D02*
X117507138Y-150480057D01*
X117507138Y-150480057D02*
X117554757Y-150575295D01*
X117554757Y-150575295D02*
X117602376Y-150765771D01*
X117602376Y-150765771D02*
X117602376Y-151003866D01*
X117602376Y-151003866D02*
X117554757Y-151194342D01*
X117554757Y-151194342D02*
X117507138Y-151289580D01*
X117507138Y-151289580D02*
X117459519Y-151337200D01*
X117459519Y-151337200D02*
X117364281Y-151384819D01*
X117364281Y-151384819D02*
X117269043Y-151384819D01*
X117269043Y-151384819D02*
X117173805Y-151337200D01*
X117173805Y-151337200D02*
X117126186Y-151289580D01*
X117126186Y-151289580D02*
X117078567Y-151194342D01*
X117078567Y-151194342D02*
X117030948Y-151003866D01*
X117030948Y-151003866D02*
X117030948Y-150765771D01*
X117030948Y-150765771D02*
X117078567Y-150575295D01*
X117078567Y-150575295D02*
X117126186Y-150480057D01*
X117126186Y-150480057D02*
X117173805Y-150432438D01*
X117173805Y-150432438D02*
X117269043Y-150384819D01*
X118030948Y-151289580D02*
X118078567Y-151337200D01*
X118078567Y-151337200D02*
X118030948Y-151384819D01*
X118030948Y-151384819D02*
X117983329Y-151337200D01*
X117983329Y-151337200D02*
X118030948Y-151289580D01*
X118030948Y-151289580D02*
X118030948Y-151384819D01*
X119030947Y-151384819D02*
X118459519Y-151384819D01*
X118745233Y-151384819D02*
X118745233Y-150384819D01*
X118745233Y-150384819D02*
X118649995Y-150527676D01*
X118649995Y-150527676D02*
X118554757Y-150622914D01*
X118554757Y-150622914D02*
X118459519Y-150670533D01*
X119888090Y-150718152D02*
X119888090Y-151384819D01*
X119459519Y-150718152D02*
X119459519Y-151241961D01*
X119459519Y-151241961D02*
X119507138Y-151337200D01*
X119507138Y-151337200D02*
X119602376Y-151384819D01*
X119602376Y-151384819D02*
X119745233Y-151384819D01*
X119745233Y-151384819D02*
X119840471Y-151337200D01*
X119840471Y-151337200D02*
X119888090Y-151289580D01*
X120697614Y-150861009D02*
X120364281Y-150861009D01*
X120364281Y-151384819D02*
X120364281Y-150384819D01*
X120364281Y-150384819D02*
X120840471Y-150384819D01*
X133786795Y-43772200D02*
X133929652Y-43819819D01*
X133929652Y-43819819D02*
X134167747Y-43819819D01*
X134167747Y-43819819D02*
X134262985Y-43772200D01*
X134262985Y-43772200D02*
X134310604Y-43724580D01*
X134310604Y-43724580D02*
X134358223Y-43629342D01*
X134358223Y-43629342D02*
X134358223Y-43534104D01*
X134358223Y-43534104D02*
X134310604Y-43438866D01*
X134310604Y-43438866D02*
X134262985Y-43391247D01*
X134262985Y-43391247D02*
X134167747Y-43343628D01*
X134167747Y-43343628D02*
X133977271Y-43296009D01*
X133977271Y-43296009D02*
X133882033Y-43248390D01*
X133882033Y-43248390D02*
X133834414Y-43200771D01*
X133834414Y-43200771D02*
X133786795Y-43105533D01*
X133786795Y-43105533D02*
X133786795Y-43010295D01*
X133786795Y-43010295D02*
X133834414Y-42915057D01*
X133834414Y-42915057D02*
X133882033Y-42867438D01*
X133882033Y-42867438D02*
X133977271Y-42819819D01*
X133977271Y-42819819D02*
X134215366Y-42819819D01*
X134215366Y-42819819D02*
X134358223Y-42867438D01*
X134739176Y-42915057D02*
X134786795Y-42867438D01*
X134786795Y-42867438D02*
X134882033Y-42819819D01*
X134882033Y-42819819D02*
X135120128Y-42819819D01*
X135120128Y-42819819D02*
X135215366Y-42867438D01*
X135215366Y-42867438D02*
X135262985Y-42915057D01*
X135262985Y-42915057D02*
X135310604Y-43010295D01*
X135310604Y-43010295D02*
X135310604Y-43105533D01*
X135310604Y-43105533D02*
X135262985Y-43248390D01*
X135262985Y-43248390D02*
X134691557Y-43819819D01*
X134691557Y-43819819D02*
X135310604Y-43819819D01*
X143197019Y-131191666D02*
X142720828Y-131524999D01*
X143197019Y-131763094D02*
X142197019Y-131763094D01*
X142197019Y-131763094D02*
X142197019Y-131382142D01*
X142197019Y-131382142D02*
X142244638Y-131286904D01*
X142244638Y-131286904D02*
X142292257Y-131239285D01*
X142292257Y-131239285D02*
X142387495Y-131191666D01*
X142387495Y-131191666D02*
X142530352Y-131191666D01*
X142530352Y-131191666D02*
X142625590Y-131239285D01*
X142625590Y-131239285D02*
X142673209Y-131286904D01*
X142673209Y-131286904D02*
X142720828Y-131382142D01*
X142720828Y-131382142D02*
X142720828Y-131763094D01*
X142292257Y-130810713D02*
X142244638Y-130763094D01*
X142244638Y-130763094D02*
X142197019Y-130667856D01*
X142197019Y-130667856D02*
X142197019Y-130429761D01*
X142197019Y-130429761D02*
X142244638Y-130334523D01*
X142244638Y-130334523D02*
X142292257Y-130286904D01*
X142292257Y-130286904D02*
X142387495Y-130239285D01*
X142387495Y-130239285D02*
X142482733Y-130239285D01*
X142482733Y-130239285D02*
X142625590Y-130286904D01*
X142625590Y-130286904D02*
X143197019Y-130858332D01*
X143197019Y-130858332D02*
X143197019Y-130239285D01*
X150475595Y-43772200D02*
X150618452Y-43819819D01*
X150618452Y-43819819D02*
X150856547Y-43819819D01*
X150856547Y-43819819D02*
X150951785Y-43772200D01*
X150951785Y-43772200D02*
X150999404Y-43724580D01*
X150999404Y-43724580D02*
X151047023Y-43629342D01*
X151047023Y-43629342D02*
X151047023Y-43534104D01*
X151047023Y-43534104D02*
X150999404Y-43438866D01*
X150999404Y-43438866D02*
X150951785Y-43391247D01*
X150951785Y-43391247D02*
X150856547Y-43343628D01*
X150856547Y-43343628D02*
X150666071Y-43296009D01*
X150666071Y-43296009D02*
X150570833Y-43248390D01*
X150570833Y-43248390D02*
X150523214Y-43200771D01*
X150523214Y-43200771D02*
X150475595Y-43105533D01*
X150475595Y-43105533D02*
X150475595Y-43010295D01*
X150475595Y-43010295D02*
X150523214Y-42915057D01*
X150523214Y-42915057D02*
X150570833Y-42867438D01*
X150570833Y-42867438D02*
X150666071Y-42819819D01*
X150666071Y-42819819D02*
X150904166Y-42819819D01*
X150904166Y-42819819D02*
X151047023Y-42867438D01*
X151380357Y-42819819D02*
X151999404Y-42819819D01*
X151999404Y-42819819D02*
X151666071Y-43200771D01*
X151666071Y-43200771D02*
X151808928Y-43200771D01*
X151808928Y-43200771D02*
X151904166Y-43248390D01*
X151904166Y-43248390D02*
X151951785Y-43296009D01*
X151951785Y-43296009D02*
X151999404Y-43391247D01*
X151999404Y-43391247D02*
X151999404Y-43629342D01*
X151999404Y-43629342D02*
X151951785Y-43724580D01*
X151951785Y-43724580D02*
X151904166Y-43772200D01*
X151904166Y-43772200D02*
X151808928Y-43819819D01*
X151808928Y-43819819D02*
X151523214Y-43819819D01*
X151523214Y-43819819D02*
X151427976Y-43772200D01*
X151427976Y-43772200D02*
X151380357Y-43724580D01*
X159885819Y-131191666D02*
X159409628Y-131524999D01*
X159885819Y-131763094D02*
X158885819Y-131763094D01*
X158885819Y-131763094D02*
X158885819Y-131382142D01*
X158885819Y-131382142D02*
X158933438Y-131286904D01*
X158933438Y-131286904D02*
X158981057Y-131239285D01*
X158981057Y-131239285D02*
X159076295Y-131191666D01*
X159076295Y-131191666D02*
X159219152Y-131191666D01*
X159219152Y-131191666D02*
X159314390Y-131239285D01*
X159314390Y-131239285D02*
X159362009Y-131286904D01*
X159362009Y-131286904D02*
X159409628Y-131382142D01*
X159409628Y-131382142D02*
X159409628Y-131763094D01*
X158885819Y-130858332D02*
X158885819Y-130239285D01*
X158885819Y-130239285D02*
X159266771Y-130572618D01*
X159266771Y-130572618D02*
X159266771Y-130429761D01*
X159266771Y-130429761D02*
X159314390Y-130334523D01*
X159314390Y-130334523D02*
X159362009Y-130286904D01*
X159362009Y-130286904D02*
X159457247Y-130239285D01*
X159457247Y-130239285D02*
X159695342Y-130239285D01*
X159695342Y-130239285D02*
X159790580Y-130286904D01*
X159790580Y-130286904D02*
X159838200Y-130334523D01*
X159838200Y-130334523D02*
X159885819Y-130429761D01*
X159885819Y-130429761D02*
X159885819Y-130715475D01*
X159885819Y-130715475D02*
X159838200Y-130810713D01*
X159838200Y-130810713D02*
X159790580Y-130858332D01*
X185142333Y-148429580D02*
X185094714Y-148477200D01*
X185094714Y-148477200D02*
X184951857Y-148524819D01*
X184951857Y-148524819D02*
X184856619Y-148524819D01*
X184856619Y-148524819D02*
X184713762Y-148477200D01*
X184713762Y-148477200D02*
X184618524Y-148381961D01*
X184618524Y-148381961D02*
X184570905Y-148286723D01*
X184570905Y-148286723D02*
X184523286Y-148096247D01*
X184523286Y-148096247D02*
X184523286Y-147953390D01*
X184523286Y-147953390D02*
X184570905Y-147762914D01*
X184570905Y-147762914D02*
X184618524Y-147667676D01*
X184618524Y-147667676D02*
X184713762Y-147572438D01*
X184713762Y-147572438D02*
X184856619Y-147524819D01*
X184856619Y-147524819D02*
X184951857Y-147524819D01*
X184951857Y-147524819D02*
X185094714Y-147572438D01*
X185094714Y-147572438D02*
X185142333Y-147620057D01*
X186047095Y-147524819D02*
X185570905Y-147524819D01*
X185570905Y-147524819D02*
X185523286Y-148001009D01*
X185523286Y-148001009D02*
X185570905Y-147953390D01*
X185570905Y-147953390D02*
X185666143Y-147905771D01*
X185666143Y-147905771D02*
X185904238Y-147905771D01*
X185904238Y-147905771D02*
X185999476Y-147953390D01*
X185999476Y-147953390D02*
X186047095Y-148001009D01*
X186047095Y-148001009D02*
X186094714Y-148096247D01*
X186094714Y-148096247D02*
X186094714Y-148334342D01*
X186094714Y-148334342D02*
X186047095Y-148429580D01*
X186047095Y-148429580D02*
X185999476Y-148477200D01*
X185999476Y-148477200D02*
X185904238Y-148524819D01*
X185904238Y-148524819D02*
X185666143Y-148524819D01*
X185666143Y-148524819D02*
X185570905Y-148477200D01*
X185570905Y-148477200D02*
X185523286Y-148429580D01*
X183666143Y-150384819D02*
X183761381Y-150384819D01*
X183761381Y-150384819D02*
X183856619Y-150432438D01*
X183856619Y-150432438D02*
X183904238Y-150480057D01*
X183904238Y-150480057D02*
X183951857Y-150575295D01*
X183951857Y-150575295D02*
X183999476Y-150765771D01*
X183999476Y-150765771D02*
X183999476Y-151003866D01*
X183999476Y-151003866D02*
X183951857Y-151194342D01*
X183951857Y-151194342D02*
X183904238Y-151289580D01*
X183904238Y-151289580D02*
X183856619Y-151337200D01*
X183856619Y-151337200D02*
X183761381Y-151384819D01*
X183761381Y-151384819D02*
X183666143Y-151384819D01*
X183666143Y-151384819D02*
X183570905Y-151337200D01*
X183570905Y-151337200D02*
X183523286Y-151289580D01*
X183523286Y-151289580D02*
X183475667Y-151194342D01*
X183475667Y-151194342D02*
X183428048Y-151003866D01*
X183428048Y-151003866D02*
X183428048Y-150765771D01*
X183428048Y-150765771D02*
X183475667Y-150575295D01*
X183475667Y-150575295D02*
X183523286Y-150480057D01*
X183523286Y-150480057D02*
X183570905Y-150432438D01*
X183570905Y-150432438D02*
X183666143Y-150384819D01*
X184428048Y-151289580D02*
X184475667Y-151337200D01*
X184475667Y-151337200D02*
X184428048Y-151384819D01*
X184428048Y-151384819D02*
X184380429Y-151337200D01*
X184380429Y-151337200D02*
X184428048Y-151289580D01*
X184428048Y-151289580D02*
X184428048Y-151384819D01*
X185428047Y-151384819D02*
X184856619Y-151384819D01*
X185142333Y-151384819D02*
X185142333Y-150384819D01*
X185142333Y-150384819D02*
X185047095Y-150527676D01*
X185047095Y-150527676D02*
X184951857Y-150622914D01*
X184951857Y-150622914D02*
X184856619Y-150670533D01*
X186285190Y-150718152D02*
X186285190Y-151384819D01*
X185856619Y-150718152D02*
X185856619Y-151241961D01*
X185856619Y-151241961D02*
X185904238Y-151337200D01*
X185904238Y-151337200D02*
X185999476Y-151384819D01*
X185999476Y-151384819D02*
X186142333Y-151384819D01*
X186142333Y-151384819D02*
X186237571Y-151337200D01*
X186237571Y-151337200D02*
X186285190Y-151289580D01*
X187094714Y-150861009D02*
X186761381Y-150861009D01*
X186761381Y-151384819D02*
X186761381Y-150384819D01*
X186761381Y-150384819D02*
X187237571Y-150384819D01*
X134773105Y-138954819D02*
X134773105Y-137954819D01*
X134773105Y-137954819D02*
X135011200Y-137954819D01*
X135011200Y-137954819D02*
X135154057Y-138002438D01*
X135154057Y-138002438D02*
X135249295Y-138097676D01*
X135249295Y-138097676D02*
X135296914Y-138192914D01*
X135296914Y-138192914D02*
X135344533Y-138383390D01*
X135344533Y-138383390D02*
X135344533Y-138526247D01*
X135344533Y-138526247D02*
X135296914Y-138716723D01*
X135296914Y-138716723D02*
X135249295Y-138811961D01*
X135249295Y-138811961D02*
X135154057Y-138907200D01*
X135154057Y-138907200D02*
X135011200Y-138954819D01*
X135011200Y-138954819D02*
X134773105Y-138954819D01*
X135725486Y-138050057D02*
X135773105Y-138002438D01*
X135773105Y-138002438D02*
X135868343Y-137954819D01*
X135868343Y-137954819D02*
X136106438Y-137954819D01*
X136106438Y-137954819D02*
X136201676Y-138002438D01*
X136201676Y-138002438D02*
X136249295Y-138050057D01*
X136249295Y-138050057D02*
X136296914Y-138145295D01*
X136296914Y-138145295D02*
X136296914Y-138240533D01*
X136296914Y-138240533D02*
X136249295Y-138383390D01*
X136249295Y-138383390D02*
X135677867Y-138954819D01*
X135677867Y-138954819D02*
X136296914Y-138954819D01*
X140285714Y-144704819D02*
X139714286Y-144704819D01*
X140000000Y-144704819D02*
X140000000Y-143704819D01*
X140000000Y-143704819D02*
X139904762Y-143847676D01*
X139904762Y-143847676D02*
X139809524Y-143942914D01*
X139809524Y-143942914D02*
X139714286Y-143990533D01*
X126833333Y-135524819D02*
X126500000Y-135048628D01*
X126261905Y-135524819D02*
X126261905Y-134524819D01*
X126261905Y-134524819D02*
X126642857Y-134524819D01*
X126642857Y-134524819D02*
X126738095Y-134572438D01*
X126738095Y-134572438D02*
X126785714Y-134620057D01*
X126785714Y-134620057D02*
X126833333Y-134715295D01*
X126833333Y-134715295D02*
X126833333Y-134858152D01*
X126833333Y-134858152D02*
X126785714Y-134953390D01*
X126785714Y-134953390D02*
X126738095Y-135001009D01*
X126738095Y-135001009D02*
X126642857Y-135048628D01*
X126642857Y-135048628D02*
X126261905Y-135048628D01*
X127690476Y-134524819D02*
X127500000Y-134524819D01*
X127500000Y-134524819D02*
X127404762Y-134572438D01*
X127404762Y-134572438D02*
X127357143Y-134620057D01*
X127357143Y-134620057D02*
X127261905Y-134762914D01*
X127261905Y-134762914D02*
X127214286Y-134953390D01*
X127214286Y-134953390D02*
X127214286Y-135334342D01*
X127214286Y-135334342D02*
X127261905Y-135429580D01*
X127261905Y-135429580D02*
X127309524Y-135477200D01*
X127309524Y-135477200D02*
X127404762Y-135524819D01*
X127404762Y-135524819D02*
X127595238Y-135524819D01*
X127595238Y-135524819D02*
X127690476Y-135477200D01*
X127690476Y-135477200D02*
X127738095Y-135429580D01*
X127738095Y-135429580D02*
X127785714Y-135334342D01*
X127785714Y-135334342D02*
X127785714Y-135096247D01*
X127785714Y-135096247D02*
X127738095Y-135001009D01*
X127738095Y-135001009D02*
X127690476Y-134953390D01*
X127690476Y-134953390D02*
X127595238Y-134905771D01*
X127595238Y-134905771D02*
X127404762Y-134905771D01*
X127404762Y-134905771D02*
X127309524Y-134953390D01*
X127309524Y-134953390D02*
X127261905Y-135001009D01*
X127261905Y-135001009D02*
X127214286Y-135096247D01*
X125619048Y-137384819D02*
X126285714Y-137384819D01*
X126285714Y-137384819D02*
X125857143Y-138384819D01*
X127142857Y-137384819D02*
X126666667Y-137384819D01*
X126666667Y-137384819D02*
X126619048Y-137861009D01*
X126619048Y-137861009D02*
X126666667Y-137813390D01*
X126666667Y-137813390D02*
X126761905Y-137765771D01*
X126761905Y-137765771D02*
X127000000Y-137765771D01*
X127000000Y-137765771D02*
X127095238Y-137813390D01*
X127095238Y-137813390D02*
X127142857Y-137861009D01*
X127142857Y-137861009D02*
X127190476Y-137956247D01*
X127190476Y-137956247D02*
X127190476Y-138194342D01*
X127190476Y-138194342D02*
X127142857Y-138289580D01*
X127142857Y-138289580D02*
X127095238Y-138337200D01*
X127095238Y-138337200D02*
X127000000Y-138384819D01*
X127000000Y-138384819D02*
X126761905Y-138384819D01*
X126761905Y-138384819D02*
X126666667Y-138337200D01*
X126666667Y-138337200D02*
X126619048Y-138289580D01*
X127571429Y-138384819D02*
X127809524Y-138384819D01*
X127809524Y-138384819D02*
X127809524Y-138194342D01*
X127809524Y-138194342D02*
X127714286Y-138146723D01*
X127714286Y-138146723D02*
X127619048Y-138051485D01*
X127619048Y-138051485D02*
X127571429Y-137908628D01*
X127571429Y-137908628D02*
X127571429Y-137670533D01*
X127571429Y-137670533D02*
X127619048Y-137527676D01*
X127619048Y-137527676D02*
X127714286Y-137432438D01*
X127714286Y-137432438D02*
X127857143Y-137384819D01*
X127857143Y-137384819D02*
X128047619Y-137384819D01*
X128047619Y-137384819D02*
X128190476Y-137432438D01*
X128190476Y-137432438D02*
X128285714Y-137527676D01*
X128285714Y-137527676D02*
X128333333Y-137670533D01*
X128333333Y-137670533D02*
X128333333Y-137908628D01*
X128333333Y-137908628D02*
X128285714Y-138051485D01*
X128285714Y-138051485D02*
X128190476Y-138146723D01*
X128190476Y-138146723D02*
X128095238Y-138194342D01*
X128095238Y-138194342D02*
X128095238Y-138384819D01*
X128095238Y-138384819D02*
X128333333Y-138384819D01*
X166985295Y-43772200D02*
X167128152Y-43819819D01*
X167128152Y-43819819D02*
X167366247Y-43819819D01*
X167366247Y-43819819D02*
X167461485Y-43772200D01*
X167461485Y-43772200D02*
X167509104Y-43724580D01*
X167509104Y-43724580D02*
X167556723Y-43629342D01*
X167556723Y-43629342D02*
X167556723Y-43534104D01*
X167556723Y-43534104D02*
X167509104Y-43438866D01*
X167509104Y-43438866D02*
X167461485Y-43391247D01*
X167461485Y-43391247D02*
X167366247Y-43343628D01*
X167366247Y-43343628D02*
X167175771Y-43296009D01*
X167175771Y-43296009D02*
X167080533Y-43248390D01*
X167080533Y-43248390D02*
X167032914Y-43200771D01*
X167032914Y-43200771D02*
X166985295Y-43105533D01*
X166985295Y-43105533D02*
X166985295Y-43010295D01*
X166985295Y-43010295D02*
X167032914Y-42915057D01*
X167032914Y-42915057D02*
X167080533Y-42867438D01*
X167080533Y-42867438D02*
X167175771Y-42819819D01*
X167175771Y-42819819D02*
X167413866Y-42819819D01*
X167413866Y-42819819D02*
X167556723Y-42867438D01*
X168413866Y-43153152D02*
X168413866Y-43819819D01*
X168175771Y-42772200D02*
X167937676Y-43486485D01*
X167937676Y-43486485D02*
X168556723Y-43486485D01*
X126597719Y-131191666D02*
X126121528Y-131524999D01*
X126597719Y-131763094D02*
X125597719Y-131763094D01*
X125597719Y-131763094D02*
X125597719Y-131382142D01*
X125597719Y-131382142D02*
X125645338Y-131286904D01*
X125645338Y-131286904D02*
X125692957Y-131239285D01*
X125692957Y-131239285D02*
X125788195Y-131191666D01*
X125788195Y-131191666D02*
X125931052Y-131191666D01*
X125931052Y-131191666D02*
X126026290Y-131239285D01*
X126026290Y-131239285D02*
X126073909Y-131286904D01*
X126073909Y-131286904D02*
X126121528Y-131382142D01*
X126121528Y-131382142D02*
X126121528Y-131763094D01*
X126597719Y-130239285D02*
X126597719Y-130810713D01*
X126597719Y-130524999D02*
X125597719Y-130524999D01*
X125597719Y-130524999D02*
X125740576Y-130620237D01*
X125740576Y-130620237D02*
X125835814Y-130715475D01*
X125835814Y-130715475D02*
X125883433Y-130810713D01*
X117187495Y-43772200D02*
X117330352Y-43819819D01*
X117330352Y-43819819D02*
X117568447Y-43819819D01*
X117568447Y-43819819D02*
X117663685Y-43772200D01*
X117663685Y-43772200D02*
X117711304Y-43724580D01*
X117711304Y-43724580D02*
X117758923Y-43629342D01*
X117758923Y-43629342D02*
X117758923Y-43534104D01*
X117758923Y-43534104D02*
X117711304Y-43438866D01*
X117711304Y-43438866D02*
X117663685Y-43391247D01*
X117663685Y-43391247D02*
X117568447Y-43343628D01*
X117568447Y-43343628D02*
X117377971Y-43296009D01*
X117377971Y-43296009D02*
X117282733Y-43248390D01*
X117282733Y-43248390D02*
X117235114Y-43200771D01*
X117235114Y-43200771D02*
X117187495Y-43105533D01*
X117187495Y-43105533D02*
X117187495Y-43010295D01*
X117187495Y-43010295D02*
X117235114Y-42915057D01*
X117235114Y-42915057D02*
X117282733Y-42867438D01*
X117282733Y-42867438D02*
X117377971Y-42819819D01*
X117377971Y-42819819D02*
X117616066Y-42819819D01*
X117616066Y-42819819D02*
X117758923Y-42867438D01*
X118711304Y-43819819D02*
X118139876Y-43819819D01*
X118425590Y-43819819D02*
X118425590Y-42819819D01*
X118425590Y-42819819D02*
X118330352Y-42962676D01*
X118330352Y-42962676D02*
X118235114Y-43057914D01*
X118235114Y-43057914D02*
X118139876Y-43105533D01*
X184570905Y-138954819D02*
X184570905Y-137954819D01*
X184570905Y-137954819D02*
X184809000Y-137954819D01*
X184809000Y-137954819D02*
X184951857Y-138002438D01*
X184951857Y-138002438D02*
X185047095Y-138097676D01*
X185047095Y-138097676D02*
X185094714Y-138192914D01*
X185094714Y-138192914D02*
X185142333Y-138383390D01*
X185142333Y-138383390D02*
X185142333Y-138526247D01*
X185142333Y-138526247D02*
X185094714Y-138716723D01*
X185094714Y-138716723D02*
X185047095Y-138811961D01*
X185047095Y-138811961D02*
X184951857Y-138907200D01*
X184951857Y-138907200D02*
X184809000Y-138954819D01*
X184809000Y-138954819D02*
X184570905Y-138954819D01*
X186047095Y-137954819D02*
X185570905Y-137954819D01*
X185570905Y-137954819D02*
X185523286Y-138431009D01*
X185523286Y-138431009D02*
X185570905Y-138383390D01*
X185570905Y-138383390D02*
X185666143Y-138335771D01*
X185666143Y-138335771D02*
X185904238Y-138335771D01*
X185904238Y-138335771D02*
X185999476Y-138383390D01*
X185999476Y-138383390D02*
X186047095Y-138431009D01*
X186047095Y-138431009D02*
X186094714Y-138526247D01*
X186094714Y-138526247D02*
X186094714Y-138764342D01*
X186094714Y-138764342D02*
X186047095Y-138859580D01*
X186047095Y-138859580D02*
X185999476Y-138907200D01*
X185999476Y-138907200D02*
X185904238Y-138954819D01*
X185904238Y-138954819D02*
X185666143Y-138954819D01*
X185666143Y-138954819D02*
X185570905Y-138907200D01*
X185570905Y-138907200D02*
X185523286Y-138859580D01*
X190035714Y-144454819D02*
X189464286Y-144454819D01*
X189750000Y-144454819D02*
X189750000Y-143454819D01*
X189750000Y-143454819D02*
X189654762Y-143597676D01*
X189654762Y-143597676D02*
X189559524Y-143692914D01*
X189559524Y-143692914D02*
X189464286Y-143740533D01*
X168543033Y-148429580D02*
X168495414Y-148477200D01*
X168495414Y-148477200D02*
X168352557Y-148524819D01*
X168352557Y-148524819D02*
X168257319Y-148524819D01*
X168257319Y-148524819D02*
X168114462Y-148477200D01*
X168114462Y-148477200D02*
X168019224Y-148381961D01*
X168019224Y-148381961D02*
X167971605Y-148286723D01*
X167971605Y-148286723D02*
X167923986Y-148096247D01*
X167923986Y-148096247D02*
X167923986Y-147953390D01*
X167923986Y-147953390D02*
X167971605Y-147762914D01*
X167971605Y-147762914D02*
X168019224Y-147667676D01*
X168019224Y-147667676D02*
X168114462Y-147572438D01*
X168114462Y-147572438D02*
X168257319Y-147524819D01*
X168257319Y-147524819D02*
X168352557Y-147524819D01*
X168352557Y-147524819D02*
X168495414Y-147572438D01*
X168495414Y-147572438D02*
X168543033Y-147620057D01*
X169400176Y-147858152D02*
X169400176Y-148524819D01*
X169162081Y-147477200D02*
X168923986Y-148191485D01*
X168923986Y-148191485D02*
X169543033Y-148191485D01*
X167066843Y-150384819D02*
X167162081Y-150384819D01*
X167162081Y-150384819D02*
X167257319Y-150432438D01*
X167257319Y-150432438D02*
X167304938Y-150480057D01*
X167304938Y-150480057D02*
X167352557Y-150575295D01*
X167352557Y-150575295D02*
X167400176Y-150765771D01*
X167400176Y-150765771D02*
X167400176Y-151003866D01*
X167400176Y-151003866D02*
X167352557Y-151194342D01*
X167352557Y-151194342D02*
X167304938Y-151289580D01*
X167304938Y-151289580D02*
X167257319Y-151337200D01*
X167257319Y-151337200D02*
X167162081Y-151384819D01*
X167162081Y-151384819D02*
X167066843Y-151384819D01*
X167066843Y-151384819D02*
X166971605Y-151337200D01*
X166971605Y-151337200D02*
X166923986Y-151289580D01*
X166923986Y-151289580D02*
X166876367Y-151194342D01*
X166876367Y-151194342D02*
X166828748Y-151003866D01*
X166828748Y-151003866D02*
X166828748Y-150765771D01*
X166828748Y-150765771D02*
X166876367Y-150575295D01*
X166876367Y-150575295D02*
X166923986Y-150480057D01*
X166923986Y-150480057D02*
X166971605Y-150432438D01*
X166971605Y-150432438D02*
X167066843Y-150384819D01*
X167828748Y-151289580D02*
X167876367Y-151337200D01*
X167876367Y-151337200D02*
X167828748Y-151384819D01*
X167828748Y-151384819D02*
X167781129Y-151337200D01*
X167781129Y-151337200D02*
X167828748Y-151289580D01*
X167828748Y-151289580D02*
X167828748Y-151384819D01*
X168828747Y-151384819D02*
X168257319Y-151384819D01*
X168543033Y-151384819D02*
X168543033Y-150384819D01*
X168543033Y-150384819D02*
X168447795Y-150527676D01*
X168447795Y-150527676D02*
X168352557Y-150622914D01*
X168352557Y-150622914D02*
X168257319Y-150670533D01*
X169685890Y-150718152D02*
X169685890Y-151384819D01*
X169257319Y-150718152D02*
X169257319Y-151241961D01*
X169257319Y-151241961D02*
X169304938Y-151337200D01*
X169304938Y-151337200D02*
X169400176Y-151384819D01*
X169400176Y-151384819D02*
X169543033Y-151384819D01*
X169543033Y-151384819D02*
X169638271Y-151337200D01*
X169638271Y-151337200D02*
X169685890Y-151289580D01*
X170495414Y-150861009D02*
X170162081Y-150861009D01*
X170162081Y-151384819D02*
X170162081Y-150384819D01*
X170162081Y-150384819D02*
X170638271Y-150384819D01*
X118173805Y-138954819D02*
X118173805Y-137954819D01*
X118173805Y-137954819D02*
X118411900Y-137954819D01*
X118411900Y-137954819D02*
X118554757Y-138002438D01*
X118554757Y-138002438D02*
X118649995Y-138097676D01*
X118649995Y-138097676D02*
X118697614Y-138192914D01*
X118697614Y-138192914D02*
X118745233Y-138383390D01*
X118745233Y-138383390D02*
X118745233Y-138526247D01*
X118745233Y-138526247D02*
X118697614Y-138716723D01*
X118697614Y-138716723D02*
X118649995Y-138811961D01*
X118649995Y-138811961D02*
X118554757Y-138907200D01*
X118554757Y-138907200D02*
X118411900Y-138954819D01*
X118411900Y-138954819D02*
X118173805Y-138954819D01*
X119697614Y-138954819D02*
X119126186Y-138954819D01*
X119411900Y-138954819D02*
X119411900Y-137954819D01*
X119411900Y-137954819D02*
X119316662Y-138097676D01*
X119316662Y-138097676D02*
X119221424Y-138192914D01*
X119221424Y-138192914D02*
X119126186Y-138240533D01*
X123785714Y-144704819D02*
X123214286Y-144704819D01*
X123500000Y-144704819D02*
X123500000Y-143704819D01*
X123500000Y-143704819D02*
X123404762Y-143847676D01*
X123404762Y-143847676D02*
X123309524Y-143942914D01*
X123309524Y-143942914D02*
X123214286Y-143990533D01*
X167971605Y-138954819D02*
X167971605Y-137954819D01*
X167971605Y-137954819D02*
X168209700Y-137954819D01*
X168209700Y-137954819D02*
X168352557Y-138002438D01*
X168352557Y-138002438D02*
X168447795Y-138097676D01*
X168447795Y-138097676D02*
X168495414Y-138192914D01*
X168495414Y-138192914D02*
X168543033Y-138383390D01*
X168543033Y-138383390D02*
X168543033Y-138526247D01*
X168543033Y-138526247D02*
X168495414Y-138716723D01*
X168495414Y-138716723D02*
X168447795Y-138811961D01*
X168447795Y-138811961D02*
X168352557Y-138907200D01*
X168352557Y-138907200D02*
X168209700Y-138954819D01*
X168209700Y-138954819D02*
X167971605Y-138954819D01*
X169400176Y-138288152D02*
X169400176Y-138954819D01*
X169162081Y-137907200D02*
X168923986Y-138621485D01*
X168923986Y-138621485D02*
X169543033Y-138621485D01*
X173785714Y-144704819D02*
X173214286Y-144704819D01*
X173500000Y-144704819D02*
X173500000Y-143704819D01*
X173500000Y-143704819D02*
X173404762Y-143847676D01*
X173404762Y-143847676D02*
X173309524Y-143942914D01*
X173309524Y-143942914D02*
X173214286Y-143990533D01*
X151372405Y-138954819D02*
X151372405Y-137954819D01*
X151372405Y-137954819D02*
X151610500Y-137954819D01*
X151610500Y-137954819D02*
X151753357Y-138002438D01*
X151753357Y-138002438D02*
X151848595Y-138097676D01*
X151848595Y-138097676D02*
X151896214Y-138192914D01*
X151896214Y-138192914D02*
X151943833Y-138383390D01*
X151943833Y-138383390D02*
X151943833Y-138526247D01*
X151943833Y-138526247D02*
X151896214Y-138716723D01*
X151896214Y-138716723D02*
X151848595Y-138811961D01*
X151848595Y-138811961D02*
X151753357Y-138907200D01*
X151753357Y-138907200D02*
X151610500Y-138954819D01*
X151610500Y-138954819D02*
X151372405Y-138954819D01*
X152277167Y-137954819D02*
X152896214Y-137954819D01*
X152896214Y-137954819D02*
X152562881Y-138335771D01*
X152562881Y-138335771D02*
X152705738Y-138335771D01*
X152705738Y-138335771D02*
X152800976Y-138383390D01*
X152800976Y-138383390D02*
X152848595Y-138431009D01*
X152848595Y-138431009D02*
X152896214Y-138526247D01*
X152896214Y-138526247D02*
X152896214Y-138764342D01*
X152896214Y-138764342D02*
X152848595Y-138859580D01*
X152848595Y-138859580D02*
X152800976Y-138907200D01*
X152800976Y-138907200D02*
X152705738Y-138954819D01*
X152705738Y-138954819D02*
X152420024Y-138954819D01*
X152420024Y-138954819D02*
X152324786Y-138907200D01*
X152324786Y-138907200D02*
X152277167Y-138859580D01*
X157035714Y-144704819D02*
X156464286Y-144704819D01*
X156750000Y-144704819D02*
X156750000Y-143704819D01*
X156750000Y-143704819D02*
X156654762Y-143847676D01*
X156654762Y-143847676D02*
X156559524Y-143942914D01*
X156559524Y-143942914D02*
X156464286Y-143990533D01*
X183584595Y-43772200D02*
X183727452Y-43819819D01*
X183727452Y-43819819D02*
X183965547Y-43819819D01*
X183965547Y-43819819D02*
X184060785Y-43772200D01*
X184060785Y-43772200D02*
X184108404Y-43724580D01*
X184108404Y-43724580D02*
X184156023Y-43629342D01*
X184156023Y-43629342D02*
X184156023Y-43534104D01*
X184156023Y-43534104D02*
X184108404Y-43438866D01*
X184108404Y-43438866D02*
X184060785Y-43391247D01*
X184060785Y-43391247D02*
X183965547Y-43343628D01*
X183965547Y-43343628D02*
X183775071Y-43296009D01*
X183775071Y-43296009D02*
X183679833Y-43248390D01*
X183679833Y-43248390D02*
X183632214Y-43200771D01*
X183632214Y-43200771D02*
X183584595Y-43105533D01*
X183584595Y-43105533D02*
X183584595Y-43010295D01*
X183584595Y-43010295D02*
X183632214Y-42915057D01*
X183632214Y-42915057D02*
X183679833Y-42867438D01*
X183679833Y-42867438D02*
X183775071Y-42819819D01*
X183775071Y-42819819D02*
X184013166Y-42819819D01*
X184013166Y-42819819D02*
X184156023Y-42867438D01*
X185060785Y-42819819D02*
X184584595Y-42819819D01*
X184584595Y-42819819D02*
X184536976Y-43296009D01*
X184536976Y-43296009D02*
X184584595Y-43248390D01*
X184584595Y-43248390D02*
X184679833Y-43200771D01*
X184679833Y-43200771D02*
X184917928Y-43200771D01*
X184917928Y-43200771D02*
X185013166Y-43248390D01*
X185013166Y-43248390D02*
X185060785Y-43296009D01*
X185060785Y-43296009D02*
X185108404Y-43391247D01*
X185108404Y-43391247D02*
X185108404Y-43629342D01*
X185108404Y-43629342D02*
X185060785Y-43724580D01*
X185060785Y-43724580D02*
X185013166Y-43772200D01*
X185013166Y-43772200D02*
X184917928Y-43819819D01*
X184917928Y-43819819D02*
X184679833Y-43819819D01*
X184679833Y-43819819D02*
X184584595Y-43772200D01*
X184584595Y-43772200D02*
X184536976Y-43724580D01*
X176395519Y-131191666D02*
X175919328Y-131524999D01*
X176395519Y-131763094D02*
X175395519Y-131763094D01*
X175395519Y-131763094D02*
X175395519Y-131382142D01*
X175395519Y-131382142D02*
X175443138Y-131286904D01*
X175443138Y-131286904D02*
X175490757Y-131239285D01*
X175490757Y-131239285D02*
X175585995Y-131191666D01*
X175585995Y-131191666D02*
X175728852Y-131191666D01*
X175728852Y-131191666D02*
X175824090Y-131239285D01*
X175824090Y-131239285D02*
X175871709Y-131286904D01*
X175871709Y-131286904D02*
X175919328Y-131382142D01*
X175919328Y-131382142D02*
X175919328Y-131763094D01*
X175728852Y-130334523D02*
X176395519Y-130334523D01*
X175347900Y-130572618D02*
X176062185Y-130810713D01*
X176062185Y-130810713D02*
X176062185Y-130191666D01*
X135344533Y-148429580D02*
X135296914Y-148477200D01*
X135296914Y-148477200D02*
X135154057Y-148524819D01*
X135154057Y-148524819D02*
X135058819Y-148524819D01*
X135058819Y-148524819D02*
X134915962Y-148477200D01*
X134915962Y-148477200D02*
X134820724Y-148381961D01*
X134820724Y-148381961D02*
X134773105Y-148286723D01*
X134773105Y-148286723D02*
X134725486Y-148096247D01*
X134725486Y-148096247D02*
X134725486Y-147953390D01*
X134725486Y-147953390D02*
X134773105Y-147762914D01*
X134773105Y-147762914D02*
X134820724Y-147667676D01*
X134820724Y-147667676D02*
X134915962Y-147572438D01*
X134915962Y-147572438D02*
X135058819Y-147524819D01*
X135058819Y-147524819D02*
X135154057Y-147524819D01*
X135154057Y-147524819D02*
X135296914Y-147572438D01*
X135296914Y-147572438D02*
X135344533Y-147620057D01*
X135725486Y-147620057D02*
X135773105Y-147572438D01*
X135773105Y-147572438D02*
X135868343Y-147524819D01*
X135868343Y-147524819D02*
X136106438Y-147524819D01*
X136106438Y-147524819D02*
X136201676Y-147572438D01*
X136201676Y-147572438D02*
X136249295Y-147620057D01*
X136249295Y-147620057D02*
X136296914Y-147715295D01*
X136296914Y-147715295D02*
X136296914Y-147810533D01*
X136296914Y-147810533D02*
X136249295Y-147953390D01*
X136249295Y-147953390D02*
X135677867Y-148524819D01*
X135677867Y-148524819D02*
X136296914Y-148524819D01*
X133868343Y-150384819D02*
X133963581Y-150384819D01*
X133963581Y-150384819D02*
X134058819Y-150432438D01*
X134058819Y-150432438D02*
X134106438Y-150480057D01*
X134106438Y-150480057D02*
X134154057Y-150575295D01*
X134154057Y-150575295D02*
X134201676Y-150765771D01*
X134201676Y-150765771D02*
X134201676Y-151003866D01*
X134201676Y-151003866D02*
X134154057Y-151194342D01*
X134154057Y-151194342D02*
X134106438Y-151289580D01*
X134106438Y-151289580D02*
X134058819Y-151337200D01*
X134058819Y-151337200D02*
X133963581Y-151384819D01*
X133963581Y-151384819D02*
X133868343Y-151384819D01*
X133868343Y-151384819D02*
X133773105Y-151337200D01*
X133773105Y-151337200D02*
X133725486Y-151289580D01*
X133725486Y-151289580D02*
X133677867Y-151194342D01*
X133677867Y-151194342D02*
X133630248Y-151003866D01*
X133630248Y-151003866D02*
X133630248Y-150765771D01*
X133630248Y-150765771D02*
X133677867Y-150575295D01*
X133677867Y-150575295D02*
X133725486Y-150480057D01*
X133725486Y-150480057D02*
X133773105Y-150432438D01*
X133773105Y-150432438D02*
X133868343Y-150384819D01*
X134630248Y-151289580D02*
X134677867Y-151337200D01*
X134677867Y-151337200D02*
X134630248Y-151384819D01*
X134630248Y-151384819D02*
X134582629Y-151337200D01*
X134582629Y-151337200D02*
X134630248Y-151289580D01*
X134630248Y-151289580D02*
X134630248Y-151384819D01*
X135630247Y-151384819D02*
X135058819Y-151384819D01*
X135344533Y-151384819D02*
X135344533Y-150384819D01*
X135344533Y-150384819D02*
X135249295Y-150527676D01*
X135249295Y-150527676D02*
X135154057Y-150622914D01*
X135154057Y-150622914D02*
X135058819Y-150670533D01*
X136487390Y-150718152D02*
X136487390Y-151384819D01*
X136058819Y-150718152D02*
X136058819Y-151241961D01*
X136058819Y-151241961D02*
X136106438Y-151337200D01*
X136106438Y-151337200D02*
X136201676Y-151384819D01*
X136201676Y-151384819D02*
X136344533Y-151384819D01*
X136344533Y-151384819D02*
X136439771Y-151337200D01*
X136439771Y-151337200D02*
X136487390Y-151289580D01*
X137296914Y-150861009D02*
X136963581Y-150861009D01*
X136963581Y-151384819D02*
X136963581Y-150384819D01*
X136963581Y-150384819D02*
X137439771Y-150384819D01*
X192994819Y-131191666D02*
X192518628Y-131524999D01*
X192994819Y-131763094D02*
X191994819Y-131763094D01*
X191994819Y-131763094D02*
X191994819Y-131382142D01*
X191994819Y-131382142D02*
X192042438Y-131286904D01*
X192042438Y-131286904D02*
X192090057Y-131239285D01*
X192090057Y-131239285D02*
X192185295Y-131191666D01*
X192185295Y-131191666D02*
X192328152Y-131191666D01*
X192328152Y-131191666D02*
X192423390Y-131239285D01*
X192423390Y-131239285D02*
X192471009Y-131286904D01*
X192471009Y-131286904D02*
X192518628Y-131382142D01*
X192518628Y-131382142D02*
X192518628Y-131763094D01*
X191994819Y-130286904D02*
X191994819Y-130763094D01*
X191994819Y-130763094D02*
X192471009Y-130810713D01*
X192471009Y-130810713D02*
X192423390Y-130763094D01*
X192423390Y-130763094D02*
X192375771Y-130667856D01*
X192375771Y-130667856D02*
X192375771Y-130429761D01*
X192375771Y-130429761D02*
X192423390Y-130334523D01*
X192423390Y-130334523D02*
X192471009Y-130286904D01*
X192471009Y-130286904D02*
X192566247Y-130239285D01*
X192566247Y-130239285D02*
X192804342Y-130239285D01*
X192804342Y-130239285D02*
X192899580Y-130286904D01*
X192899580Y-130286904D02*
X192947200Y-130334523D01*
X192947200Y-130334523D02*
X192994819Y-130429761D01*
X192994819Y-130429761D02*
X192994819Y-130667856D01*
X192994819Y-130667856D02*
X192947200Y-130763094D01*
X192947200Y-130763094D02*
X192899580Y-130810713D01*
X151943833Y-148429580D02*
X151896214Y-148477200D01*
X151896214Y-148477200D02*
X151753357Y-148524819D01*
X151753357Y-148524819D02*
X151658119Y-148524819D01*
X151658119Y-148524819D02*
X151515262Y-148477200D01*
X151515262Y-148477200D02*
X151420024Y-148381961D01*
X151420024Y-148381961D02*
X151372405Y-148286723D01*
X151372405Y-148286723D02*
X151324786Y-148096247D01*
X151324786Y-148096247D02*
X151324786Y-147953390D01*
X151324786Y-147953390D02*
X151372405Y-147762914D01*
X151372405Y-147762914D02*
X151420024Y-147667676D01*
X151420024Y-147667676D02*
X151515262Y-147572438D01*
X151515262Y-147572438D02*
X151658119Y-147524819D01*
X151658119Y-147524819D02*
X151753357Y-147524819D01*
X151753357Y-147524819D02*
X151896214Y-147572438D01*
X151896214Y-147572438D02*
X151943833Y-147620057D01*
X152277167Y-147524819D02*
X152896214Y-147524819D01*
X152896214Y-147524819D02*
X152562881Y-147905771D01*
X152562881Y-147905771D02*
X152705738Y-147905771D01*
X152705738Y-147905771D02*
X152800976Y-147953390D01*
X152800976Y-147953390D02*
X152848595Y-148001009D01*
X152848595Y-148001009D02*
X152896214Y-148096247D01*
X152896214Y-148096247D02*
X152896214Y-148334342D01*
X152896214Y-148334342D02*
X152848595Y-148429580D01*
X152848595Y-148429580D02*
X152800976Y-148477200D01*
X152800976Y-148477200D02*
X152705738Y-148524819D01*
X152705738Y-148524819D02*
X152420024Y-148524819D01*
X152420024Y-148524819D02*
X152324786Y-148477200D01*
X152324786Y-148477200D02*
X152277167Y-148429580D01*
X150467643Y-150384819D02*
X150562881Y-150384819D01*
X150562881Y-150384819D02*
X150658119Y-150432438D01*
X150658119Y-150432438D02*
X150705738Y-150480057D01*
X150705738Y-150480057D02*
X150753357Y-150575295D01*
X150753357Y-150575295D02*
X150800976Y-150765771D01*
X150800976Y-150765771D02*
X150800976Y-151003866D01*
X150800976Y-151003866D02*
X150753357Y-151194342D01*
X150753357Y-151194342D02*
X150705738Y-151289580D01*
X150705738Y-151289580D02*
X150658119Y-151337200D01*
X150658119Y-151337200D02*
X150562881Y-151384819D01*
X150562881Y-151384819D02*
X150467643Y-151384819D01*
X150467643Y-151384819D02*
X150372405Y-151337200D01*
X150372405Y-151337200D02*
X150324786Y-151289580D01*
X150324786Y-151289580D02*
X150277167Y-151194342D01*
X150277167Y-151194342D02*
X150229548Y-151003866D01*
X150229548Y-151003866D02*
X150229548Y-150765771D01*
X150229548Y-150765771D02*
X150277167Y-150575295D01*
X150277167Y-150575295D02*
X150324786Y-150480057D01*
X150324786Y-150480057D02*
X150372405Y-150432438D01*
X150372405Y-150432438D02*
X150467643Y-150384819D01*
X151229548Y-151289580D02*
X151277167Y-151337200D01*
X151277167Y-151337200D02*
X151229548Y-151384819D01*
X151229548Y-151384819D02*
X151181929Y-151337200D01*
X151181929Y-151337200D02*
X151229548Y-151289580D01*
X151229548Y-151289580D02*
X151229548Y-151384819D01*
X152229547Y-151384819D02*
X151658119Y-151384819D01*
X151943833Y-151384819D02*
X151943833Y-150384819D01*
X151943833Y-150384819D02*
X151848595Y-150527676D01*
X151848595Y-150527676D02*
X151753357Y-150622914D01*
X151753357Y-150622914D02*
X151658119Y-150670533D01*
X153086690Y-150718152D02*
X153086690Y-151384819D01*
X152658119Y-150718152D02*
X152658119Y-151241961D01*
X152658119Y-151241961D02*
X152705738Y-151337200D01*
X152705738Y-151337200D02*
X152800976Y-151384819D01*
X152800976Y-151384819D02*
X152943833Y-151384819D01*
X152943833Y-151384819D02*
X153039071Y-151337200D01*
X153039071Y-151337200D02*
X153086690Y-151289580D01*
X153896214Y-150861009D02*
X153562881Y-150861009D01*
X153562881Y-151384819D02*
X153562881Y-150384819D01*
X153562881Y-150384819D02*
X154039071Y-150384819D01*
D11*
%TO.C,C1*%
X118771320Y-148990000D02*
X119052480Y-148990000D01*
X118771320Y-150010000D02*
X119052480Y-150010000D01*
D12*
%TO.C,S2*%
X131273700Y-44600000D02*
X131273700Y-54400000D01*
X131273700Y-54400000D02*
X140473700Y-54400000D01*
X140473700Y-44600000D02*
X131273700Y-44600000D01*
X140473700Y-54400000D02*
X140473700Y-44600000D01*
D13*
X130573700Y-52000000D02*
G75*
G02*
X130373700Y-52000000I-100000J0D01*
G01*
X130373700Y-52000000D02*
G75*
G02*
X130573700Y-52000000I100000J0D01*
G01*
D14*
%TO.C,R2*%
X129511200Y-57600000D02*
X141511200Y-57600000D01*
X129511200Y-134600000D02*
X129511200Y-57600000D01*
X129511200Y-134600000D02*
X141511200Y-134600000D01*
X141511200Y-134600000D02*
X141511200Y-57600000D01*
D12*
%TO.C,S3*%
X147962500Y-44600000D02*
X147962500Y-54400000D01*
X147962500Y-54400000D02*
X157162500Y-54400000D01*
X157162500Y-44600000D02*
X147962500Y-44600000D01*
X157162500Y-54400000D02*
X157162500Y-44600000D01*
D13*
X147262500Y-52000000D02*
G75*
G02*
X147062500Y-52000000I-100000J0D01*
G01*
X147062500Y-52000000D02*
G75*
G02*
X147262500Y-52000000I100000J0D01*
G01*
D14*
%TO.C,R3*%
X146200000Y-57600000D02*
X158200000Y-57600000D01*
X146200000Y-134600000D02*
X146200000Y-57600000D01*
X146200000Y-134600000D02*
X158200000Y-134600000D01*
X158200000Y-134600000D02*
X158200000Y-57600000D01*
D11*
%TO.C,C5*%
X185168420Y-148990000D02*
X185449580Y-148990000D01*
X185168420Y-150010000D02*
X185449580Y-150010000D01*
%TO.C,D2*%
X131861200Y-139250000D02*
X139161200Y-139250000D01*
X131861200Y-144750000D02*
X139161200Y-144750000D01*
X139161200Y-144750000D02*
X139161200Y-143600000D01*
%TO.C,R6*%
X126762742Y-135977500D02*
X127237258Y-135977500D01*
X126762742Y-137022500D02*
X127237258Y-137022500D01*
D12*
%TO.C,S4*%
X164472200Y-44600000D02*
X164472200Y-54400000D01*
X164472200Y-54400000D02*
X173672200Y-54400000D01*
X173672200Y-44600000D02*
X164472200Y-44600000D01*
X173672200Y-54400000D02*
X173672200Y-44600000D01*
D13*
X163772200Y-52000000D02*
G75*
G02*
X163572200Y-52000000I-100000J0D01*
G01*
X163572200Y-52000000D02*
G75*
G02*
X163772200Y-52000000I100000J0D01*
G01*
D14*
%TO.C,R1*%
X112911900Y-57600000D02*
X124911900Y-57600000D01*
X112911900Y-134600000D02*
X112911900Y-57600000D01*
X112911900Y-134600000D02*
X124911900Y-134600000D01*
X124911900Y-134600000D02*
X124911900Y-57600000D01*
D12*
%TO.C,S1*%
X114674400Y-44600000D02*
X114674400Y-54400000D01*
X114674400Y-54400000D02*
X123874400Y-54400000D01*
X123874400Y-44600000D02*
X114674400Y-44600000D01*
X123874400Y-54400000D02*
X123874400Y-44600000D01*
D13*
X113974400Y-52000000D02*
G75*
G02*
X113774400Y-52000000I-100000J0D01*
G01*
X113774400Y-52000000D02*
G75*
G02*
X113974400Y-52000000I100000J0D01*
G01*
D11*
%TO.C,D5*%
X181659000Y-139250000D02*
X188959000Y-139250000D01*
X181659000Y-144750000D02*
X188959000Y-144750000D01*
X188959000Y-144750000D02*
X188959000Y-143600000D01*
%TO.C,C4*%
X168569120Y-148990000D02*
X168850280Y-148990000D01*
X168569120Y-150010000D02*
X168850280Y-150010000D01*
%TO.C,D1*%
X115261900Y-139250000D02*
X122561900Y-139250000D01*
X115261900Y-144750000D02*
X122561900Y-144750000D01*
X122561900Y-144750000D02*
X122561900Y-143600000D01*
%TO.C,D4*%
X165059700Y-139250000D02*
X172359700Y-139250000D01*
X165059700Y-144750000D02*
X172359700Y-144750000D01*
X172359700Y-144750000D02*
X172359700Y-143600000D01*
%TO.C,D3*%
X148460500Y-139250000D02*
X155760500Y-139250000D01*
X148460500Y-144750000D02*
X155760500Y-144750000D01*
X155760500Y-144750000D02*
X155760500Y-143600000D01*
D12*
%TO.C,S5*%
X181071500Y-44600000D02*
X181071500Y-54400000D01*
X181071500Y-54400000D02*
X190271500Y-54400000D01*
X190271500Y-44600000D02*
X181071500Y-44600000D01*
X190271500Y-54400000D02*
X190271500Y-44600000D01*
D13*
X180371500Y-52000000D02*
G75*
G02*
X180171500Y-52000000I-100000J0D01*
G01*
X180171500Y-52000000D02*
G75*
G02*
X180371500Y-52000000I100000J0D01*
G01*
D14*
%TO.C,R4*%
X162709700Y-57600000D02*
X174709700Y-57600000D01*
X162709700Y-134600000D02*
X162709700Y-57600000D01*
X162709700Y-134600000D02*
X174709700Y-134600000D01*
X174709700Y-134600000D02*
X174709700Y-57600000D01*
D11*
%TO.C,C2*%
X135370620Y-148990000D02*
X135651780Y-148990000D01*
X135370620Y-150010000D02*
X135651780Y-150010000D01*
D14*
%TO.C,R5*%
X179309000Y-57600000D02*
X191309000Y-57600000D01*
X179309000Y-134600000D02*
X179309000Y-57600000D01*
X179309000Y-134600000D02*
X191309000Y-134600000D01*
X191309000Y-134600000D02*
X191309000Y-57600000D01*
D11*
%TO.C,C3*%
X151969920Y-148990000D02*
X152251080Y-148990000D01*
X151969920Y-150010000D02*
X152251080Y-150010000D01*
%TD*%
M02*
