%TF.GenerationSoftware,KiCad,Pcbnew,8.0.1*%
%TF.CreationDate,2024-03-29T21:28:49-04:00*%
%TF.ProjectId,mandreko-deej,6d616e64-7265-46b6-9f2d-6465656a2e6b,rev?*%
%TF.SameCoordinates,Original*%
%TF.FileFunction,Copper,L2,Bot*%
%TF.FilePolarity,Positive*%
%FSLAX46Y46*%
G04 Gerber Fmt 4.6, Leading zero omitted, Abs format (unit mm)*
G04 Created by KiCad (PCBNEW 8.0.1) date 2024-03-29 21:28:49*
%MOMM*%
%LPD*%
G01*
G04 APERTURE LIST*
G04 Aperture macros list*
%AMRoundRect*
0 Rectangle with rounded corners*
0 $1 Rounding radius*
0 $2 $3 $4 $5 $6 $7 $8 $9 X,Y pos of 4 corners*
0 Add a 4 corners polygon primitive as box body*
4,1,4,$2,$3,$4,$5,$6,$7,$8,$9,$2,$3,0*
0 Add four circle primitives for the rounded corners*
1,1,$1+$1,$2,$3*
1,1,$1+$1,$4,$5*
1,1,$1+$1,$6,$7*
1,1,$1+$1,$8,$9*
0 Add four rect primitives between the rounded corners*
20,1,$1+$1,$2,$3,$4,$5,0*
20,1,$1+$1,$4,$5,$6,$7,0*
20,1,$1+$1,$6,$7,$8,$9,0*
20,1,$1+$1,$8,$9,$2,$3,0*%
G04 Aperture macros list end*
%TA.AperFunction,ComponentPad*%
%ADD10R,1.458000X1.458000*%
%TD*%
%TA.AperFunction,ComponentPad*%
%ADD11C,1.458000*%
%TD*%
%TA.AperFunction,ComponentPad*%
%ADD12C,3.800000*%
%TD*%
%TA.AperFunction,ComponentPad*%
%ADD13C,1.950000*%
%TD*%
%TA.AperFunction,ComponentPad*%
%ADD14C,2.700000*%
%TD*%
%TA.AperFunction,SMDPad,CuDef*%
%ADD15RoundRect,0.635000X-0.000010X0.635000X-0.000010X-0.635000X0.000010X-0.635000X0.000010X0.635000X0*%
%TD*%
%TA.AperFunction,ViaPad*%
%ADD16C,0.600000*%
%TD*%
%TA.AperFunction,Conductor*%
%ADD17C,0.200000*%
%TD*%
G04 APERTURE END LIST*
D10*
%TO.P,S2,1*%
%TO.N,Net-(R2-Pad1)*%
X132873700Y-52000000D03*
D11*
%TO.P,S2,1_*%
%TO.N,unconnected-(S2-Pad1_)*%
X138873700Y-52000000D03*
%TO.P,S2,2*%
%TO.N,5V*%
X132873700Y-47000000D03*
%TO.P,S2,2_*%
%TO.N,unconnected-(S2-Pad2_)*%
X138873700Y-47000000D03*
%TD*%
D12*
%TO.P,TopLeftMountingHole,1*%
%TO.N,GND*%
X111000000Y-42500000D03*
%TD*%
D13*
%TO.P,R2,1*%
%TO.N,Net-(R2-Pad1)*%
X133761200Y-132850000D03*
%TO.P,R2,2*%
%TO.N,A2*%
X137261200Y-132850000D03*
%TO.P,R2,3*%
%TO.N,GND*%
X133761200Y-59350000D03*
D14*
%TO.P,R2,S1*%
%TO.N,N/C*%
X131311200Y-127500000D03*
%TO.P,R2,S2*%
X139711200Y-128700000D03*
%TO.P,R2,S3*%
X131311200Y-64700000D03*
%TO.P,R2,S4*%
X139711200Y-63500000D03*
%TD*%
D10*
%TO.P,S3,1*%
%TO.N,Net-(R3-Pad1)*%
X149562500Y-52000000D03*
D11*
%TO.P,S3,1_*%
%TO.N,unconnected-(S3-Pad1_)*%
X155562500Y-52000000D03*
%TO.P,S3,2*%
%TO.N,5V*%
X149562500Y-47000000D03*
%TO.P,S3,2_*%
%TO.N,unconnected-(S3-Pad2_)*%
X155562500Y-47000000D03*
%TD*%
D12*
%TO.P,TopRightMountingHole,1*%
%TO.N,GND*%
X194500000Y-42500000D03*
%TD*%
D13*
%TO.P,R3,1*%
%TO.N,Net-(R3-Pad1)*%
X150450000Y-132850000D03*
%TO.P,R3,2*%
%TO.N,A1*%
X153950000Y-132850000D03*
%TO.P,R3,3*%
%TO.N,GND*%
X150450000Y-59350000D03*
D14*
%TO.P,R3,S1*%
%TO.N,N/C*%
X148000000Y-127500000D03*
%TO.P,R3,S2*%
X156400000Y-128700000D03*
%TO.P,R3,S3*%
X148000000Y-64700000D03*
%TO.P,R3,S4*%
X156400000Y-63500000D03*
%TD*%
D10*
%TO.P,S4,1*%
%TO.N,Net-(R4-Pad1)*%
X166072200Y-52000000D03*
D11*
%TO.P,S4,1_*%
%TO.N,unconnected-(S4-Pad1_)*%
X172072200Y-52000000D03*
%TO.P,S4,2*%
%TO.N,5V*%
X166072200Y-47000000D03*
%TO.P,S4,2_*%
%TO.N,unconnected-(S4-Pad2_)*%
X172072200Y-47000000D03*
%TD*%
D13*
%TO.P,R1,1*%
%TO.N,Net-(R1-Pad1)*%
X117161900Y-132850000D03*
%TO.P,R1,2*%
%TO.N,A3*%
X120661900Y-132850000D03*
%TO.P,R1,3*%
%TO.N,GND*%
X117161900Y-59350000D03*
D14*
%TO.P,R1,S1*%
%TO.N,N/C*%
X114711900Y-127500000D03*
%TO.P,R1,S2*%
X123111900Y-128700000D03*
%TO.P,R1,S3*%
X114711900Y-64700000D03*
%TO.P,R1,S4*%
X123111900Y-63500000D03*
%TD*%
D10*
%TO.P,S1,1*%
%TO.N,Net-(R1-Pad1)*%
X116274400Y-52000000D03*
D11*
%TO.P,S1,1_*%
%TO.N,unconnected-(S1-Pad1_)*%
X122274400Y-52000000D03*
%TO.P,S1,2*%
%TO.N,5V*%
X116274400Y-47000000D03*
%TO.P,S1,2_*%
%TO.N,unconnected-(S1-Pad2_)*%
X122274400Y-47000000D03*
%TD*%
D12*
%TO.P,BottomRightMountingHole,1*%
%TO.N,GND*%
X194500000Y-150000000D03*
%TD*%
D10*
%TO.P,S5,1*%
%TO.N,Net-(R5-Pad1)*%
X182671500Y-52000000D03*
D11*
%TO.P,S5,1_*%
%TO.N,unconnected-(S5-Pad1_)*%
X188671500Y-52000000D03*
%TO.P,S5,2*%
%TO.N,5V*%
X182671500Y-47000000D03*
%TO.P,S5,2_*%
%TO.N,unconnected-(S5-Pad2_)*%
X188671500Y-47000000D03*
%TD*%
D13*
%TO.P,R4,1*%
%TO.N,Net-(R4-Pad1)*%
X166959700Y-132850000D03*
%TO.P,R4,2*%
%TO.N,A0*%
X170459700Y-132850000D03*
%TO.P,R4,3*%
%TO.N,GND*%
X166959700Y-59350000D03*
D14*
%TO.P,R4,S1*%
%TO.N,N/C*%
X164509700Y-127500000D03*
%TO.P,R4,S2*%
X172909700Y-128700000D03*
%TO.P,R4,S3*%
X164509700Y-64700000D03*
%TO.P,R4,S4*%
X172909700Y-63500000D03*
%TD*%
D12*
%TO.P,BottomLeftMountingHole,1*%
%TO.N,GND*%
X111500000Y-150000000D03*
%TD*%
D13*
%TO.P,R5,1*%
%TO.N,Net-(R5-Pad1)*%
X183559000Y-132850000D03*
%TO.P,R5,2*%
%TO.N,A6*%
X187059000Y-132850000D03*
%TO.P,R5,3*%
%TO.N,GND*%
X183559000Y-59350000D03*
D14*
%TO.P,R5,S1*%
%TO.N,N/C*%
X181109000Y-127500000D03*
%TO.P,R5,S2*%
X189509000Y-128700000D03*
%TO.P,R5,S3*%
X181109000Y-64700000D03*
%TO.P,R5,S4*%
X189509000Y-63500000D03*
%TD*%
D15*
%TO.P,U1,1,TX*%
%TO.N,unconnected-(U1-TX-Pad1)*%
X113500000Y-90500000D03*
%TO.P,U1,2,RX*%
%TO.N,unconnected-(U1-RX-Pad2)*%
X116040000Y-90500000D03*
%TO.P,U1,3,GND*%
%TO.N,GND*%
X118580000Y-90500000D03*
%TO.P,U1,4,GND*%
X121120000Y-90500000D03*
%TO.P,U1,5,D2*%
%TO.N,unconnected-(U1-D2-Pad5)*%
X123660000Y-90500000D03*
%TO.P,U1,6,D3*%
%TO.N,unconnected-(U1-D3-Pad6)*%
X126200000Y-90500000D03*
%TO.P,U1,7,D4/A6*%
%TO.N,A6*%
X128740000Y-90500000D03*
%TO.P,U1,8,D5*%
%TO.N,unconnected-(U1-D5-Pad8)*%
X131280000Y-90500000D03*
%TO.P,U1,9,D6/A7*%
%TO.N,A7*%
X133820000Y-90500000D03*
%TO.P,U1,10,D7*%
%TO.N,unconnected-(U1-D7-Pad10)*%
X136360000Y-90500000D03*
%TO.P,U1,11,D8/A8*%
%TO.N,unconnected-(U1-D8{slash}A8-Pad11)*%
X138900000Y-90500000D03*
%TO.P,U1,12,D9/A9*%
%TO.N,unconnected-(U1-D9{slash}A9-Pad12)*%
X141440000Y-90500000D03*
%TO.P,U1,13,D10/A10*%
%TO.N,unconnected-(U1-D10{slash}A10-Pad13)*%
X141440000Y-108280000D03*
%TO.P,U1,14,D16*%
%TO.N,unconnected-(U1-D16-Pad14)*%
X138900000Y-108280000D03*
%TO.P,U1,15,D14*%
%TO.N,unconnected-(U1-D14-Pad15)*%
X136360000Y-108280000D03*
%TO.P,U1,16,D15*%
%TO.N,unconnected-(U1-D15-Pad16)*%
X133820000Y-108280000D03*
%TO.P,U1,17,A0*%
%TO.N,A0*%
X131280000Y-108280000D03*
%TO.P,U1,18,A1*%
%TO.N,A1*%
X128740000Y-108280000D03*
%TO.P,U1,19,A2*%
%TO.N,A2*%
X126200000Y-108280000D03*
%TO.P,U1,20,A3*%
%TO.N,A3*%
X123660000Y-108280000D03*
%TO.P,U1,21,5V*%
%TO.N,5V*%
X121120000Y-108280000D03*
%TO.P,U1,22,RST*%
%TO.N,unconnected-(U1-RST-Pad22)*%
X118580000Y-108280000D03*
%TO.P,U1,23,GND*%
%TO.N,GND*%
X116040000Y-108280000D03*
%TO.P,U1,24,RAW*%
%TO.N,unconnected-(U1-RAW-Pad24)*%
X113500000Y-108280000D03*
%TD*%
D16*
%TO.N,A7*%
X129304200Y-132834400D03*
%TO.N,5V*%
X118750000Y-145750000D03*
%TD*%
D17*
%TO.N,5V*%
X118750000Y-145750000D02*
X118750000Y-110650000D01*
X118750000Y-110650000D02*
X121120000Y-108280000D01*
%TO.N,A7*%
X125256600Y-128786800D02*
X129304200Y-132834400D01*
X125256600Y-103274000D02*
X125256600Y-128786800D01*
X127470000Y-101060600D02*
X125256600Y-103274000D01*
X127470000Y-89745700D02*
X127470000Y-101060600D01*
X128336700Y-88879000D02*
X127470000Y-89745700D01*
X132199000Y-88879000D02*
X128336700Y-88879000D01*
X133820000Y-90500000D02*
X132199000Y-88879000D01*
%TO.N,A6*%
X187059000Y-127059000D02*
X187059000Y-132850000D01*
X174000000Y-114000000D02*
X187059000Y-127059000D01*
X152000000Y-114000000D02*
X174000000Y-114000000D01*
X134500000Y-96500000D02*
X152000000Y-114000000D01*
X132000000Y-96500000D02*
X134500000Y-96500000D01*
X128740000Y-93240000D02*
X132000000Y-96500000D01*
X128740000Y-90500000D02*
X128740000Y-93240000D01*
%TO.N,A3*%
X120662000Y-111278000D02*
X120662000Y-131500000D01*
X123660000Y-108280000D02*
X120662000Y-111278000D01*
X120662000Y-131500000D02*
X120662000Y-132850000D01*
X120661900Y-131500100D02*
X120661900Y-132850000D01*
X120662000Y-131500000D02*
X120661900Y-131500100D01*
%TO.N,A2*%
X137261000Y-122261000D02*
X137261000Y-131500000D01*
X126200000Y-111200000D02*
X137261000Y-122261000D01*
X126200000Y-108280000D02*
X126200000Y-111200000D01*
X137261000Y-131500000D02*
X137261000Y-132850000D01*
X137261200Y-131500200D02*
X137261200Y-132850000D01*
X137261000Y-131500000D02*
X137261200Y-131500200D01*
%TO.N,A1*%
X153950000Y-126450000D02*
X153950000Y-132850000D01*
X150000000Y-122500000D02*
X153950000Y-126450000D01*
X143000000Y-122500000D02*
X150000000Y-122500000D01*
X131500000Y-111000000D02*
X143000000Y-122500000D01*
X131460000Y-111000000D02*
X131500000Y-111000000D01*
X128740000Y-108280000D02*
X131460000Y-111000000D01*
%TO.N,A0*%
X170460000Y-126460000D02*
X170460000Y-131500000D01*
X163500000Y-119500000D02*
X170460000Y-126460000D01*
X141000000Y-119500000D02*
X163500000Y-119500000D01*
X131280000Y-109780000D02*
X141000000Y-119500000D01*
X131280000Y-108280000D02*
X131280000Y-109780000D01*
X170460000Y-131500000D02*
X170460000Y-132850000D01*
X170459700Y-131500300D02*
X170459700Y-132850000D01*
X170460000Y-131500000D02*
X170459700Y-131500300D01*
%TO.N,5V*%
X119850000Y-107010000D02*
X121120000Y-108280000D01*
X119850000Y-50575600D02*
X119850000Y-107010000D01*
X116274400Y-47000000D02*
X119850000Y-50575600D01*
%TD*%
%TA.AperFunction,Conductor*%
%TO.N,GND*%
G36*
X193710493Y-40020185D02*
G01*
X193756248Y-40072989D01*
X193766192Y-40142147D01*
X193737167Y-40205703D01*
X193689101Y-40239792D01*
X193476117Y-40324117D01*
X193476109Y-40324121D01*
X193211476Y-40469604D01*
X193211471Y-40469607D01*
X192986565Y-40633010D01*
X192986564Y-40633011D01*
X193917262Y-41563709D01*
X193783398Y-41660967D01*
X193660967Y-41783398D01*
X193563709Y-41917262D01*
X192635311Y-40988864D01*
X192554520Y-41086525D01*
X192554518Y-41086528D01*
X192392707Y-41341502D01*
X192392704Y-41341508D01*
X192264127Y-41614747D01*
X192264125Y-41614752D01*
X192170805Y-41901959D01*
X192114216Y-42198609D01*
X192114215Y-42198616D01*
X192095255Y-42499994D01*
X192095255Y-42500005D01*
X192114215Y-42801383D01*
X192114216Y-42801390D01*
X192170805Y-43098040D01*
X192264125Y-43385247D01*
X192264127Y-43385252D01*
X192392704Y-43658491D01*
X192392707Y-43658497D01*
X192554516Y-43913469D01*
X192635311Y-44011133D01*
X193563708Y-43082736D01*
X193660967Y-43216602D01*
X193783398Y-43339033D01*
X193917262Y-43436290D01*
X192986564Y-44366987D01*
X192986565Y-44366989D01*
X193211461Y-44530385D01*
X193211479Y-44530397D01*
X193476109Y-44675878D01*
X193476117Y-44675882D01*
X193756889Y-44787047D01*
X193756892Y-44787048D01*
X194049399Y-44862150D01*
X194348995Y-44899999D01*
X194349007Y-44900000D01*
X194650993Y-44900000D01*
X194651004Y-44899999D01*
X194950600Y-44862150D01*
X195243107Y-44787048D01*
X195243110Y-44787047D01*
X195523882Y-44675882D01*
X195523890Y-44675878D01*
X195788520Y-44530397D01*
X195788530Y-44530390D01*
X196013433Y-44366987D01*
X196013434Y-44366987D01*
X195082737Y-43436290D01*
X195216602Y-43339033D01*
X195339033Y-43216602D01*
X195436290Y-43082737D01*
X196364687Y-44011134D01*
X196445486Y-43913464D01*
X196607292Y-43658497D01*
X196607295Y-43658491D01*
X196735872Y-43385252D01*
X196735874Y-43385247D01*
X196757569Y-43318479D01*
X196797006Y-43260804D01*
X196861365Y-43233605D01*
X196930211Y-43245520D01*
X196981687Y-43292764D01*
X196999500Y-43356797D01*
X196999500Y-149143202D01*
X196979815Y-149210241D01*
X196927011Y-149255996D01*
X196857853Y-149265940D01*
X196794297Y-149236915D01*
X196757569Y-149181520D01*
X196735874Y-149114752D01*
X196735872Y-149114747D01*
X196607295Y-148841508D01*
X196607292Y-148841502D01*
X196445483Y-148586530D01*
X196364686Y-148488864D01*
X195436289Y-149417261D01*
X195339033Y-149283398D01*
X195216602Y-149160967D01*
X195082736Y-149063709D01*
X196013434Y-148133011D01*
X196013433Y-148133009D01*
X195788538Y-147969614D01*
X195788520Y-147969602D01*
X195523890Y-147824121D01*
X195523882Y-147824117D01*
X195243110Y-147712952D01*
X195243107Y-147712951D01*
X194950600Y-147637849D01*
X194651004Y-147600000D01*
X194348995Y-147600000D01*
X194049399Y-147637849D01*
X193756892Y-147712951D01*
X193756889Y-147712952D01*
X193476117Y-147824117D01*
X193476109Y-147824121D01*
X193211476Y-147969604D01*
X193211471Y-147969607D01*
X192986565Y-148133010D01*
X192986564Y-148133011D01*
X193917262Y-149063709D01*
X193783398Y-149160967D01*
X193660967Y-149283398D01*
X193563709Y-149417262D01*
X192635311Y-148488864D01*
X192554520Y-148586525D01*
X192554518Y-148586528D01*
X192392707Y-148841502D01*
X192392704Y-148841508D01*
X192264127Y-149114747D01*
X192264125Y-149114752D01*
X192170805Y-149401959D01*
X192114216Y-149698609D01*
X192114215Y-149698616D01*
X192095255Y-149999994D01*
X192095255Y-150000005D01*
X192114215Y-150301383D01*
X192114216Y-150301390D01*
X192170805Y-150598040D01*
X192264125Y-150885247D01*
X192264127Y-150885252D01*
X192392704Y-151158491D01*
X192392707Y-151158497D01*
X192554516Y-151413469D01*
X192635311Y-151511133D01*
X193563708Y-150582736D01*
X193660967Y-150716602D01*
X193783398Y-150839033D01*
X193917262Y-150936290D01*
X192986564Y-151866987D01*
X192986565Y-151866989D01*
X193211461Y-152030385D01*
X193211479Y-152030397D01*
X193476109Y-152175878D01*
X193476117Y-152175882D01*
X193689101Y-152260208D01*
X193744187Y-152303189D01*
X193767290Y-152369128D01*
X193751077Y-152437090D01*
X193700694Y-152485498D01*
X193643454Y-152499500D01*
X112356546Y-152499500D01*
X112289507Y-152479815D01*
X112243752Y-152427011D01*
X112233808Y-152357853D01*
X112262833Y-152294297D01*
X112310899Y-152260208D01*
X112523882Y-152175882D01*
X112523890Y-152175878D01*
X112788520Y-152030397D01*
X112788530Y-152030390D01*
X113013433Y-151866987D01*
X113013434Y-151866987D01*
X112082737Y-150936290D01*
X112216602Y-150839033D01*
X112339033Y-150716602D01*
X112436290Y-150582737D01*
X113364687Y-151511134D01*
X113445486Y-151413464D01*
X113607292Y-151158497D01*
X113607295Y-151158491D01*
X113735872Y-150885252D01*
X113735874Y-150885247D01*
X113829194Y-150598040D01*
X113885783Y-150301390D01*
X113885784Y-150301383D01*
X113904745Y-150000005D01*
X113904745Y-149999994D01*
X113885784Y-149698616D01*
X113885783Y-149698609D01*
X113829194Y-149401959D01*
X113735874Y-149114752D01*
X113735872Y-149114747D01*
X113607295Y-148841508D01*
X113607292Y-148841502D01*
X113445483Y-148586530D01*
X113364686Y-148488864D01*
X112436289Y-149417261D01*
X112339033Y-149283398D01*
X112216602Y-149160967D01*
X112082736Y-149063709D01*
X113013434Y-148133011D01*
X113013433Y-148133009D01*
X112788538Y-147969614D01*
X112788520Y-147969602D01*
X112523890Y-147824121D01*
X112523882Y-147824117D01*
X112243110Y-147712952D01*
X112243107Y-147712951D01*
X111950600Y-147637849D01*
X111651004Y-147600000D01*
X111348995Y-147600000D01*
X111049399Y-147637849D01*
X110756892Y-147712951D01*
X110756889Y-147712952D01*
X110476117Y-147824117D01*
X110476109Y-147824121D01*
X110211476Y-147969604D01*
X110211471Y-147969607D01*
X109986565Y-148133010D01*
X109986564Y-148133011D01*
X110917262Y-149063709D01*
X110783398Y-149160967D01*
X110660967Y-149283398D01*
X110563709Y-149417262D01*
X109635311Y-148488864D01*
X109554520Y-148586525D01*
X109554518Y-148586528D01*
X109392707Y-148841502D01*
X109392704Y-148841508D01*
X109264127Y-149114747D01*
X109264125Y-149114752D01*
X109170805Y-149401959D01*
X109114216Y-149698609D01*
X109114215Y-149698616D01*
X109095255Y-149999994D01*
X109095255Y-150000005D01*
X109114215Y-150301383D01*
X109114216Y-150301390D01*
X109170805Y-150598040D01*
X109264125Y-150885247D01*
X109264127Y-150885252D01*
X109392704Y-151158491D01*
X109392707Y-151158497D01*
X109554516Y-151413469D01*
X109635311Y-151511133D01*
X110563708Y-150582736D01*
X110660967Y-150716602D01*
X110783398Y-150839033D01*
X110917262Y-150936290D01*
X109986564Y-151866987D01*
X109986565Y-151866989D01*
X110211461Y-152030385D01*
X110211479Y-152030397D01*
X110476109Y-152175878D01*
X110476117Y-152175882D01*
X110689101Y-152260208D01*
X110744187Y-152303189D01*
X110767290Y-152369128D01*
X110751077Y-152437090D01*
X110700694Y-152485498D01*
X110643454Y-152499500D01*
X108624500Y-152499500D01*
X108557461Y-152479815D01*
X108511706Y-152427011D01*
X108500500Y-152375500D01*
X108500500Y-127500001D01*
X112856673Y-127500001D01*
X112875557Y-127764027D01*
X112875558Y-127764034D01*
X112931821Y-128022673D01*
X113024326Y-128270690D01*
X113024328Y-128270694D01*
X113151180Y-128503005D01*
X113151185Y-128503013D01*
X113309806Y-128714907D01*
X113309822Y-128714925D01*
X113496974Y-128902077D01*
X113496992Y-128902093D01*
X113708886Y-129060714D01*
X113708894Y-129060719D01*
X113941205Y-129187571D01*
X113941209Y-129187573D01*
X113941211Y-129187574D01*
X114189222Y-129280077D01*
X114189225Y-129280077D01*
X114189226Y-129280078D01*
X114384452Y-129322546D01*
X114447874Y-129336343D01*
X114691560Y-129353772D01*
X114711899Y-129355227D01*
X114711900Y-129355227D01*
X114711901Y-129355227D01*
X114730785Y-129353876D01*
X114975926Y-129336343D01*
X115234578Y-129280077D01*
X115482589Y-129187574D01*
X115714911Y-129060716D01*
X115926815Y-128902087D01*
X116113987Y-128714915D01*
X116272616Y-128503011D01*
X116399474Y-128270689D01*
X116491977Y-128022678D01*
X116548243Y-127764026D01*
X116567127Y-127500000D01*
X116566059Y-127485074D01*
X116564425Y-127462230D01*
X116548243Y-127235974D01*
X116527210Y-127139285D01*
X116491978Y-126977326D01*
X116482192Y-126951089D01*
X116399474Y-126729311D01*
X116309158Y-126563911D01*
X116272619Y-126496994D01*
X116272614Y-126496986D01*
X116113993Y-126285092D01*
X116113977Y-126285074D01*
X115926825Y-126097922D01*
X115926807Y-126097906D01*
X115714913Y-125939285D01*
X115714905Y-125939280D01*
X115482594Y-125812428D01*
X115482590Y-125812426D01*
X115234573Y-125719921D01*
X114975934Y-125663658D01*
X114975927Y-125663657D01*
X114711901Y-125644773D01*
X114711899Y-125644773D01*
X114447872Y-125663657D01*
X114447865Y-125663658D01*
X114189226Y-125719921D01*
X113941209Y-125812426D01*
X113941205Y-125812428D01*
X113708894Y-125939280D01*
X113708886Y-125939285D01*
X113496992Y-126097906D01*
X113496974Y-126097922D01*
X113309822Y-126285074D01*
X113309806Y-126285092D01*
X113151185Y-126496986D01*
X113151180Y-126496994D01*
X113024328Y-126729305D01*
X113024326Y-126729309D01*
X112931821Y-126977326D01*
X112875558Y-127235965D01*
X112875557Y-127235972D01*
X112856673Y-127499998D01*
X112856673Y-127500001D01*
X108500500Y-127500001D01*
X108500500Y-110624000D01*
X108520185Y-110556961D01*
X108572989Y-110511206D01*
X108624500Y-110500000D01*
X114600000Y-110500000D01*
X114600000Y-109213598D01*
X114602834Y-109187239D01*
X114632597Y-109050423D01*
X114632596Y-109050423D01*
X114632598Y-109050419D01*
X114635500Y-109001704D01*
X114635500Y-108530000D01*
X114905001Y-108530000D01*
X114905001Y-109001664D01*
X114907901Y-109050363D01*
X114953974Y-109262160D01*
X114953976Y-109262167D01*
X115039300Y-109461416D01*
X115039306Y-109461426D01*
X115160792Y-109640924D01*
X115160800Y-109640933D01*
X115314066Y-109794199D01*
X115314075Y-109794207D01*
X115493573Y-109915693D01*
X115493583Y-109915699D01*
X115692832Y-110001023D01*
X115692839Y-110001025D01*
X115789999Y-110022161D01*
X115790000Y-110022160D01*
X115790000Y-108530000D01*
X116290000Y-108530000D01*
X116290000Y-110022161D01*
X116387160Y-110001025D01*
X116387167Y-110001023D01*
X116586416Y-109915699D01*
X116586426Y-109915693D01*
X116765924Y-109794207D01*
X116765933Y-109794199D01*
X116919199Y-109640933D01*
X116919207Y-109640924D01*
X117040693Y-109461426D01*
X117040699Y-109461416D01*
X117126023Y-109262167D01*
X117126025Y-109262160D01*
X117172099Y-109050364D01*
X117175000Y-109001663D01*
X117175000Y-108530000D01*
X116290000Y-108530000D01*
X115790000Y-108530000D01*
X114905001Y-108530000D01*
X114635500Y-108530000D01*
X114635500Y-108224000D01*
X114655185Y-108156961D01*
X114707989Y-108111206D01*
X114759500Y-108100000D01*
X117320500Y-108100000D01*
X117387539Y-108119685D01*
X117433294Y-108172489D01*
X117444500Y-108224000D01*
X117444500Y-109001704D01*
X117447402Y-109050419D01*
X117447402Y-109050423D01*
X117447403Y-109050424D01*
X117493498Y-109262319D01*
X117494111Y-109264235D01*
X117494606Y-109267411D01*
X117494754Y-109268090D01*
X117494713Y-109268098D01*
X117500000Y-109301993D01*
X117500000Y-110500000D01*
X118435500Y-110500000D01*
X118502539Y-110519685D01*
X118548294Y-110572489D01*
X118559500Y-110624000D01*
X118559500Y-131874979D01*
X118539815Y-131942018D01*
X118487011Y-131987773D01*
X118417853Y-131997717D01*
X118354297Y-131968692D01*
X118331693Y-131942804D01*
X118330266Y-131940620D01*
X118164657Y-131760722D01*
X118164647Y-131760713D01*
X117971691Y-131610529D01*
X117971687Y-131610526D01*
X117756634Y-131494145D01*
X117756629Y-131494143D01*
X117525358Y-131414748D01*
X117344461Y-131384562D01*
X117284163Y-131374500D01*
X117039637Y-131374500D01*
X116991398Y-131382549D01*
X116798441Y-131414748D01*
X116567170Y-131494143D01*
X116567165Y-131494145D01*
X116352112Y-131610526D01*
X116352108Y-131610529D01*
X116159152Y-131760713D01*
X116159142Y-131760722D01*
X115993532Y-131940621D01*
X115859788Y-132145333D01*
X115761563Y-132369265D01*
X115701536Y-132606304D01*
X115701534Y-132606316D01*
X115681343Y-132849994D01*
X115681343Y-132850005D01*
X115701534Y-133093683D01*
X115701536Y-133093695D01*
X115761563Y-133330734D01*
X115859788Y-133554666D01*
X115993532Y-133759378D01*
X116159142Y-133939277D01*
X116159146Y-133939281D01*
X116352112Y-134089473D01*
X116567167Y-134205855D01*
X116567170Y-134205856D01*
X116798441Y-134285251D01*
X116798443Y-134285251D01*
X116798445Y-134285252D01*
X117039637Y-134325500D01*
X117039638Y-134325500D01*
X117284162Y-134325500D01*
X117284163Y-134325500D01*
X117525355Y-134285252D01*
X117756633Y-134205855D01*
X117971688Y-134089473D01*
X118164654Y-133939281D01*
X118330268Y-133759377D01*
X118330718Y-133758687D01*
X118331689Y-133757203D01*
X118332498Y-133756511D01*
X118333421Y-133755327D01*
X118333664Y-133755516D01*
X118384833Y-133711844D01*
X118454064Y-133702417D01*
X118517401Y-133731917D01*
X118554735Y-133790976D01*
X118559500Y-133825020D01*
X118559500Y-144880584D01*
X118539815Y-144947623D01*
X118487011Y-144993378D01*
X118476455Y-144997625D01*
X118400479Y-145024210D01*
X118400475Y-145024212D01*
X118247737Y-145120184D01*
X118120184Y-145247737D01*
X118024211Y-145400476D01*
X117964631Y-145570745D01*
X117964630Y-145570750D01*
X117944435Y-145749996D01*
X117944435Y-145750003D01*
X117964630Y-145929249D01*
X117964631Y-145929254D01*
X118024211Y-146099523D01*
X118120184Y-146252262D01*
X118247738Y-146379816D01*
X118400478Y-146475789D01*
X118570745Y-146535368D01*
X118570750Y-146535369D01*
X118749996Y-146555565D01*
X118750000Y-146555565D01*
X118750004Y-146555565D01*
X118929249Y-146535369D01*
X118929252Y-146535368D01*
X118929255Y-146535368D01*
X119099522Y-146475789D01*
X119252262Y-146379816D01*
X119379816Y-146252262D01*
X119475789Y-146099522D01*
X119535368Y-145929255D01*
X119555565Y-145750000D01*
X119535368Y-145570745D01*
X119475789Y-145400478D01*
X119379816Y-145247738D01*
X119252262Y-145120184D01*
X119099522Y-145024211D01*
X119099520Y-145024210D01*
X119023545Y-144997625D01*
X118966769Y-144956903D01*
X118941022Y-144891951D01*
X118940500Y-144880584D01*
X118940500Y-132941500D01*
X118960185Y-132874461D01*
X118986845Y-132851359D01*
X118975836Y-132845186D01*
X118943044Y-132783489D01*
X118940500Y-132758499D01*
X118940500Y-110780269D01*
X118960185Y-110713230D01*
X118976819Y-110692588D01*
X119133088Y-110536319D01*
X119194411Y-110502834D01*
X119220769Y-110500000D01*
X120871231Y-110500000D01*
X120938270Y-110519685D01*
X120984025Y-110572489D01*
X120993969Y-110641647D01*
X120964944Y-110705203D01*
X120958916Y-110711676D01*
X120600862Y-111069730D01*
X120554091Y-111116501D01*
X120500503Y-111170088D01*
X120500502Y-111170089D01*
X120471500Y-111240105D01*
X120471500Y-131280847D01*
X120451815Y-131347886D01*
X120399011Y-131393641D01*
X120367910Y-131403156D01*
X120298441Y-131414748D01*
X120067170Y-131494143D01*
X120067165Y-131494145D01*
X119852112Y-131610526D01*
X119852108Y-131610529D01*
X119659152Y-131760713D01*
X119659142Y-131760722D01*
X119493532Y-131940621D01*
X119359788Y-132145333D01*
X119261563Y-132369265D01*
X119201536Y-132606304D01*
X119201534Y-132606316D01*
X119188076Y-132768739D01*
X119162923Y-132833924D01*
X119144631Y-132847297D01*
X119145703Y-132847787D01*
X119183477Y-132906565D01*
X119188076Y-132931260D01*
X119201534Y-133093683D01*
X119201536Y-133093695D01*
X119261563Y-133330734D01*
X119359788Y-133554666D01*
X119493532Y-133759378D01*
X119659142Y-133939277D01*
X119659146Y-133939281D01*
X119852112Y-134089473D01*
X120067167Y-134205855D01*
X120067170Y-134205856D01*
X120298441Y-134285251D01*
X120298443Y-134285251D01*
X120298445Y-134285252D01*
X120539637Y-134325500D01*
X120539638Y-134325500D01*
X120784162Y-134325500D01*
X120784163Y-134325500D01*
X121025355Y-134285252D01*
X121256633Y-134205855D01*
X121471688Y-134089473D01*
X121664654Y-133939281D01*
X121830268Y-133759377D01*
X121964011Y-133554667D01*
X122062236Y-133330736D01*
X122122264Y-133093692D01*
X122140430Y-132874461D01*
X122142457Y-132850005D01*
X122142457Y-132849994D01*
X122122265Y-132606316D01*
X122122263Y-132606304D01*
X122119344Y-132594778D01*
X122062236Y-132369264D01*
X121964011Y-132145333D01*
X121941304Y-132110577D01*
X121830267Y-131940621D01*
X121664657Y-131760722D01*
X121664647Y-131760713D01*
X121471691Y-131610529D01*
X121471687Y-131610526D01*
X121256634Y-131494145D01*
X121256629Y-131494143D01*
X121025358Y-131414748D01*
X120956089Y-131403189D01*
X120893204Y-131372738D01*
X120856765Y-131313123D01*
X120852500Y-131280880D01*
X120852500Y-111408269D01*
X120872185Y-111341230D01*
X120888819Y-111320588D01*
X121673088Y-110536319D01*
X121734411Y-110502834D01*
X121760769Y-110500000D01*
X124942100Y-110500000D01*
X125009139Y-110519685D01*
X125054894Y-110572489D01*
X125066100Y-110624000D01*
X125066100Y-127956877D01*
X125046415Y-128023916D01*
X124993611Y-128069671D01*
X124924453Y-128079615D01*
X124860897Y-128050590D01*
X124825918Y-128000211D01*
X124799474Y-127929311D01*
X124672616Y-127696989D01*
X124672614Y-127696986D01*
X124513993Y-127485092D01*
X124513977Y-127485074D01*
X124326825Y-127297922D01*
X124326807Y-127297906D01*
X124114913Y-127139285D01*
X124114905Y-127139280D01*
X123882594Y-127012428D01*
X123882590Y-127012426D01*
X123634573Y-126919921D01*
X123375934Y-126863658D01*
X123375927Y-126863657D01*
X123111901Y-126844773D01*
X123111899Y-126844773D01*
X122847872Y-126863657D01*
X122847865Y-126863658D01*
X122589226Y-126919921D01*
X122341209Y-127012426D01*
X122341205Y-127012428D01*
X122108894Y-127139280D01*
X122108886Y-127139285D01*
X121896992Y-127297906D01*
X121896974Y-127297922D01*
X121709822Y-127485074D01*
X121709806Y-127485092D01*
X121551185Y-127696986D01*
X121551180Y-127696994D01*
X121424328Y-127929305D01*
X121424326Y-127929309D01*
X121331821Y-128177326D01*
X121275558Y-128435965D01*
X121275557Y-128435972D01*
X121256673Y-128699998D01*
X121256673Y-128700001D01*
X121275557Y-128964027D01*
X121275558Y-128964034D01*
X121331821Y-129222673D01*
X121424326Y-129470690D01*
X121424328Y-129470694D01*
X121551180Y-129703005D01*
X121551185Y-129703013D01*
X121709806Y-129914907D01*
X121709822Y-129914925D01*
X121896974Y-130102077D01*
X121896992Y-130102093D01*
X122108886Y-130260714D01*
X122108894Y-130260719D01*
X122341205Y-130387571D01*
X122341209Y-130387573D01*
X122341211Y-130387574D01*
X122589222Y-130480077D01*
X122589225Y-130480077D01*
X122589226Y-130480078D01*
X122784452Y-130522546D01*
X122847874Y-130536343D01*
X123091560Y-130553772D01*
X123111899Y-130555227D01*
X123111900Y-130555227D01*
X123111901Y-130555227D01*
X123130785Y-130553876D01*
X123375926Y-130536343D01*
X123634578Y-130480077D01*
X123882589Y-130387574D01*
X124114911Y-130260716D01*
X124326815Y-130102087D01*
X124513987Y-129914915D01*
X124672616Y-129703011D01*
X124799474Y-129470689D01*
X124891977Y-129222678D01*
X124927209Y-129060719D01*
X124938596Y-129008374D01*
X124972081Y-128947051D01*
X125033404Y-128913566D01*
X125103095Y-128918550D01*
X125147443Y-128947051D01*
X125166126Y-128965734D01*
X125166132Y-128965739D01*
X128551016Y-132350623D01*
X128584501Y-132411946D01*
X128580377Y-132479259D01*
X128518831Y-132655145D01*
X128518830Y-132655150D01*
X128498635Y-132834396D01*
X128498635Y-132834403D01*
X128518830Y-133013649D01*
X128518831Y-133013654D01*
X128578411Y-133183923D01*
X128670659Y-133330734D01*
X128674384Y-133336662D01*
X128801938Y-133464216D01*
X128892280Y-133520982D01*
X128945889Y-133554667D01*
X128954678Y-133560189D01*
X129124945Y-133619768D01*
X129124950Y-133619769D01*
X129304196Y-133639965D01*
X129304200Y-133639965D01*
X129304204Y-133639965D01*
X129483449Y-133619769D01*
X129483452Y-133619768D01*
X129483455Y-133619768D01*
X129653722Y-133560189D01*
X129806462Y-133464216D01*
X129934016Y-133336662D01*
X130029989Y-133183922D01*
X130089568Y-133013655D01*
X130101634Y-132906565D01*
X130108007Y-132850005D01*
X132280643Y-132850005D01*
X132300834Y-133093683D01*
X132300836Y-133093695D01*
X132360863Y-133330734D01*
X132459088Y-133554666D01*
X132592832Y-133759378D01*
X132758442Y-133939277D01*
X132758446Y-133939281D01*
X132951412Y-134089473D01*
X133166467Y-134205855D01*
X133166470Y-134205856D01*
X133397741Y-134285251D01*
X133397743Y-134285251D01*
X133397745Y-134285252D01*
X133638937Y-134325500D01*
X133638938Y-134325500D01*
X133883462Y-134325500D01*
X133883463Y-134325500D01*
X134124655Y-134285252D01*
X134355933Y-134205855D01*
X134570988Y-134089473D01*
X134763954Y-133939281D01*
X134929568Y-133759377D01*
X135063311Y-133554667D01*
X135161536Y-133330736D01*
X135221564Y-133093692D01*
X135239730Y-132874461D01*
X135241757Y-132850005D01*
X135241757Y-132849994D01*
X135221565Y-132606316D01*
X135221563Y-132606304D01*
X135218644Y-132594778D01*
X135161536Y-132369264D01*
X135063311Y-132145333D01*
X135040604Y-132110577D01*
X134929567Y-131940621D01*
X134763957Y-131760722D01*
X134763947Y-131760713D01*
X134570991Y-131610529D01*
X134570987Y-131610526D01*
X134355934Y-131494145D01*
X134355929Y-131494143D01*
X134124658Y-131414748D01*
X133943761Y-131384562D01*
X133883463Y-131374500D01*
X133638937Y-131374500D01*
X133590698Y-131382549D01*
X133397741Y-131414748D01*
X133166470Y-131494143D01*
X133166465Y-131494145D01*
X132951412Y-131610526D01*
X132951408Y-131610529D01*
X132758452Y-131760713D01*
X132758442Y-131760722D01*
X132592832Y-131940621D01*
X132459088Y-132145333D01*
X132360863Y-132369265D01*
X132300836Y-132606304D01*
X132300834Y-132606316D01*
X132280643Y-132849994D01*
X132280643Y-132850005D01*
X130108007Y-132850005D01*
X130109765Y-132834403D01*
X130109765Y-132834396D01*
X130089569Y-132655150D01*
X130089568Y-132655145D01*
X130029988Y-132484876D01*
X129934015Y-132332137D01*
X129806462Y-132204584D01*
X129653723Y-132108611D01*
X129483454Y-132049031D01*
X129483449Y-132049030D01*
X129304204Y-132028835D01*
X129304196Y-132028835D01*
X129124950Y-132049030D01*
X129124945Y-132049031D01*
X128949059Y-132110577D01*
X128879280Y-132114138D01*
X128820423Y-132081216D01*
X125483419Y-128744212D01*
X125449934Y-128682889D01*
X125447100Y-128656531D01*
X125447100Y-127500001D01*
X129455973Y-127500001D01*
X129474857Y-127764027D01*
X129474858Y-127764034D01*
X129531121Y-128022673D01*
X129623626Y-128270690D01*
X129623628Y-128270694D01*
X129750480Y-128503005D01*
X129750485Y-128503013D01*
X129909106Y-128714907D01*
X129909122Y-128714925D01*
X130096274Y-128902077D01*
X130096292Y-128902093D01*
X130308186Y-129060714D01*
X130308194Y-129060719D01*
X130540505Y-129187571D01*
X130540509Y-129187573D01*
X130540511Y-129187574D01*
X130788522Y-129280077D01*
X130788525Y-129280077D01*
X130788526Y-129280078D01*
X130983752Y-129322546D01*
X131047174Y-129336343D01*
X131290860Y-129353772D01*
X131311199Y-129355227D01*
X131311200Y-129355227D01*
X131311201Y-129355227D01*
X131330085Y-129353876D01*
X131575226Y-129336343D01*
X131833878Y-129280077D01*
X132081889Y-129187574D01*
X132314211Y-129060716D01*
X132526115Y-128902087D01*
X132713287Y-128714915D01*
X132871916Y-128503011D01*
X132998774Y-128270689D01*
X133091277Y-128022678D01*
X133147543Y-127764026D01*
X133166427Y-127500000D01*
X133165359Y-127485074D01*
X133163725Y-127462230D01*
X133147543Y-127235974D01*
X133126510Y-127139285D01*
X133091278Y-126977326D01*
X133081492Y-126951089D01*
X132998774Y-126729311D01*
X132908458Y-126563911D01*
X132871919Y-126496994D01*
X132871914Y-126496986D01*
X132713293Y-126285092D01*
X132713277Y-126285074D01*
X132526125Y-126097922D01*
X132526107Y-126097906D01*
X132314213Y-125939285D01*
X132314205Y-125939280D01*
X132081894Y-125812428D01*
X132081890Y-125812426D01*
X131833873Y-125719921D01*
X131575234Y-125663658D01*
X131575227Y-125663657D01*
X131311201Y-125644773D01*
X131311199Y-125644773D01*
X131047172Y-125663657D01*
X131047165Y-125663658D01*
X130788526Y-125719921D01*
X130540509Y-125812426D01*
X130540505Y-125812428D01*
X130308194Y-125939280D01*
X130308186Y-125939285D01*
X130096292Y-126097906D01*
X130096274Y-126097922D01*
X129909122Y-126285074D01*
X129909106Y-126285092D01*
X129750485Y-126496986D01*
X129750480Y-126496994D01*
X129623628Y-126729305D01*
X129623626Y-126729309D01*
X129531121Y-126977326D01*
X129474858Y-127235965D01*
X129474857Y-127235972D01*
X129455973Y-127499998D01*
X129455973Y-127500001D01*
X125447100Y-127500001D01*
X125447100Y-110624000D01*
X125466785Y-110556961D01*
X125519589Y-110511206D01*
X125571100Y-110500000D01*
X125885500Y-110500000D01*
X125952539Y-110519685D01*
X125998294Y-110572489D01*
X126009500Y-110624000D01*
X126009500Y-111237894D01*
X126038502Y-111307910D01*
X126109526Y-111378934D01*
X126109532Y-111378939D01*
X137034181Y-122303588D01*
X137067666Y-122364911D01*
X137070500Y-122391269D01*
X137070500Y-131280897D01*
X137050815Y-131347936D01*
X136998011Y-131393691D01*
X136966910Y-131403206D01*
X136897742Y-131414748D01*
X136666470Y-131494143D01*
X136666465Y-131494145D01*
X136451412Y-131610526D01*
X136451408Y-131610529D01*
X136258452Y-131760713D01*
X136258442Y-131760722D01*
X136092832Y-131940621D01*
X135959088Y-132145333D01*
X135860863Y-132369265D01*
X135800836Y-132606304D01*
X135800834Y-132606316D01*
X135780643Y-132849994D01*
X135780643Y-132850005D01*
X135800834Y-133093683D01*
X135800836Y-133093695D01*
X135860863Y-133330734D01*
X135959088Y-133554666D01*
X136092832Y-133759378D01*
X136258442Y-133939277D01*
X136258446Y-133939281D01*
X136451412Y-134089473D01*
X136666467Y-134205855D01*
X136666470Y-134205856D01*
X136897741Y-134285251D01*
X136897743Y-134285251D01*
X136897745Y-134285252D01*
X137138937Y-134325500D01*
X137138938Y-134325500D01*
X137383462Y-134325500D01*
X137383463Y-134325500D01*
X137624655Y-134285252D01*
X137855933Y-134205855D01*
X138070988Y-134089473D01*
X138263954Y-133939281D01*
X138429568Y-133759377D01*
X138563311Y-133554667D01*
X138661536Y-133330736D01*
X138721564Y-133093692D01*
X138739730Y-132874461D01*
X138741757Y-132850005D01*
X148969443Y-132850005D01*
X148989634Y-133093683D01*
X148989636Y-133093695D01*
X149049663Y-133330734D01*
X149147888Y-133554666D01*
X149281632Y-133759378D01*
X149447242Y-133939277D01*
X149447246Y-133939281D01*
X149640212Y-134089473D01*
X149855267Y-134205855D01*
X149855270Y-134205856D01*
X150086541Y-134285251D01*
X150086543Y-134285251D01*
X150086545Y-134285252D01*
X150327737Y-134325500D01*
X150327738Y-134325500D01*
X150572262Y-134325500D01*
X150572263Y-134325500D01*
X150813455Y-134285252D01*
X151044733Y-134205855D01*
X151259788Y-134089473D01*
X151452754Y-133939281D01*
X151618368Y-133759377D01*
X151752111Y-133554667D01*
X151850336Y-133330736D01*
X151910364Y-133093692D01*
X151928530Y-132874461D01*
X151930557Y-132850005D01*
X151930557Y-132849994D01*
X151910365Y-132606316D01*
X151910363Y-132606304D01*
X151907444Y-132594778D01*
X151850336Y-132369264D01*
X151752111Y-132145333D01*
X151729404Y-132110577D01*
X151618367Y-131940621D01*
X151452757Y-131760722D01*
X151452747Y-131760713D01*
X151259791Y-131610529D01*
X151259787Y-131610526D01*
X151044734Y-131494145D01*
X151044729Y-131494143D01*
X150813458Y-131414748D01*
X150632561Y-131384562D01*
X150572263Y-131374500D01*
X150327737Y-131374500D01*
X150279498Y-131382549D01*
X150086541Y-131414748D01*
X149855270Y-131494143D01*
X149855265Y-131494145D01*
X149640212Y-131610526D01*
X149640208Y-131610529D01*
X149447252Y-131760713D01*
X149447242Y-131760722D01*
X149281632Y-131940621D01*
X149147888Y-132145333D01*
X149049663Y-132369265D01*
X148989636Y-132606304D01*
X148989634Y-132606316D01*
X148969443Y-132849994D01*
X148969443Y-132850005D01*
X138741757Y-132850005D01*
X138741757Y-132849994D01*
X138721565Y-132606316D01*
X138721563Y-132606304D01*
X138718644Y-132594778D01*
X138661536Y-132369264D01*
X138563311Y-132145333D01*
X138540604Y-132110577D01*
X138429567Y-131940621D01*
X138263957Y-131760722D01*
X138263947Y-131760713D01*
X138070991Y-131610529D01*
X138070987Y-131610526D01*
X137855934Y-131494145D01*
X137855929Y-131494143D01*
X137624657Y-131414748D01*
X137555090Y-131403139D01*
X137492205Y-131372688D01*
X137455765Y-131313073D01*
X137451500Y-131280830D01*
X137451500Y-128700001D01*
X137855973Y-128700001D01*
X137874857Y-128964027D01*
X137874858Y-128964034D01*
X137931121Y-129222673D01*
X138023626Y-129470690D01*
X138023628Y-129470694D01*
X138150480Y-129703005D01*
X138150485Y-129703013D01*
X138309106Y-129914907D01*
X138309122Y-129914925D01*
X138496274Y-130102077D01*
X138496292Y-130102093D01*
X138708186Y-130260714D01*
X138708194Y-130260719D01*
X138940505Y-130387571D01*
X138940509Y-130387573D01*
X138940511Y-130387574D01*
X139188522Y-130480077D01*
X139188525Y-130480077D01*
X139188526Y-130480078D01*
X139383752Y-130522546D01*
X139447174Y-130536343D01*
X139690860Y-130553772D01*
X139711199Y-130555227D01*
X139711200Y-130555227D01*
X139711201Y-130555227D01*
X139730085Y-130553876D01*
X139975226Y-130536343D01*
X140233878Y-130480077D01*
X140481889Y-130387574D01*
X140714211Y-130260716D01*
X140926115Y-130102087D01*
X141113287Y-129914915D01*
X141271916Y-129703011D01*
X141398774Y-129470689D01*
X141491277Y-129222678D01*
X141547543Y-128964026D01*
X141565361Y-128714907D01*
X141566427Y-128700001D01*
X141566427Y-128699998D01*
X141563318Y-128656531D01*
X141547543Y-128435974D01*
X141491277Y-128177322D01*
X141398774Y-127929311D01*
X141271916Y-127696989D01*
X141271914Y-127696986D01*
X141124454Y-127500001D01*
X146144773Y-127500001D01*
X146163657Y-127764027D01*
X146163658Y-127764034D01*
X146219921Y-128022673D01*
X146312426Y-128270690D01*
X146312428Y-128270694D01*
X146439280Y-128503005D01*
X146439285Y-128503013D01*
X146597906Y-128714907D01*
X146597922Y-128714925D01*
X146785074Y-128902077D01*
X146785092Y-128902093D01*
X146996986Y-129060714D01*
X146996994Y-129060719D01*
X147229305Y-129187571D01*
X147229309Y-129187573D01*
X147229311Y-129187574D01*
X147477322Y-129280077D01*
X147477325Y-129280077D01*
X147477326Y-129280078D01*
X147672552Y-129322546D01*
X147735974Y-129336343D01*
X147979660Y-129353772D01*
X147999999Y-129355227D01*
X148000000Y-129355227D01*
X148000001Y-129355227D01*
X148018885Y-129353876D01*
X148264026Y-129336343D01*
X148522678Y-129280077D01*
X148770689Y-129187574D01*
X149003011Y-129060716D01*
X149214915Y-128902087D01*
X149402087Y-128714915D01*
X149560716Y-128503011D01*
X149687574Y-128270689D01*
X149780077Y-128022678D01*
X149836343Y-127764026D01*
X149855227Y-127500000D01*
X149854159Y-127485074D01*
X149852525Y-127462230D01*
X149836343Y-127235974D01*
X149815310Y-127139285D01*
X149780078Y-126977326D01*
X149770292Y-126951089D01*
X149687574Y-126729311D01*
X149597258Y-126563911D01*
X149560719Y-126496994D01*
X149560714Y-126496986D01*
X149402093Y-126285092D01*
X149402077Y-126285074D01*
X149214925Y-126097922D01*
X149214907Y-126097906D01*
X149003013Y-125939285D01*
X149003005Y-125939280D01*
X148770694Y-125812428D01*
X148770690Y-125812426D01*
X148522673Y-125719921D01*
X148264034Y-125663658D01*
X148264027Y-125663657D01*
X148000001Y-125644773D01*
X147999999Y-125644773D01*
X147735972Y-125663657D01*
X147735965Y-125663658D01*
X147477326Y-125719921D01*
X147229309Y-125812426D01*
X147229305Y-125812428D01*
X146996994Y-125939280D01*
X146996986Y-125939285D01*
X146785092Y-126097906D01*
X146785074Y-126097922D01*
X146597922Y-126285074D01*
X146597906Y-126285092D01*
X146439285Y-126496986D01*
X146439280Y-126496994D01*
X146312428Y-126729305D01*
X146312426Y-126729309D01*
X146219921Y-126977326D01*
X146163658Y-127235965D01*
X146163657Y-127235972D01*
X146144773Y-127499998D01*
X146144773Y-127500001D01*
X141124454Y-127500001D01*
X141113293Y-127485092D01*
X141113277Y-127485074D01*
X140926125Y-127297922D01*
X140926107Y-127297906D01*
X140714213Y-127139285D01*
X140714205Y-127139280D01*
X140481894Y-127012428D01*
X140481890Y-127012426D01*
X140233873Y-126919921D01*
X139975234Y-126863658D01*
X139975227Y-126863657D01*
X139711201Y-126844773D01*
X139711199Y-126844773D01*
X139447172Y-126863657D01*
X139447165Y-126863658D01*
X139188526Y-126919921D01*
X138940509Y-127012426D01*
X138940505Y-127012428D01*
X138708194Y-127139280D01*
X138708186Y-127139285D01*
X138496292Y-127297906D01*
X138496274Y-127297922D01*
X138309122Y-127485074D01*
X138309106Y-127485092D01*
X138150485Y-127696986D01*
X138150480Y-127696994D01*
X138023628Y-127929305D01*
X138023626Y-127929309D01*
X137931121Y-128177326D01*
X137874858Y-128435965D01*
X137874857Y-128435972D01*
X137855973Y-128699998D01*
X137855973Y-128700001D01*
X137451500Y-128700001D01*
X137451500Y-122223108D01*
X137451499Y-122223105D01*
X137422498Y-122153090D01*
X137368910Y-122099502D01*
X137368909Y-122099501D01*
X126426819Y-111157411D01*
X126393334Y-111096088D01*
X126390500Y-111069730D01*
X126390500Y-110624000D01*
X126410185Y-110556961D01*
X126462989Y-110511206D01*
X126514500Y-110500000D01*
X130639231Y-110500000D01*
X130706270Y-110519685D01*
X130726912Y-110536319D01*
X131291431Y-111100838D01*
X131291434Y-111100842D01*
X131298502Y-111107910D01*
X131352090Y-111161498D01*
X131397588Y-111180343D01*
X131437816Y-111207223D01*
X142831431Y-122600838D01*
X142831434Y-122600842D01*
X142838502Y-122607910D01*
X142892090Y-122661498D01*
X142962107Y-122690500D01*
X142962108Y-122690500D01*
X143037892Y-122690500D01*
X149869731Y-122690500D01*
X149936770Y-122710185D01*
X149957412Y-122726819D01*
X153723181Y-126492588D01*
X153756666Y-126553911D01*
X153759500Y-126580269D01*
X153759500Y-131280863D01*
X153739815Y-131347902D01*
X153687011Y-131393657D01*
X153655911Y-131403172D01*
X153586541Y-131414748D01*
X153355270Y-131494143D01*
X153355265Y-131494145D01*
X153140212Y-131610526D01*
X153140208Y-131610529D01*
X152947252Y-131760713D01*
X152947242Y-131760722D01*
X152781632Y-131940621D01*
X152647888Y-132145333D01*
X152549663Y-132369265D01*
X152489636Y-132606304D01*
X152489634Y-132606316D01*
X152469443Y-132849994D01*
X152469443Y-132850005D01*
X152489634Y-133093683D01*
X152489636Y-133093695D01*
X152549663Y-133330734D01*
X152647888Y-133554666D01*
X152781632Y-133759378D01*
X152947242Y-133939277D01*
X152947246Y-133939281D01*
X153140212Y-134089473D01*
X153355267Y-134205855D01*
X153355270Y-134205856D01*
X153586541Y-134285251D01*
X153586543Y-134285251D01*
X153586545Y-134285252D01*
X153827737Y-134325500D01*
X153827738Y-134325500D01*
X154072262Y-134325500D01*
X154072263Y-134325500D01*
X154313455Y-134285252D01*
X154544733Y-134205855D01*
X154759788Y-134089473D01*
X154952754Y-133939281D01*
X155118368Y-133759377D01*
X155252111Y-133554667D01*
X155350336Y-133330736D01*
X155410364Y-133093692D01*
X155428530Y-132874461D01*
X155430557Y-132850005D01*
X165479143Y-132850005D01*
X165499334Y-133093683D01*
X165499336Y-133093695D01*
X165559363Y-133330734D01*
X165657588Y-133554666D01*
X165791332Y-133759378D01*
X165956942Y-133939277D01*
X165956946Y-133939281D01*
X166149912Y-134089473D01*
X166364967Y-134205855D01*
X166364970Y-134205856D01*
X166596241Y-134285251D01*
X166596243Y-134285251D01*
X166596245Y-134285252D01*
X166837437Y-134325500D01*
X166837438Y-134325500D01*
X167081962Y-134325500D01*
X167081963Y-134325500D01*
X167323155Y-134285252D01*
X167554433Y-134205855D01*
X167769488Y-134089473D01*
X167962454Y-133939281D01*
X168128068Y-133759377D01*
X168261811Y-133554667D01*
X168360036Y-133330736D01*
X168420064Y-133093692D01*
X168438230Y-132874461D01*
X168440257Y-132850005D01*
X168440257Y-132849994D01*
X168420065Y-132606316D01*
X168420063Y-132606304D01*
X168417144Y-132594778D01*
X168360036Y-132369264D01*
X168261811Y-132145333D01*
X168239104Y-132110577D01*
X168128067Y-131940621D01*
X167962457Y-131760722D01*
X167962447Y-131760713D01*
X167769491Y-131610529D01*
X167769487Y-131610526D01*
X167554434Y-131494145D01*
X167554429Y-131494143D01*
X167323158Y-131414748D01*
X167142261Y-131384562D01*
X167081963Y-131374500D01*
X166837437Y-131374500D01*
X166789198Y-131382549D01*
X166596241Y-131414748D01*
X166364970Y-131494143D01*
X166364965Y-131494145D01*
X166149912Y-131610526D01*
X166149908Y-131610529D01*
X165956952Y-131760713D01*
X165956942Y-131760722D01*
X165791332Y-131940621D01*
X165657588Y-132145333D01*
X165559363Y-132369265D01*
X165499336Y-132606304D01*
X165499334Y-132606316D01*
X165479143Y-132849994D01*
X165479143Y-132850005D01*
X155430557Y-132850005D01*
X155430557Y-132849994D01*
X155410365Y-132606316D01*
X155410363Y-132606304D01*
X155407444Y-132594778D01*
X155350336Y-132369264D01*
X155252111Y-132145333D01*
X155229404Y-132110577D01*
X155118367Y-131940621D01*
X154952757Y-131760722D01*
X154952747Y-131760713D01*
X154759791Y-131610529D01*
X154759787Y-131610526D01*
X154544734Y-131494145D01*
X154544729Y-131494143D01*
X154313458Y-131414748D01*
X154244089Y-131403172D01*
X154181204Y-131372720D01*
X154144765Y-131313105D01*
X154140500Y-131280863D01*
X154140500Y-128700001D01*
X154544773Y-128700001D01*
X154563657Y-128964027D01*
X154563658Y-128964034D01*
X154619921Y-129222673D01*
X154712426Y-129470690D01*
X154712428Y-129470694D01*
X154839280Y-129703005D01*
X154839285Y-129703013D01*
X154997906Y-129914907D01*
X154997922Y-129914925D01*
X155185074Y-130102077D01*
X155185092Y-130102093D01*
X155396986Y-130260714D01*
X155396994Y-130260719D01*
X155629305Y-130387571D01*
X155629309Y-130387573D01*
X155629311Y-130387574D01*
X155877322Y-130480077D01*
X155877325Y-130480077D01*
X155877326Y-130480078D01*
X156072552Y-130522546D01*
X156135974Y-130536343D01*
X156379660Y-130553772D01*
X156399999Y-130555227D01*
X156400000Y-130555227D01*
X156400001Y-130555227D01*
X156418885Y-130553876D01*
X156664026Y-130536343D01*
X156922678Y-130480077D01*
X157170689Y-130387574D01*
X157403011Y-130260716D01*
X157614915Y-130102087D01*
X157802087Y-129914915D01*
X157960716Y-129703011D01*
X158087574Y-129470689D01*
X158180077Y-129222678D01*
X158236343Y-128964026D01*
X158254161Y-128714907D01*
X158255227Y-128700001D01*
X158255227Y-128699998D01*
X158252118Y-128656531D01*
X158236343Y-128435974D01*
X158180077Y-128177322D01*
X158087574Y-127929311D01*
X157960716Y-127696989D01*
X157960714Y-127696986D01*
X157813254Y-127500001D01*
X162654473Y-127500001D01*
X162673357Y-127764027D01*
X162673358Y-127764034D01*
X162729621Y-128022673D01*
X162822126Y-128270690D01*
X162822128Y-128270694D01*
X162948980Y-128503005D01*
X162948985Y-128503013D01*
X163107606Y-128714907D01*
X163107622Y-128714925D01*
X163294774Y-128902077D01*
X163294792Y-128902093D01*
X163506686Y-129060714D01*
X163506694Y-129060719D01*
X163739005Y-129187571D01*
X163739009Y-129187573D01*
X163739011Y-129187574D01*
X163987022Y-129280077D01*
X163987025Y-129280077D01*
X163987026Y-129280078D01*
X164182252Y-129322546D01*
X164245674Y-129336343D01*
X164489360Y-129353772D01*
X164509699Y-129355227D01*
X164509700Y-129355227D01*
X164509701Y-129355227D01*
X164528585Y-129353876D01*
X164773726Y-129336343D01*
X165032378Y-129280077D01*
X165280389Y-129187574D01*
X165512711Y-129060716D01*
X165724615Y-128902087D01*
X165911787Y-128714915D01*
X166070416Y-128503011D01*
X166197274Y-128270689D01*
X166289777Y-128022678D01*
X166346043Y-127764026D01*
X166364927Y-127500000D01*
X166363859Y-127485074D01*
X166362225Y-127462230D01*
X166346043Y-127235974D01*
X166325010Y-127139285D01*
X166289778Y-126977326D01*
X166279992Y-126951089D01*
X166197274Y-126729311D01*
X166106958Y-126563911D01*
X166070419Y-126496994D01*
X166070414Y-126496986D01*
X165911793Y-126285092D01*
X165911777Y-126285074D01*
X165724625Y-126097922D01*
X165724607Y-126097906D01*
X165512713Y-125939285D01*
X165512705Y-125939280D01*
X165280394Y-125812428D01*
X165280390Y-125812426D01*
X165032373Y-125719921D01*
X164773734Y-125663658D01*
X164773727Y-125663657D01*
X164509701Y-125644773D01*
X164509699Y-125644773D01*
X164245672Y-125663657D01*
X164245665Y-125663658D01*
X163987026Y-125719921D01*
X163739009Y-125812426D01*
X163739005Y-125812428D01*
X163506694Y-125939280D01*
X163506686Y-125939285D01*
X163294792Y-126097906D01*
X163294774Y-126097922D01*
X163107622Y-126285074D01*
X163107606Y-126285092D01*
X162948985Y-126496986D01*
X162948980Y-126496994D01*
X162822128Y-126729305D01*
X162822126Y-126729309D01*
X162729621Y-126977326D01*
X162673358Y-127235965D01*
X162673357Y-127235972D01*
X162654473Y-127499998D01*
X162654473Y-127500001D01*
X157813254Y-127500001D01*
X157802093Y-127485092D01*
X157802077Y-127485074D01*
X157614925Y-127297922D01*
X157614907Y-127297906D01*
X157403013Y-127139285D01*
X157403005Y-127139280D01*
X157170694Y-127012428D01*
X157170690Y-127012426D01*
X156922673Y-126919921D01*
X156664034Y-126863658D01*
X156664027Y-126863657D01*
X156400001Y-126844773D01*
X156399999Y-126844773D01*
X156135972Y-126863657D01*
X156135965Y-126863658D01*
X155877326Y-126919921D01*
X155629309Y-127012426D01*
X155629305Y-127012428D01*
X155396994Y-127139280D01*
X155396986Y-127139285D01*
X155185092Y-127297906D01*
X155185074Y-127297922D01*
X154997922Y-127485074D01*
X154997906Y-127485092D01*
X154839285Y-127696986D01*
X154839280Y-127696994D01*
X154712428Y-127929305D01*
X154712426Y-127929309D01*
X154619921Y-128177326D01*
X154563658Y-128435965D01*
X154563657Y-128435972D01*
X154544773Y-128699998D01*
X154544773Y-128700001D01*
X154140500Y-128700001D01*
X154140500Y-126502335D01*
X154140501Y-126502326D01*
X154140501Y-126412109D01*
X154140500Y-126412106D01*
X154111499Y-126342091D01*
X150178938Y-122409531D01*
X150178937Y-122409529D01*
X150107910Y-122338502D01*
X150037894Y-122309500D01*
X150037893Y-122309500D01*
X143130269Y-122309500D01*
X143063230Y-122289815D01*
X143042588Y-122273181D01*
X131678939Y-110909532D01*
X131678937Y-110909529D01*
X131607911Y-110838503D01*
X131607910Y-110838502D01*
X131562408Y-110819654D01*
X131522182Y-110792775D01*
X131441088Y-110711681D01*
X131407603Y-110650358D01*
X131412587Y-110580666D01*
X131454459Y-110524733D01*
X131519923Y-110500316D01*
X131528769Y-110500000D01*
X131679231Y-110500000D01*
X131746270Y-110519685D01*
X131766912Y-110536319D01*
X140831431Y-119600838D01*
X140831434Y-119600842D01*
X140838502Y-119607910D01*
X140892090Y-119661498D01*
X140962107Y-119690500D01*
X140962108Y-119690500D01*
X141037893Y-119690500D01*
X163369731Y-119690500D01*
X163436770Y-119710185D01*
X163457412Y-119726819D01*
X170233181Y-126502588D01*
X170266666Y-126563911D01*
X170269500Y-126590269D01*
X170269500Y-131280813D01*
X170249815Y-131347852D01*
X170197011Y-131393607D01*
X170165911Y-131403122D01*
X170096241Y-131414748D01*
X169864970Y-131494143D01*
X169864965Y-131494145D01*
X169649912Y-131610526D01*
X169649908Y-131610529D01*
X169456952Y-131760713D01*
X169456942Y-131760722D01*
X169291332Y-131940621D01*
X169157588Y-132145333D01*
X169059363Y-132369265D01*
X168999336Y-132606304D01*
X168999334Y-132606316D01*
X168979143Y-132849994D01*
X168979143Y-132850005D01*
X168999334Y-133093683D01*
X168999336Y-133093695D01*
X169059363Y-133330734D01*
X169157588Y-133554666D01*
X169291332Y-133759378D01*
X169456942Y-133939277D01*
X169456946Y-133939281D01*
X169649912Y-134089473D01*
X169864967Y-134205855D01*
X169864970Y-134205856D01*
X170096241Y-134285251D01*
X170096243Y-134285251D01*
X170096245Y-134285252D01*
X170337437Y-134325500D01*
X170337438Y-134325500D01*
X170581962Y-134325500D01*
X170581963Y-134325500D01*
X170823155Y-134285252D01*
X171054433Y-134205855D01*
X171269488Y-134089473D01*
X171462454Y-133939281D01*
X171628068Y-133759377D01*
X171761811Y-133554667D01*
X171860036Y-133330736D01*
X171920064Y-133093692D01*
X171938230Y-132874461D01*
X171940257Y-132850005D01*
X182078443Y-132850005D01*
X182098634Y-133093683D01*
X182098636Y-133093695D01*
X182158663Y-133330734D01*
X182256888Y-133554666D01*
X182390632Y-133759378D01*
X182556242Y-133939277D01*
X182556246Y-133939281D01*
X182749212Y-134089473D01*
X182964267Y-134205855D01*
X182964270Y-134205856D01*
X183195541Y-134285251D01*
X183195543Y-134285251D01*
X183195545Y-134285252D01*
X183436737Y-134325500D01*
X183436738Y-134325500D01*
X183681262Y-134325500D01*
X183681263Y-134325500D01*
X183922455Y-134285252D01*
X184153733Y-134205855D01*
X184368788Y-134089473D01*
X184561754Y-133939281D01*
X184727368Y-133759377D01*
X184861111Y-133554667D01*
X184959336Y-133330736D01*
X185019364Y-133093692D01*
X185037530Y-132874461D01*
X185039557Y-132850005D01*
X185039557Y-132849994D01*
X185019365Y-132606316D01*
X185019363Y-132606304D01*
X185016444Y-132594778D01*
X184959336Y-132369264D01*
X184861111Y-132145333D01*
X184838404Y-132110577D01*
X184727367Y-131940621D01*
X184561757Y-131760722D01*
X184561747Y-131760713D01*
X184368791Y-131610529D01*
X184368787Y-131610526D01*
X184153734Y-131494145D01*
X184153729Y-131494143D01*
X183922458Y-131414748D01*
X183741561Y-131384562D01*
X183681263Y-131374500D01*
X183436737Y-131374500D01*
X183388498Y-131382549D01*
X183195541Y-131414748D01*
X182964270Y-131494143D01*
X182964265Y-131494145D01*
X182749212Y-131610526D01*
X182749208Y-131610529D01*
X182556252Y-131760713D01*
X182556242Y-131760722D01*
X182390632Y-131940621D01*
X182256888Y-132145333D01*
X182158663Y-132369265D01*
X182098636Y-132606304D01*
X182098634Y-132606316D01*
X182078443Y-132849994D01*
X182078443Y-132850005D01*
X171940257Y-132850005D01*
X171940257Y-132849994D01*
X171920065Y-132606316D01*
X171920063Y-132606304D01*
X171917144Y-132594778D01*
X171860036Y-132369264D01*
X171761811Y-132145333D01*
X171739104Y-132110577D01*
X171628067Y-131940621D01*
X171462457Y-131760722D01*
X171462447Y-131760713D01*
X171269491Y-131610529D01*
X171269487Y-131610526D01*
X171054434Y-131494145D01*
X171054429Y-131494143D01*
X170823158Y-131414748D01*
X170754089Y-131403222D01*
X170691204Y-131372770D01*
X170654765Y-131313155D01*
X170650500Y-131280913D01*
X170650500Y-128700001D01*
X171054473Y-128700001D01*
X171073357Y-128964027D01*
X171073358Y-128964034D01*
X171129621Y-129222673D01*
X171222126Y-129470690D01*
X171222128Y-129470694D01*
X171348980Y-129703005D01*
X171348985Y-129703013D01*
X171507606Y-129914907D01*
X171507622Y-129914925D01*
X171694774Y-130102077D01*
X171694792Y-130102093D01*
X171906686Y-130260714D01*
X171906694Y-130260719D01*
X172139005Y-130387571D01*
X172139009Y-130387573D01*
X172139011Y-130387574D01*
X172387022Y-130480077D01*
X172387025Y-130480077D01*
X172387026Y-130480078D01*
X172582252Y-130522546D01*
X172645674Y-130536343D01*
X172889360Y-130553772D01*
X172909699Y-130555227D01*
X172909700Y-130555227D01*
X172909701Y-130555227D01*
X172928585Y-130553876D01*
X173173726Y-130536343D01*
X173432378Y-130480077D01*
X173680389Y-130387574D01*
X173912711Y-130260716D01*
X174124615Y-130102087D01*
X174311787Y-129914915D01*
X174470416Y-129703011D01*
X174597274Y-129470689D01*
X174689777Y-129222678D01*
X174746043Y-128964026D01*
X174763861Y-128714907D01*
X174764927Y-128700001D01*
X174764927Y-128699998D01*
X174761818Y-128656531D01*
X174746043Y-128435974D01*
X174689777Y-128177322D01*
X174597274Y-127929311D01*
X174470416Y-127696989D01*
X174470414Y-127696986D01*
X174322954Y-127500001D01*
X179253773Y-127500001D01*
X179272657Y-127764027D01*
X179272658Y-127764034D01*
X179328921Y-128022673D01*
X179421426Y-128270690D01*
X179421428Y-128270694D01*
X179548280Y-128503005D01*
X179548285Y-128503013D01*
X179706906Y-128714907D01*
X179706922Y-128714925D01*
X179894074Y-128902077D01*
X179894092Y-128902093D01*
X180105986Y-129060714D01*
X180105994Y-129060719D01*
X180338305Y-129187571D01*
X180338309Y-129187573D01*
X180338311Y-129187574D01*
X180586322Y-129280077D01*
X180586325Y-129280077D01*
X180586326Y-129280078D01*
X180781552Y-129322546D01*
X180844974Y-129336343D01*
X181088660Y-129353772D01*
X181108999Y-129355227D01*
X181109000Y-129355227D01*
X181109001Y-129355227D01*
X181127885Y-129353876D01*
X181373026Y-129336343D01*
X181631678Y-129280077D01*
X181879689Y-129187574D01*
X182112011Y-129060716D01*
X182323915Y-128902087D01*
X182511087Y-128714915D01*
X182669716Y-128503011D01*
X182796574Y-128270689D01*
X182889077Y-128022678D01*
X182945343Y-127764026D01*
X182964227Y-127500000D01*
X182963159Y-127485074D01*
X182961525Y-127462230D01*
X182945343Y-127235974D01*
X182924310Y-127139285D01*
X182889078Y-126977326D01*
X182879292Y-126951089D01*
X182796574Y-126729311D01*
X182706258Y-126563911D01*
X182669719Y-126496994D01*
X182669714Y-126496986D01*
X182511093Y-126285092D01*
X182511077Y-126285074D01*
X182323925Y-126097922D01*
X182323907Y-126097906D01*
X182112013Y-125939285D01*
X182112005Y-125939280D01*
X181879694Y-125812428D01*
X181879690Y-125812426D01*
X181631673Y-125719921D01*
X181373034Y-125663658D01*
X181373027Y-125663657D01*
X181109001Y-125644773D01*
X181108999Y-125644773D01*
X180844972Y-125663657D01*
X180844965Y-125663658D01*
X180586326Y-125719921D01*
X180338309Y-125812426D01*
X180338305Y-125812428D01*
X180105994Y-125939280D01*
X180105986Y-125939285D01*
X179894092Y-126097906D01*
X179894074Y-126097922D01*
X179706922Y-126285074D01*
X179706906Y-126285092D01*
X179548285Y-126496986D01*
X179548280Y-126496994D01*
X179421428Y-126729305D01*
X179421426Y-126729309D01*
X179328921Y-126977326D01*
X179272658Y-127235965D01*
X179272657Y-127235972D01*
X179253773Y-127499998D01*
X179253773Y-127500001D01*
X174322954Y-127500001D01*
X174311793Y-127485092D01*
X174311777Y-127485074D01*
X174124625Y-127297922D01*
X174124607Y-127297906D01*
X173912713Y-127139285D01*
X173912705Y-127139280D01*
X173680394Y-127012428D01*
X173680390Y-127012426D01*
X173432373Y-126919921D01*
X173173734Y-126863658D01*
X173173727Y-126863657D01*
X172909701Y-126844773D01*
X172909699Y-126844773D01*
X172645672Y-126863657D01*
X172645665Y-126863658D01*
X172387026Y-126919921D01*
X172139009Y-127012426D01*
X172139005Y-127012428D01*
X171906694Y-127139280D01*
X171906686Y-127139285D01*
X171694792Y-127297906D01*
X171694774Y-127297922D01*
X171507622Y-127485074D01*
X171507606Y-127485092D01*
X171348985Y-127696986D01*
X171348980Y-127696994D01*
X171222128Y-127929305D01*
X171222126Y-127929309D01*
X171129621Y-128177326D01*
X171073358Y-128435965D01*
X171073357Y-128435972D01*
X171054473Y-128699998D01*
X171054473Y-128700001D01*
X170650500Y-128700001D01*
X170650500Y-126422108D01*
X170650499Y-126422105D01*
X170621498Y-126352090D01*
X170567910Y-126298502D01*
X170567909Y-126298501D01*
X163678938Y-119409531D01*
X163678937Y-119409529D01*
X163607910Y-119338502D01*
X163537894Y-119309500D01*
X163537893Y-119309500D01*
X141130269Y-119309500D01*
X141063230Y-119289815D01*
X141042588Y-119273181D01*
X132481088Y-110711681D01*
X132447603Y-110650358D01*
X132452587Y-110580666D01*
X132494459Y-110524733D01*
X132559923Y-110500316D01*
X132568769Y-110500000D01*
X143000000Y-110500000D01*
X143000000Y-105568769D01*
X143019685Y-105501730D01*
X143072489Y-105455975D01*
X143141647Y-105446031D01*
X143205203Y-105475056D01*
X143211680Y-105481087D01*
X151892090Y-114161498D01*
X151962107Y-114190500D01*
X152037892Y-114190500D01*
X173869731Y-114190500D01*
X173936770Y-114210185D01*
X173957412Y-114226819D01*
X186832181Y-127101588D01*
X186865666Y-127162911D01*
X186868500Y-127189269D01*
X186868500Y-131280863D01*
X186848815Y-131347902D01*
X186796011Y-131393657D01*
X186764911Y-131403172D01*
X186695541Y-131414748D01*
X186464270Y-131494143D01*
X186464265Y-131494145D01*
X186249212Y-131610526D01*
X186249208Y-131610529D01*
X186056252Y-131760713D01*
X186056242Y-131760722D01*
X185890632Y-131940621D01*
X185756888Y-132145333D01*
X185658663Y-132369265D01*
X185598636Y-132606304D01*
X185598634Y-132606316D01*
X185578443Y-132849994D01*
X185578443Y-132850005D01*
X185598634Y-133093683D01*
X185598636Y-133093695D01*
X185658663Y-133330734D01*
X185756888Y-133554666D01*
X185890632Y-133759378D01*
X186056242Y-133939277D01*
X186056246Y-133939281D01*
X186249212Y-134089473D01*
X186464267Y-134205855D01*
X186464270Y-134205856D01*
X186695541Y-134285251D01*
X186695543Y-134285251D01*
X186695545Y-134285252D01*
X186936737Y-134325500D01*
X186936738Y-134325500D01*
X187181262Y-134325500D01*
X187181263Y-134325500D01*
X187422455Y-134285252D01*
X187653733Y-134205855D01*
X187868788Y-134089473D01*
X188061754Y-133939281D01*
X188227368Y-133759377D01*
X188361111Y-133554667D01*
X188459336Y-133330736D01*
X188519364Y-133093692D01*
X188537530Y-132874461D01*
X188539557Y-132850005D01*
X188539557Y-132849994D01*
X188519365Y-132606316D01*
X188519363Y-132606304D01*
X188516444Y-132594778D01*
X188459336Y-132369264D01*
X188361111Y-132145333D01*
X188338404Y-132110577D01*
X188227367Y-131940621D01*
X188061757Y-131760722D01*
X188061747Y-131760713D01*
X187868791Y-131610529D01*
X187868787Y-131610526D01*
X187653734Y-131494145D01*
X187653729Y-131494143D01*
X187422458Y-131414748D01*
X187353089Y-131403172D01*
X187290204Y-131372720D01*
X187253765Y-131313105D01*
X187249500Y-131280863D01*
X187249500Y-128700001D01*
X187653773Y-128700001D01*
X187672657Y-128964027D01*
X187672658Y-128964034D01*
X187728921Y-129222673D01*
X187821426Y-129470690D01*
X187821428Y-129470694D01*
X187948280Y-129703005D01*
X187948285Y-129703013D01*
X188106906Y-129914907D01*
X188106922Y-129914925D01*
X188294074Y-130102077D01*
X188294092Y-130102093D01*
X188505986Y-130260714D01*
X188505994Y-130260719D01*
X188738305Y-130387571D01*
X188738309Y-130387573D01*
X188738311Y-130387574D01*
X188986322Y-130480077D01*
X188986325Y-130480077D01*
X188986326Y-130480078D01*
X189181552Y-130522546D01*
X189244974Y-130536343D01*
X189488660Y-130553772D01*
X189508999Y-130555227D01*
X189509000Y-130555227D01*
X189509001Y-130555227D01*
X189527885Y-130553876D01*
X189773026Y-130536343D01*
X190031678Y-130480077D01*
X190279689Y-130387574D01*
X190512011Y-130260716D01*
X190723915Y-130102087D01*
X190911087Y-129914915D01*
X191069716Y-129703011D01*
X191196574Y-129470689D01*
X191289077Y-129222678D01*
X191345343Y-128964026D01*
X191363161Y-128714907D01*
X191364227Y-128700001D01*
X191364227Y-128699998D01*
X191361118Y-128656531D01*
X191345343Y-128435974D01*
X191289077Y-128177322D01*
X191196574Y-127929311D01*
X191069716Y-127696989D01*
X191069714Y-127696986D01*
X190911093Y-127485092D01*
X190911077Y-127485074D01*
X190723925Y-127297922D01*
X190723907Y-127297906D01*
X190512013Y-127139285D01*
X190512005Y-127139280D01*
X190279694Y-127012428D01*
X190279690Y-127012426D01*
X190031673Y-126919921D01*
X189773034Y-126863658D01*
X189773027Y-126863657D01*
X189509001Y-126844773D01*
X189508999Y-126844773D01*
X189244972Y-126863657D01*
X189244965Y-126863658D01*
X188986326Y-126919921D01*
X188738309Y-127012426D01*
X188738305Y-127012428D01*
X188505994Y-127139280D01*
X188505986Y-127139285D01*
X188294092Y-127297906D01*
X188294074Y-127297922D01*
X188106922Y-127485074D01*
X188106906Y-127485092D01*
X187948285Y-127696986D01*
X187948280Y-127696994D01*
X187821428Y-127929305D01*
X187821426Y-127929309D01*
X187728921Y-128177326D01*
X187672658Y-128435965D01*
X187672657Y-128435972D01*
X187653773Y-128699998D01*
X187653773Y-128700001D01*
X187249500Y-128700001D01*
X187249500Y-127021108D01*
X187249499Y-127021105D01*
X187231365Y-126977326D01*
X187220498Y-126951090D01*
X187166910Y-126897502D01*
X187159845Y-126890437D01*
X187159838Y-126890431D01*
X174178939Y-113909532D01*
X174178937Y-113909529D01*
X174107910Y-113838502D01*
X174037894Y-113809500D01*
X174037893Y-113809500D01*
X152130270Y-113809500D01*
X152063231Y-113789815D01*
X152042589Y-113773181D01*
X143036319Y-104766911D01*
X143002834Y-104705588D01*
X143000000Y-104679230D01*
X143000000Y-88000000D01*
X122600000Y-88000000D01*
X122600000Y-89430360D01*
X122589989Y-89479171D01*
X122573499Y-89517679D01*
X122573495Y-89517690D01*
X122527403Y-89729575D01*
X122527402Y-89729581D01*
X122524500Y-89778296D01*
X122524500Y-89778308D01*
X122524500Y-90576000D01*
X122504815Y-90643039D01*
X122452011Y-90688794D01*
X122400500Y-90700000D01*
X120994000Y-90700000D01*
X120926961Y-90680315D01*
X120881206Y-90627511D01*
X120870000Y-90576000D01*
X120870000Y-88757838D01*
X121370000Y-88757838D01*
X121370000Y-90250000D01*
X122254999Y-90250000D01*
X122254999Y-89778338D01*
X122254998Y-89778335D01*
X122252098Y-89729636D01*
X122206025Y-89517839D01*
X122206023Y-89517832D01*
X122120699Y-89318583D01*
X122120693Y-89318573D01*
X121999207Y-89139075D01*
X121999199Y-89139066D01*
X121845933Y-88985800D01*
X121845924Y-88985792D01*
X121666426Y-88864306D01*
X121666412Y-88864298D01*
X121467173Y-88778979D01*
X121467161Y-88778975D01*
X121370000Y-88757838D01*
X120870000Y-88757838D01*
X120772838Y-88778975D01*
X120772826Y-88778979D01*
X120573587Y-88864298D01*
X120573573Y-88864306D01*
X120394075Y-88985792D01*
X120394066Y-88985800D01*
X120252181Y-89127686D01*
X120190858Y-89161171D01*
X120121166Y-89156187D01*
X120065233Y-89114315D01*
X120040816Y-89048851D01*
X120040500Y-89040005D01*
X120040500Y-63500001D01*
X121256673Y-63500001D01*
X121275557Y-63764027D01*
X121275558Y-63764034D01*
X121331821Y-64022673D01*
X121424326Y-64270690D01*
X121424328Y-64270694D01*
X121551180Y-64503005D01*
X121551185Y-64503013D01*
X121709806Y-64714907D01*
X121709822Y-64714925D01*
X121896974Y-64902077D01*
X121896992Y-64902093D01*
X122108886Y-65060714D01*
X122108894Y-65060719D01*
X122341205Y-65187571D01*
X122341209Y-65187573D01*
X122341211Y-65187574D01*
X122589222Y-65280077D01*
X122589225Y-65280077D01*
X122589226Y-65280078D01*
X122784452Y-65322546D01*
X122847874Y-65336343D01*
X123091560Y-65353772D01*
X123111899Y-65355227D01*
X123111900Y-65355227D01*
X123111901Y-65355227D01*
X123130785Y-65353876D01*
X123375926Y-65336343D01*
X123634578Y-65280077D01*
X123882589Y-65187574D01*
X124114911Y-65060716D01*
X124326815Y-64902087D01*
X124513987Y-64714915D01*
X124525151Y-64700001D01*
X129455973Y-64700001D01*
X129474857Y-64964027D01*
X129474858Y-64964034D01*
X129531121Y-65222673D01*
X129623626Y-65470690D01*
X129623628Y-65470694D01*
X129750480Y-65703005D01*
X129750485Y-65703013D01*
X129909106Y-65914907D01*
X129909122Y-65914925D01*
X130096274Y-66102077D01*
X130096292Y-66102093D01*
X130308186Y-66260714D01*
X130308194Y-66260719D01*
X130540505Y-66387571D01*
X130540509Y-66387573D01*
X130540511Y-66387574D01*
X130788522Y-66480077D01*
X130788525Y-66480077D01*
X130788526Y-66480078D01*
X130983752Y-66522546D01*
X131047174Y-66536343D01*
X131290860Y-66553772D01*
X131311199Y-66555227D01*
X131311200Y-66555227D01*
X131311201Y-66555227D01*
X131330085Y-66553876D01*
X131575226Y-66536343D01*
X131833878Y-66480077D01*
X132081889Y-66387574D01*
X132314211Y-66260716D01*
X132526115Y-66102087D01*
X132713287Y-65914915D01*
X132871916Y-65703011D01*
X132998774Y-65470689D01*
X133091277Y-65222678D01*
X133147543Y-64964026D01*
X133166427Y-64700000D01*
X133147543Y-64435974D01*
X133091277Y-64177322D01*
X132998774Y-63929311D01*
X132871916Y-63696989D01*
X132871914Y-63696986D01*
X132724454Y-63500001D01*
X137855973Y-63500001D01*
X137874857Y-63764027D01*
X137874858Y-63764034D01*
X137931121Y-64022673D01*
X138023626Y-64270690D01*
X138023628Y-64270694D01*
X138150480Y-64503005D01*
X138150485Y-64503013D01*
X138309106Y-64714907D01*
X138309122Y-64714925D01*
X138496274Y-64902077D01*
X138496292Y-64902093D01*
X138708186Y-65060714D01*
X138708194Y-65060719D01*
X138940505Y-65187571D01*
X138940509Y-65187573D01*
X138940511Y-65187574D01*
X139188522Y-65280077D01*
X139188525Y-65280077D01*
X139188526Y-65280078D01*
X139383752Y-65322546D01*
X139447174Y-65336343D01*
X139690860Y-65353772D01*
X139711199Y-65355227D01*
X139711200Y-65355227D01*
X139711201Y-65355227D01*
X139730085Y-65353876D01*
X139975226Y-65336343D01*
X140233878Y-65280077D01*
X140481889Y-65187574D01*
X140714211Y-65060716D01*
X140926115Y-64902087D01*
X141113287Y-64714915D01*
X141124451Y-64700001D01*
X146144773Y-64700001D01*
X146163657Y-64964027D01*
X146163658Y-64964034D01*
X146219921Y-65222673D01*
X146312426Y-65470690D01*
X146312428Y-65470694D01*
X146439280Y-65703005D01*
X146439285Y-65703013D01*
X146597906Y-65914907D01*
X146597922Y-65914925D01*
X146785074Y-66102077D01*
X146785092Y-66102093D01*
X146996986Y-66260714D01*
X146996994Y-66260719D01*
X147229305Y-66387571D01*
X147229309Y-66387573D01*
X147229311Y-66387574D01*
X147477322Y-66480077D01*
X147477325Y-66480077D01*
X147477326Y-66480078D01*
X147672552Y-66522546D01*
X147735974Y-66536343D01*
X147979660Y-66553772D01*
X147999999Y-66555227D01*
X148000000Y-66555227D01*
X148000001Y-66555227D01*
X148018885Y-66553876D01*
X148264026Y-66536343D01*
X148522678Y-66480077D01*
X148770689Y-66387574D01*
X149003011Y-66260716D01*
X149214915Y-66102087D01*
X149402087Y-65914915D01*
X149560716Y-65703011D01*
X149687574Y-65470689D01*
X149780077Y-65222678D01*
X149836343Y-64964026D01*
X149855227Y-64700000D01*
X149836343Y-64435974D01*
X149780077Y-64177322D01*
X149687574Y-63929311D01*
X149560716Y-63696989D01*
X149560714Y-63696986D01*
X149413254Y-63500001D01*
X154544773Y-63500001D01*
X154563657Y-63764027D01*
X154563658Y-63764034D01*
X154619921Y-64022673D01*
X154712426Y-64270690D01*
X154712428Y-64270694D01*
X154839280Y-64503005D01*
X154839285Y-64503013D01*
X154997906Y-64714907D01*
X154997922Y-64714925D01*
X155185074Y-64902077D01*
X155185092Y-64902093D01*
X155396986Y-65060714D01*
X155396994Y-65060719D01*
X155629305Y-65187571D01*
X155629309Y-65187573D01*
X155629311Y-65187574D01*
X155877322Y-65280077D01*
X155877325Y-65280077D01*
X155877326Y-65280078D01*
X156072552Y-65322546D01*
X156135974Y-65336343D01*
X156379660Y-65353772D01*
X156399999Y-65355227D01*
X156400000Y-65355227D01*
X156400001Y-65355227D01*
X156418885Y-65353876D01*
X156664026Y-65336343D01*
X156922678Y-65280077D01*
X157170689Y-65187574D01*
X157403011Y-65060716D01*
X157614915Y-64902087D01*
X157802087Y-64714915D01*
X157813251Y-64700001D01*
X162654473Y-64700001D01*
X162673357Y-64964027D01*
X162673358Y-64964034D01*
X162729621Y-65222673D01*
X162822126Y-65470690D01*
X162822128Y-65470694D01*
X162948980Y-65703005D01*
X162948985Y-65703013D01*
X163107606Y-65914907D01*
X163107622Y-65914925D01*
X163294774Y-66102077D01*
X163294792Y-66102093D01*
X163506686Y-66260714D01*
X163506694Y-66260719D01*
X163739005Y-66387571D01*
X163739009Y-66387573D01*
X163739011Y-66387574D01*
X163987022Y-66480077D01*
X163987025Y-66480077D01*
X163987026Y-66480078D01*
X164182252Y-66522546D01*
X164245674Y-66536343D01*
X164489360Y-66553772D01*
X164509699Y-66555227D01*
X164509700Y-66555227D01*
X164509701Y-66555227D01*
X164528585Y-66553876D01*
X164773726Y-66536343D01*
X165032378Y-66480077D01*
X165280389Y-66387574D01*
X165512711Y-66260716D01*
X165724615Y-66102087D01*
X165911787Y-65914915D01*
X166070416Y-65703011D01*
X166197274Y-65470689D01*
X166289777Y-65222678D01*
X166346043Y-64964026D01*
X166364927Y-64700000D01*
X166346043Y-64435974D01*
X166289777Y-64177322D01*
X166197274Y-63929311D01*
X166070416Y-63696989D01*
X166070414Y-63696986D01*
X165922954Y-63500001D01*
X171054473Y-63500001D01*
X171073357Y-63764027D01*
X171073358Y-63764034D01*
X171129621Y-64022673D01*
X171222126Y-64270690D01*
X171222128Y-64270694D01*
X171348980Y-64503005D01*
X171348985Y-64503013D01*
X171507606Y-64714907D01*
X171507622Y-64714925D01*
X171694774Y-64902077D01*
X171694792Y-64902093D01*
X171906686Y-65060714D01*
X171906694Y-65060719D01*
X172139005Y-65187571D01*
X172139009Y-65187573D01*
X172139011Y-65187574D01*
X172387022Y-65280077D01*
X172387025Y-65280077D01*
X172387026Y-65280078D01*
X172582252Y-65322546D01*
X172645674Y-65336343D01*
X172889360Y-65353772D01*
X172909699Y-65355227D01*
X172909700Y-65355227D01*
X172909701Y-65355227D01*
X172928585Y-65353876D01*
X173173726Y-65336343D01*
X173432378Y-65280077D01*
X173680389Y-65187574D01*
X173912711Y-65060716D01*
X174124615Y-64902087D01*
X174311787Y-64714915D01*
X174322951Y-64700001D01*
X179253773Y-64700001D01*
X179272657Y-64964027D01*
X179272658Y-64964034D01*
X179328921Y-65222673D01*
X179421426Y-65470690D01*
X179421428Y-65470694D01*
X179548280Y-65703005D01*
X179548285Y-65703013D01*
X179706906Y-65914907D01*
X179706922Y-65914925D01*
X179894074Y-66102077D01*
X179894092Y-66102093D01*
X180105986Y-66260714D01*
X180105994Y-66260719D01*
X180338305Y-66387571D01*
X180338309Y-66387573D01*
X180338311Y-66387574D01*
X180586322Y-66480077D01*
X180586325Y-66480077D01*
X180586326Y-66480078D01*
X180781552Y-66522546D01*
X180844974Y-66536343D01*
X181088660Y-66553772D01*
X181108999Y-66555227D01*
X181109000Y-66555227D01*
X181109001Y-66555227D01*
X181127885Y-66553876D01*
X181373026Y-66536343D01*
X181631678Y-66480077D01*
X181879689Y-66387574D01*
X182112011Y-66260716D01*
X182323915Y-66102087D01*
X182511087Y-65914915D01*
X182669716Y-65703011D01*
X182796574Y-65470689D01*
X182889077Y-65222678D01*
X182945343Y-64964026D01*
X182964227Y-64700000D01*
X182945343Y-64435974D01*
X182889077Y-64177322D01*
X182796574Y-63929311D01*
X182669716Y-63696989D01*
X182669714Y-63696986D01*
X182522254Y-63500001D01*
X187653773Y-63500001D01*
X187672657Y-63764027D01*
X187672658Y-63764034D01*
X187728921Y-64022673D01*
X187821426Y-64270690D01*
X187821428Y-64270694D01*
X187948280Y-64503005D01*
X187948285Y-64503013D01*
X188106906Y-64714907D01*
X188106922Y-64714925D01*
X188294074Y-64902077D01*
X188294092Y-64902093D01*
X188505986Y-65060714D01*
X188505994Y-65060719D01*
X188738305Y-65187571D01*
X188738309Y-65187573D01*
X188738311Y-65187574D01*
X188986322Y-65280077D01*
X188986325Y-65280077D01*
X188986326Y-65280078D01*
X189181552Y-65322546D01*
X189244974Y-65336343D01*
X189488660Y-65353772D01*
X189508999Y-65355227D01*
X189509000Y-65355227D01*
X189509001Y-65355227D01*
X189527885Y-65353876D01*
X189773026Y-65336343D01*
X190031678Y-65280077D01*
X190279689Y-65187574D01*
X190512011Y-65060716D01*
X190723915Y-64902087D01*
X190911087Y-64714915D01*
X191069716Y-64503011D01*
X191196574Y-64270689D01*
X191289077Y-64022678D01*
X191345343Y-63764026D01*
X191364227Y-63500000D01*
X191363159Y-63485074D01*
X191361525Y-63462230D01*
X191345343Y-63235974D01*
X191324310Y-63139285D01*
X191289078Y-62977326D01*
X191267667Y-62919921D01*
X191196574Y-62729311D01*
X191069716Y-62496989D01*
X191069714Y-62496986D01*
X190911093Y-62285092D01*
X190911077Y-62285074D01*
X190723925Y-62097922D01*
X190723907Y-62097906D01*
X190512013Y-61939285D01*
X190512005Y-61939280D01*
X190279694Y-61812428D01*
X190279690Y-61812426D01*
X190031673Y-61719921D01*
X189773034Y-61663658D01*
X189773027Y-61663657D01*
X189509001Y-61644773D01*
X189508999Y-61644773D01*
X189244972Y-61663657D01*
X189244965Y-61663658D01*
X188986326Y-61719921D01*
X188738309Y-61812426D01*
X188738305Y-61812428D01*
X188505994Y-61939280D01*
X188505986Y-61939285D01*
X188294092Y-62097906D01*
X188294074Y-62097922D01*
X188106922Y-62285074D01*
X188106906Y-62285092D01*
X187948285Y-62496986D01*
X187948280Y-62496994D01*
X187821428Y-62729305D01*
X187821426Y-62729309D01*
X187728921Y-62977326D01*
X187672658Y-63235965D01*
X187672657Y-63235972D01*
X187653773Y-63499998D01*
X187653773Y-63500001D01*
X182522254Y-63500001D01*
X182511093Y-63485092D01*
X182511077Y-63485074D01*
X182323925Y-63297922D01*
X182323907Y-63297906D01*
X182112013Y-63139285D01*
X182112005Y-63139280D01*
X181879694Y-63012428D01*
X181879690Y-63012426D01*
X181631673Y-62919921D01*
X181373034Y-62863658D01*
X181373027Y-62863657D01*
X181109001Y-62844773D01*
X181108999Y-62844773D01*
X180844972Y-62863657D01*
X180844965Y-62863658D01*
X180586326Y-62919921D01*
X180338309Y-63012426D01*
X180338305Y-63012428D01*
X180105994Y-63139280D01*
X180105986Y-63139285D01*
X179894092Y-63297906D01*
X179894074Y-63297922D01*
X179706922Y-63485074D01*
X179706906Y-63485092D01*
X179548285Y-63696986D01*
X179548280Y-63696994D01*
X179421428Y-63929305D01*
X179421426Y-63929309D01*
X179328921Y-64177326D01*
X179272658Y-64435965D01*
X179272657Y-64435972D01*
X179253773Y-64699998D01*
X179253773Y-64700001D01*
X174322951Y-64700001D01*
X174470416Y-64503011D01*
X174597274Y-64270689D01*
X174689777Y-64022678D01*
X174746043Y-63764026D01*
X174764927Y-63500000D01*
X174763859Y-63485074D01*
X174762225Y-63462230D01*
X174746043Y-63235974D01*
X174725010Y-63139285D01*
X174689778Y-62977326D01*
X174668367Y-62919921D01*
X174597274Y-62729311D01*
X174470416Y-62496989D01*
X174470414Y-62496986D01*
X174311793Y-62285092D01*
X174311777Y-62285074D01*
X174124625Y-62097922D01*
X174124607Y-62097906D01*
X173912713Y-61939285D01*
X173912705Y-61939280D01*
X173680394Y-61812428D01*
X173680390Y-61812426D01*
X173432373Y-61719921D01*
X173173734Y-61663658D01*
X173173727Y-61663657D01*
X172909701Y-61644773D01*
X172909699Y-61644773D01*
X172645672Y-61663657D01*
X172645665Y-61663658D01*
X172387026Y-61719921D01*
X172139009Y-61812426D01*
X172139005Y-61812428D01*
X171906694Y-61939280D01*
X171906686Y-61939285D01*
X171694792Y-62097906D01*
X171694774Y-62097922D01*
X171507622Y-62285074D01*
X171507606Y-62285092D01*
X171348985Y-62496986D01*
X171348980Y-62496994D01*
X171222128Y-62729305D01*
X171222126Y-62729309D01*
X171129621Y-62977326D01*
X171073358Y-63235965D01*
X171073357Y-63235972D01*
X171054473Y-63499998D01*
X171054473Y-63500001D01*
X165922954Y-63500001D01*
X165911793Y-63485092D01*
X165911777Y-63485074D01*
X165724625Y-63297922D01*
X165724607Y-63297906D01*
X165512713Y-63139285D01*
X165512705Y-63139280D01*
X165280394Y-63012428D01*
X165280390Y-63012426D01*
X165032373Y-62919921D01*
X164773734Y-62863658D01*
X164773727Y-62863657D01*
X164509701Y-62844773D01*
X164509699Y-62844773D01*
X164245672Y-62863657D01*
X164245665Y-62863658D01*
X163987026Y-62919921D01*
X163739009Y-63012426D01*
X163739005Y-63012428D01*
X163506694Y-63139280D01*
X163506686Y-63139285D01*
X163294792Y-63297906D01*
X163294774Y-63297922D01*
X163107622Y-63485074D01*
X163107606Y-63485092D01*
X162948985Y-63696986D01*
X162948980Y-63696994D01*
X162822128Y-63929305D01*
X162822126Y-63929309D01*
X162729621Y-64177326D01*
X162673358Y-64435965D01*
X162673357Y-64435972D01*
X162654473Y-64699998D01*
X162654473Y-64700001D01*
X157813251Y-64700001D01*
X157960716Y-64503011D01*
X158087574Y-64270689D01*
X158180077Y-64022678D01*
X158236343Y-63764026D01*
X158255227Y-63500000D01*
X158254159Y-63485074D01*
X158252525Y-63462230D01*
X158236343Y-63235974D01*
X158215310Y-63139285D01*
X158180078Y-62977326D01*
X158158667Y-62919921D01*
X158087574Y-62729311D01*
X157960716Y-62496989D01*
X157960714Y-62496986D01*
X157802093Y-62285092D01*
X157802077Y-62285074D01*
X157614925Y-62097922D01*
X157614907Y-62097906D01*
X157403013Y-61939285D01*
X157403005Y-61939280D01*
X157170694Y-61812428D01*
X157170690Y-61812426D01*
X156922673Y-61719921D01*
X156664034Y-61663658D01*
X156664027Y-61663657D01*
X156400001Y-61644773D01*
X156399999Y-61644773D01*
X156135972Y-61663657D01*
X156135965Y-61663658D01*
X155877326Y-61719921D01*
X155629309Y-61812426D01*
X155629305Y-61812428D01*
X155396994Y-61939280D01*
X155396986Y-61939285D01*
X155185092Y-62097906D01*
X155185074Y-62097922D01*
X154997922Y-62285074D01*
X154997906Y-62285092D01*
X154839285Y-62496986D01*
X154839280Y-62496994D01*
X154712428Y-62729305D01*
X154712426Y-62729309D01*
X154619921Y-62977326D01*
X154563658Y-63235965D01*
X154563657Y-63235972D01*
X154544773Y-63499998D01*
X154544773Y-63500001D01*
X149413254Y-63500001D01*
X149402093Y-63485092D01*
X149402077Y-63485074D01*
X149214925Y-63297922D01*
X149214907Y-63297906D01*
X149003013Y-63139285D01*
X149003005Y-63139280D01*
X148770694Y-63012428D01*
X148770690Y-63012426D01*
X148522673Y-62919921D01*
X148264034Y-62863658D01*
X148264027Y-62863657D01*
X148000001Y-62844773D01*
X147999999Y-62844773D01*
X147735972Y-62863657D01*
X147735965Y-62863658D01*
X147477326Y-62919921D01*
X147229309Y-63012426D01*
X147229305Y-63012428D01*
X146996994Y-63139280D01*
X146996986Y-63139285D01*
X146785092Y-63297906D01*
X146785074Y-63297922D01*
X146597922Y-63485074D01*
X146597906Y-63485092D01*
X146439285Y-63696986D01*
X146439280Y-63696994D01*
X146312428Y-63929305D01*
X146312426Y-63929309D01*
X146219921Y-64177326D01*
X146163658Y-64435965D01*
X146163657Y-64435972D01*
X146144773Y-64699998D01*
X146144773Y-64700001D01*
X141124451Y-64700001D01*
X141271916Y-64503011D01*
X141398774Y-64270689D01*
X141491277Y-64022678D01*
X141547543Y-63764026D01*
X141566427Y-63500000D01*
X141565359Y-63485074D01*
X141563725Y-63462230D01*
X141547543Y-63235974D01*
X141526510Y-63139285D01*
X141491278Y-62977326D01*
X141469867Y-62919921D01*
X141398774Y-62729311D01*
X141271916Y-62496989D01*
X141271914Y-62496986D01*
X141113293Y-62285092D01*
X141113277Y-62285074D01*
X140926125Y-62097922D01*
X140926107Y-62097906D01*
X140714213Y-61939285D01*
X140714205Y-61939280D01*
X140481894Y-61812428D01*
X140481890Y-61812426D01*
X140233873Y-61719921D01*
X139975234Y-61663658D01*
X139975227Y-61663657D01*
X139711201Y-61644773D01*
X139711199Y-61644773D01*
X139447172Y-61663657D01*
X139447165Y-61663658D01*
X139188526Y-61719921D01*
X138940509Y-61812426D01*
X138940505Y-61812428D01*
X138708194Y-61939280D01*
X138708186Y-61939285D01*
X138496292Y-62097906D01*
X138496274Y-62097922D01*
X138309122Y-62285074D01*
X138309106Y-62285092D01*
X138150485Y-62496986D01*
X138150480Y-62496994D01*
X138023628Y-62729305D01*
X138023626Y-62729309D01*
X137931121Y-62977326D01*
X137874858Y-63235965D01*
X137874857Y-63235972D01*
X137855973Y-63499998D01*
X137855973Y-63500001D01*
X132724454Y-63500001D01*
X132713293Y-63485092D01*
X132713277Y-63485074D01*
X132526125Y-63297922D01*
X132526107Y-63297906D01*
X132314213Y-63139285D01*
X132314205Y-63139280D01*
X132081894Y-63012428D01*
X132081890Y-63012426D01*
X131833873Y-62919921D01*
X131575234Y-62863658D01*
X131575227Y-62863657D01*
X131311201Y-62844773D01*
X131311199Y-62844773D01*
X131047172Y-62863657D01*
X131047165Y-62863658D01*
X130788526Y-62919921D01*
X130540509Y-63012426D01*
X130540505Y-63012428D01*
X130308194Y-63139280D01*
X130308186Y-63139285D01*
X130096292Y-63297906D01*
X130096274Y-63297922D01*
X129909122Y-63485074D01*
X129909106Y-63485092D01*
X129750485Y-63696986D01*
X129750480Y-63696994D01*
X129623628Y-63929305D01*
X129623626Y-63929309D01*
X129531121Y-64177326D01*
X129474858Y-64435965D01*
X129474857Y-64435972D01*
X129455973Y-64699998D01*
X129455973Y-64700001D01*
X124525151Y-64700001D01*
X124672616Y-64503011D01*
X124799474Y-64270689D01*
X124891977Y-64022678D01*
X124948243Y-63764026D01*
X124967127Y-63500000D01*
X124966059Y-63485074D01*
X124964425Y-63462230D01*
X124948243Y-63235974D01*
X124927210Y-63139285D01*
X124891978Y-62977326D01*
X124870567Y-62919921D01*
X124799474Y-62729311D01*
X124672616Y-62496989D01*
X124672614Y-62496986D01*
X124513993Y-62285092D01*
X124513977Y-62285074D01*
X124326825Y-62097922D01*
X124326807Y-62097906D01*
X124114913Y-61939285D01*
X124114905Y-61939280D01*
X123882594Y-61812428D01*
X123882590Y-61812426D01*
X123634573Y-61719921D01*
X123375934Y-61663658D01*
X123375927Y-61663657D01*
X123111901Y-61644773D01*
X123111899Y-61644773D01*
X122847872Y-61663657D01*
X122847865Y-61663658D01*
X122589226Y-61719921D01*
X122341209Y-61812426D01*
X122341205Y-61812428D01*
X122108894Y-61939280D01*
X122108886Y-61939285D01*
X121896992Y-62097906D01*
X121896974Y-62097922D01*
X121709822Y-62285074D01*
X121709806Y-62285092D01*
X121551185Y-62496986D01*
X121551180Y-62496994D01*
X121424328Y-62729305D01*
X121424326Y-62729309D01*
X121331821Y-62977326D01*
X121275558Y-63235965D01*
X121275557Y-63235972D01*
X121256673Y-63499998D01*
X121256673Y-63500001D01*
X120040500Y-63500001D01*
X120040500Y-59350005D01*
X132281145Y-59350005D01*
X132301330Y-59593605D01*
X132361338Y-59830573D01*
X132459530Y-60054429D01*
X132555826Y-60201819D01*
X133160158Y-59597487D01*
X133185178Y-59657890D01*
X133256312Y-59764351D01*
X133346849Y-59854888D01*
X133453310Y-59926022D01*
X133513711Y-59951041D01*
X132908958Y-60555794D01*
X132908958Y-60555796D01*
X132951678Y-60589046D01*
X132951684Y-60589050D01*
X133166668Y-60705394D01*
X133166676Y-60705397D01*
X133397864Y-60784765D01*
X133638979Y-60825000D01*
X133883421Y-60825000D01*
X134124535Y-60784765D01*
X134355723Y-60705397D01*
X134355731Y-60705394D01*
X134570714Y-60589051D01*
X134570714Y-60589050D01*
X134613440Y-60555795D01*
X134613440Y-60555794D01*
X134008688Y-59951041D01*
X134069090Y-59926022D01*
X134175551Y-59854888D01*
X134266088Y-59764351D01*
X134337222Y-59657890D01*
X134362241Y-59597488D01*
X134966572Y-60201819D01*
X135062867Y-60054431D01*
X135062872Y-60054423D01*
X135161061Y-59830573D01*
X135221069Y-59593605D01*
X135241255Y-59350005D01*
X148969945Y-59350005D01*
X148990130Y-59593605D01*
X149050138Y-59830573D01*
X149148330Y-60054429D01*
X149244626Y-60201819D01*
X149848958Y-59597487D01*
X149873978Y-59657890D01*
X149945112Y-59764351D01*
X150035649Y-59854888D01*
X150142110Y-59926022D01*
X150202511Y-59951041D01*
X149597758Y-60555794D01*
X149597758Y-60555796D01*
X149640478Y-60589046D01*
X149640484Y-60589050D01*
X149855468Y-60705394D01*
X149855476Y-60705397D01*
X150086664Y-60784765D01*
X150327779Y-60825000D01*
X150572221Y-60825000D01*
X150813335Y-60784765D01*
X151044523Y-60705397D01*
X151044531Y-60705394D01*
X151259514Y-60589051D01*
X151259514Y-60589050D01*
X151302240Y-60555795D01*
X151302240Y-60555794D01*
X150697488Y-59951041D01*
X150757890Y-59926022D01*
X150864351Y-59854888D01*
X150954888Y-59764351D01*
X151026022Y-59657890D01*
X151051041Y-59597488D01*
X151655372Y-60201819D01*
X151751667Y-60054431D01*
X151751672Y-60054423D01*
X151849861Y-59830573D01*
X151909869Y-59593605D01*
X151930055Y-59350005D01*
X165479645Y-59350005D01*
X165499830Y-59593605D01*
X165559838Y-59830573D01*
X165658030Y-60054429D01*
X165754326Y-60201819D01*
X166358658Y-59597487D01*
X166383678Y-59657890D01*
X166454812Y-59764351D01*
X166545349Y-59854888D01*
X166651810Y-59926022D01*
X166712211Y-59951041D01*
X166107458Y-60555794D01*
X166107458Y-60555796D01*
X166150178Y-60589046D01*
X166150184Y-60589050D01*
X166365168Y-60705394D01*
X166365176Y-60705397D01*
X166596364Y-60784765D01*
X166837479Y-60825000D01*
X167081921Y-60825000D01*
X167323035Y-60784765D01*
X167554223Y-60705397D01*
X167554231Y-60705394D01*
X167769214Y-60589051D01*
X167769214Y-60589050D01*
X167811940Y-60555795D01*
X167811940Y-60555794D01*
X167207188Y-59951041D01*
X167267590Y-59926022D01*
X167374051Y-59854888D01*
X167464588Y-59764351D01*
X167535722Y-59657890D01*
X167560741Y-59597488D01*
X168165072Y-60201819D01*
X168261367Y-60054431D01*
X168261372Y-60054423D01*
X168359561Y-59830573D01*
X168419569Y-59593605D01*
X168439755Y-59350005D01*
X182078945Y-59350005D01*
X182099130Y-59593605D01*
X182159138Y-59830573D01*
X182257330Y-60054429D01*
X182353626Y-60201819D01*
X182957958Y-59597487D01*
X182982978Y-59657890D01*
X183054112Y-59764351D01*
X183144649Y-59854888D01*
X183251110Y-59926022D01*
X183311511Y-59951041D01*
X182706758Y-60555794D01*
X182706758Y-60555796D01*
X182749478Y-60589046D01*
X182749484Y-60589050D01*
X182964468Y-60705394D01*
X182964476Y-60705397D01*
X183195664Y-60784765D01*
X183436779Y-60825000D01*
X183681221Y-60825000D01*
X183922335Y-60784765D01*
X184153523Y-60705397D01*
X184153531Y-60705394D01*
X184368514Y-60589051D01*
X184368514Y-60589050D01*
X184411240Y-60555795D01*
X184411240Y-60555794D01*
X183806488Y-59951041D01*
X183866890Y-59926022D01*
X183973351Y-59854888D01*
X184063888Y-59764351D01*
X184135022Y-59657890D01*
X184160041Y-59597488D01*
X184764372Y-60201819D01*
X184860667Y-60054431D01*
X184860672Y-60054423D01*
X184958861Y-59830573D01*
X185018869Y-59593605D01*
X185039055Y-59350005D01*
X185039055Y-59349994D01*
X185018869Y-59106394D01*
X184958861Y-58869426D01*
X184860669Y-58645570D01*
X184764372Y-58498179D01*
X184160041Y-59102510D01*
X184135022Y-59042110D01*
X184063888Y-58935649D01*
X183973351Y-58845112D01*
X183866890Y-58773978D01*
X183806487Y-58748958D01*
X184411240Y-58144204D01*
X184411240Y-58144203D01*
X184368514Y-58110949D01*
X184153531Y-57994605D01*
X184153523Y-57994602D01*
X183922335Y-57915234D01*
X183681221Y-57875000D01*
X183436779Y-57875000D01*
X183195664Y-57915234D01*
X182964476Y-57994602D01*
X182964468Y-57994605D01*
X182749481Y-58110951D01*
X182706758Y-58144202D01*
X182706757Y-58144204D01*
X183311511Y-58748958D01*
X183251110Y-58773978D01*
X183144649Y-58845112D01*
X183054112Y-58935649D01*
X182982978Y-59042110D01*
X182957958Y-59102511D01*
X182353626Y-58498179D01*
X182257328Y-58645575D01*
X182159138Y-58869426D01*
X182099130Y-59106394D01*
X182078945Y-59349994D01*
X182078945Y-59350005D01*
X168439755Y-59350005D01*
X168439755Y-59349994D01*
X168419569Y-59106394D01*
X168359561Y-58869426D01*
X168261369Y-58645570D01*
X168165072Y-58498179D01*
X167560741Y-59102510D01*
X167535722Y-59042110D01*
X167464588Y-58935649D01*
X167374051Y-58845112D01*
X167267590Y-58773978D01*
X167207187Y-58748958D01*
X167811940Y-58144204D01*
X167811940Y-58144203D01*
X167769214Y-58110949D01*
X167554231Y-57994605D01*
X167554223Y-57994602D01*
X167323035Y-57915234D01*
X167081921Y-57875000D01*
X166837479Y-57875000D01*
X166596364Y-57915234D01*
X166365176Y-57994602D01*
X166365168Y-57994605D01*
X166150181Y-58110951D01*
X166107458Y-58144202D01*
X166107457Y-58144204D01*
X166712211Y-58748958D01*
X166651810Y-58773978D01*
X166545349Y-58845112D01*
X166454812Y-58935649D01*
X166383678Y-59042110D01*
X166358658Y-59102511D01*
X165754326Y-58498179D01*
X165658028Y-58645575D01*
X165559838Y-58869426D01*
X165499830Y-59106394D01*
X165479645Y-59349994D01*
X165479645Y-59350005D01*
X151930055Y-59350005D01*
X151930055Y-59349994D01*
X151909869Y-59106394D01*
X151849861Y-58869426D01*
X151751669Y-58645570D01*
X151655372Y-58498179D01*
X151051041Y-59102510D01*
X151026022Y-59042110D01*
X150954888Y-58935649D01*
X150864351Y-58845112D01*
X150757890Y-58773978D01*
X150697487Y-58748958D01*
X151302240Y-58144204D01*
X151302240Y-58144203D01*
X151259514Y-58110949D01*
X151044531Y-57994605D01*
X151044523Y-57994602D01*
X150813335Y-57915234D01*
X150572221Y-57875000D01*
X150327779Y-57875000D01*
X150086664Y-57915234D01*
X149855476Y-57994602D01*
X149855468Y-57994605D01*
X149640481Y-58110951D01*
X149597758Y-58144202D01*
X149597757Y-58144204D01*
X150202511Y-58748958D01*
X150142110Y-58773978D01*
X150035649Y-58845112D01*
X149945112Y-58935649D01*
X149873978Y-59042110D01*
X149848958Y-59102511D01*
X149244626Y-58498179D01*
X149148328Y-58645575D01*
X149050138Y-58869426D01*
X148990130Y-59106394D01*
X148969945Y-59349994D01*
X148969945Y-59350005D01*
X135241255Y-59350005D01*
X135241255Y-59349994D01*
X135221069Y-59106394D01*
X135161061Y-58869426D01*
X135062869Y-58645570D01*
X134966572Y-58498179D01*
X134362241Y-59102510D01*
X134337222Y-59042110D01*
X134266088Y-58935649D01*
X134175551Y-58845112D01*
X134069090Y-58773978D01*
X134008687Y-58748958D01*
X134613440Y-58144204D01*
X134613440Y-58144203D01*
X134570714Y-58110949D01*
X134355731Y-57994605D01*
X134355723Y-57994602D01*
X134124535Y-57915234D01*
X133883421Y-57875000D01*
X133638979Y-57875000D01*
X133397864Y-57915234D01*
X133166676Y-57994602D01*
X133166668Y-57994605D01*
X132951681Y-58110951D01*
X132908958Y-58144202D01*
X132908957Y-58144204D01*
X133513711Y-58748958D01*
X133453310Y-58773978D01*
X133346849Y-58845112D01*
X133256312Y-58935649D01*
X133185178Y-59042110D01*
X133160158Y-59102511D01*
X132555826Y-58498179D01*
X132459528Y-58645575D01*
X132361338Y-58869426D01*
X132301330Y-59106394D01*
X132281145Y-59349994D01*
X132281145Y-59350005D01*
X120040500Y-59350005D01*
X120040500Y-52000001D01*
X121040204Y-52000001D01*
X121058953Y-52214310D01*
X121058955Y-52214321D01*
X121114632Y-52422112D01*
X121114634Y-52422116D01*
X121114635Y-52422120D01*
X121205555Y-52617098D01*
X121205557Y-52617102D01*
X121328951Y-52793327D01*
X121481072Y-52945448D01*
X121657297Y-53068842D01*
X121657299Y-53068843D01*
X121657302Y-53068845D01*
X121852280Y-53159765D01*
X122060084Y-53215446D01*
X122213166Y-53228838D01*
X122274398Y-53234196D01*
X122274400Y-53234196D01*
X122274402Y-53234196D01*
X122328099Y-53229498D01*
X122488716Y-53215446D01*
X122696520Y-53159765D01*
X122891498Y-53068845D01*
X123067726Y-52945449D01*
X123219849Y-52793326D01*
X123231372Y-52776870D01*
X131644200Y-52776870D01*
X131644201Y-52776876D01*
X131650608Y-52836483D01*
X131700902Y-52971328D01*
X131700906Y-52971335D01*
X131787152Y-53086544D01*
X131787155Y-53086547D01*
X131902364Y-53172793D01*
X131902371Y-53172797D01*
X132037217Y-53223091D01*
X132037216Y-53223091D01*
X132044144Y-53223835D01*
X132096827Y-53229500D01*
X133650572Y-53229499D01*
X133710183Y-53223091D01*
X133845031Y-53172796D01*
X133960246Y-53086546D01*
X134046496Y-52971331D01*
X134096791Y-52836483D01*
X134103200Y-52776873D01*
X134103200Y-52000001D01*
X137639504Y-52000001D01*
X137658253Y-52214310D01*
X137658255Y-52214321D01*
X137713932Y-52422112D01*
X137713934Y-52422116D01*
X137713935Y-52422120D01*
X137804855Y-52617098D01*
X137804857Y-52617102D01*
X137928251Y-52793327D01*
X138080372Y-52945448D01*
X138256597Y-53068842D01*
X138256599Y-53068843D01*
X138256602Y-53068845D01*
X138451580Y-53159765D01*
X138659384Y-53215446D01*
X138812466Y-53228838D01*
X138873698Y-53234196D01*
X138873700Y-53234196D01*
X138873702Y-53234196D01*
X138927399Y-53229498D01*
X139088016Y-53215446D01*
X139295820Y-53159765D01*
X139490798Y-53068845D01*
X139667026Y-52945449D01*
X139819149Y-52793326D01*
X139830672Y-52776870D01*
X148333000Y-52776870D01*
X148333001Y-52776876D01*
X148339408Y-52836483D01*
X148389702Y-52971328D01*
X148389706Y-52971335D01*
X148475952Y-53086544D01*
X148475955Y-53086547D01*
X148591164Y-53172793D01*
X148591171Y-53172797D01*
X148726017Y-53223091D01*
X148726016Y-53223091D01*
X148732944Y-53223835D01*
X148785627Y-53229500D01*
X150339372Y-53229499D01*
X150398983Y-53223091D01*
X150533831Y-53172796D01*
X150649046Y-53086546D01*
X150735296Y-52971331D01*
X150785591Y-52836483D01*
X150792000Y-52776873D01*
X150792000Y-52000001D01*
X154328304Y-52000001D01*
X154347053Y-52214310D01*
X154347055Y-52214321D01*
X154402732Y-52422112D01*
X154402734Y-52422116D01*
X154402735Y-52422120D01*
X154493655Y-52617098D01*
X154493657Y-52617102D01*
X154617051Y-52793327D01*
X154769172Y-52945448D01*
X154945397Y-53068842D01*
X154945399Y-53068843D01*
X154945402Y-53068845D01*
X155140380Y-53159765D01*
X155348184Y-53215446D01*
X155501266Y-53228838D01*
X155562498Y-53234196D01*
X155562500Y-53234196D01*
X155562502Y-53234196D01*
X155616199Y-53229498D01*
X155776816Y-53215446D01*
X155984620Y-53159765D01*
X156179598Y-53068845D01*
X156355826Y-52945449D01*
X156507949Y-52793326D01*
X156519472Y-52776870D01*
X164842700Y-52776870D01*
X164842701Y-52776876D01*
X164849108Y-52836483D01*
X164899402Y-52971328D01*
X164899406Y-52971335D01*
X164985652Y-53086544D01*
X164985655Y-53086547D01*
X165100864Y-53172793D01*
X165100871Y-53172797D01*
X165235717Y-53223091D01*
X165235716Y-53223091D01*
X165242644Y-53223835D01*
X165295327Y-53229500D01*
X166849072Y-53229499D01*
X166908683Y-53223091D01*
X167043531Y-53172796D01*
X167158746Y-53086546D01*
X167244996Y-52971331D01*
X167295291Y-52836483D01*
X167301700Y-52776873D01*
X167301700Y-52000001D01*
X170838004Y-52000001D01*
X170856753Y-52214310D01*
X170856755Y-52214321D01*
X170912432Y-52422112D01*
X170912434Y-52422116D01*
X170912435Y-52422120D01*
X171003355Y-52617098D01*
X171003357Y-52617102D01*
X171126751Y-52793327D01*
X171278872Y-52945448D01*
X171455097Y-53068842D01*
X171455099Y-53068843D01*
X171455102Y-53068845D01*
X171650080Y-53159765D01*
X171857884Y-53215446D01*
X172010966Y-53228838D01*
X172072198Y-53234196D01*
X172072200Y-53234196D01*
X172072202Y-53234196D01*
X172125899Y-53229498D01*
X172286516Y-53215446D01*
X172494320Y-53159765D01*
X172689298Y-53068845D01*
X172865526Y-52945449D01*
X173017649Y-52793326D01*
X173029172Y-52776870D01*
X181442000Y-52776870D01*
X181442001Y-52776876D01*
X181448408Y-52836483D01*
X181498702Y-52971328D01*
X181498706Y-52971335D01*
X181584952Y-53086544D01*
X181584955Y-53086547D01*
X181700164Y-53172793D01*
X181700171Y-53172797D01*
X181835017Y-53223091D01*
X181835016Y-53223091D01*
X181841944Y-53223835D01*
X181894627Y-53229500D01*
X183448372Y-53229499D01*
X183507983Y-53223091D01*
X183642831Y-53172796D01*
X183758046Y-53086546D01*
X183844296Y-52971331D01*
X183894591Y-52836483D01*
X183901000Y-52776873D01*
X183901000Y-52000001D01*
X187437304Y-52000001D01*
X187456053Y-52214310D01*
X187456055Y-52214321D01*
X187511732Y-52422112D01*
X187511734Y-52422116D01*
X187511735Y-52422120D01*
X187602655Y-52617098D01*
X187602657Y-52617102D01*
X187726051Y-52793327D01*
X187878172Y-52945448D01*
X188054397Y-53068842D01*
X188054399Y-53068843D01*
X188054402Y-53068845D01*
X188249380Y-53159765D01*
X188457184Y-53215446D01*
X188610266Y-53228838D01*
X188671498Y-53234196D01*
X188671500Y-53234196D01*
X188671502Y-53234196D01*
X188725199Y-53229498D01*
X188885816Y-53215446D01*
X189093620Y-53159765D01*
X189288598Y-53068845D01*
X189464826Y-52945449D01*
X189616949Y-52793326D01*
X189740345Y-52617098D01*
X189831265Y-52422120D01*
X189886946Y-52214316D01*
X189905696Y-52000000D01*
X189886946Y-51785684D01*
X189831265Y-51577880D01*
X189740345Y-51382902D01*
X189740343Y-51382899D01*
X189740342Y-51382897D01*
X189616948Y-51206672D01*
X189464827Y-51054551D01*
X189288602Y-50931157D01*
X189288598Y-50931155D01*
X189250634Y-50913452D01*
X189093620Y-50840235D01*
X189093616Y-50840234D01*
X189093612Y-50840232D01*
X188885821Y-50784555D01*
X188885817Y-50784554D01*
X188885816Y-50784554D01*
X188885815Y-50784553D01*
X188885810Y-50784553D01*
X188671502Y-50765804D01*
X188671498Y-50765804D01*
X188457189Y-50784553D01*
X188457178Y-50784555D01*
X188249387Y-50840232D01*
X188249378Y-50840236D01*
X188054401Y-50931155D01*
X188054397Y-50931157D01*
X187878172Y-51054551D01*
X187726051Y-51206672D01*
X187602657Y-51382897D01*
X187602655Y-51382901D01*
X187511736Y-51577878D01*
X187511732Y-51577887D01*
X187456055Y-51785678D01*
X187456053Y-51785689D01*
X187437304Y-51999998D01*
X187437304Y-52000001D01*
X183901000Y-52000001D01*
X183900999Y-51223128D01*
X183894591Y-51163517D01*
X183853949Y-51054551D01*
X183844297Y-51028671D01*
X183844293Y-51028664D01*
X183758047Y-50913455D01*
X183758044Y-50913452D01*
X183642835Y-50827206D01*
X183642828Y-50827202D01*
X183507982Y-50776908D01*
X183507983Y-50776908D01*
X183448383Y-50770501D01*
X183448381Y-50770500D01*
X183448373Y-50770500D01*
X183448364Y-50770500D01*
X181894629Y-50770500D01*
X181894623Y-50770501D01*
X181835016Y-50776908D01*
X181700171Y-50827202D01*
X181700164Y-50827206D01*
X181584955Y-50913452D01*
X181584952Y-50913455D01*
X181498706Y-51028664D01*
X181498702Y-51028671D01*
X181448408Y-51163517D01*
X181443769Y-51206672D01*
X181442001Y-51223123D01*
X181442000Y-51223135D01*
X181442000Y-52776870D01*
X173029172Y-52776870D01*
X173141045Y-52617098D01*
X173231965Y-52422120D01*
X173287646Y-52214316D01*
X173306396Y-52000000D01*
X173287646Y-51785684D01*
X173231965Y-51577880D01*
X173141045Y-51382902D01*
X173141043Y-51382899D01*
X173141042Y-51382897D01*
X173017648Y-51206672D01*
X172865527Y-51054551D01*
X172689302Y-50931157D01*
X172689298Y-50931155D01*
X172651334Y-50913452D01*
X172494320Y-50840235D01*
X172494316Y-50840234D01*
X172494312Y-50840232D01*
X172286521Y-50784555D01*
X172286517Y-50784554D01*
X172286516Y-50784554D01*
X172286515Y-50784553D01*
X172286510Y-50784553D01*
X172072202Y-50765804D01*
X172072198Y-50765804D01*
X171857889Y-50784553D01*
X171857878Y-50784555D01*
X171650087Y-50840232D01*
X171650078Y-50840236D01*
X171455101Y-50931155D01*
X171455097Y-50931157D01*
X171278872Y-51054551D01*
X171126751Y-51206672D01*
X171003357Y-51382897D01*
X171003355Y-51382901D01*
X170912436Y-51577878D01*
X170912432Y-51577887D01*
X170856755Y-51785678D01*
X170856753Y-51785689D01*
X170838004Y-51999998D01*
X170838004Y-52000001D01*
X167301700Y-52000001D01*
X167301699Y-51223128D01*
X167295291Y-51163517D01*
X167254649Y-51054551D01*
X167244997Y-51028671D01*
X167244993Y-51028664D01*
X167158747Y-50913455D01*
X167158744Y-50913452D01*
X167043535Y-50827206D01*
X167043528Y-50827202D01*
X166908682Y-50776908D01*
X166908683Y-50776908D01*
X166849083Y-50770501D01*
X166849081Y-50770500D01*
X166849073Y-50770500D01*
X166849064Y-50770500D01*
X165295329Y-50770500D01*
X165295323Y-50770501D01*
X165235716Y-50776908D01*
X165100871Y-50827202D01*
X165100864Y-50827206D01*
X164985655Y-50913452D01*
X164985652Y-50913455D01*
X164899406Y-51028664D01*
X164899402Y-51028671D01*
X164849108Y-51163517D01*
X164844469Y-51206672D01*
X164842701Y-51223123D01*
X164842700Y-51223135D01*
X164842700Y-52776870D01*
X156519472Y-52776870D01*
X156631345Y-52617098D01*
X156722265Y-52422120D01*
X156777946Y-52214316D01*
X156796696Y-52000000D01*
X156777946Y-51785684D01*
X156722265Y-51577880D01*
X156631345Y-51382902D01*
X156631343Y-51382899D01*
X156631342Y-51382897D01*
X156507948Y-51206672D01*
X156355827Y-51054551D01*
X156179602Y-50931157D01*
X156179598Y-50931155D01*
X156141634Y-50913452D01*
X155984620Y-50840235D01*
X155984616Y-50840234D01*
X155984612Y-50840232D01*
X155776821Y-50784555D01*
X155776817Y-50784554D01*
X155776816Y-50784554D01*
X155776815Y-50784553D01*
X155776810Y-50784553D01*
X155562502Y-50765804D01*
X155562498Y-50765804D01*
X155348189Y-50784553D01*
X155348178Y-50784555D01*
X155140387Y-50840232D01*
X155140378Y-50840236D01*
X154945401Y-50931155D01*
X154945397Y-50931157D01*
X154769172Y-51054551D01*
X154617051Y-51206672D01*
X154493657Y-51382897D01*
X154493655Y-51382901D01*
X154402736Y-51577878D01*
X154402732Y-51577887D01*
X154347055Y-51785678D01*
X154347053Y-51785689D01*
X154328304Y-51999998D01*
X154328304Y-52000001D01*
X150792000Y-52000001D01*
X150791999Y-51223128D01*
X150785591Y-51163517D01*
X150744949Y-51054551D01*
X150735297Y-51028671D01*
X150735293Y-51028664D01*
X150649047Y-50913455D01*
X150649044Y-50913452D01*
X150533835Y-50827206D01*
X150533828Y-50827202D01*
X150398982Y-50776908D01*
X150398983Y-50776908D01*
X150339383Y-50770501D01*
X150339381Y-50770500D01*
X150339373Y-50770500D01*
X150339364Y-50770500D01*
X148785629Y-50770500D01*
X148785623Y-50770501D01*
X148726016Y-50776908D01*
X148591171Y-50827202D01*
X148591164Y-50827206D01*
X148475955Y-50913452D01*
X148475952Y-50913455D01*
X148389706Y-51028664D01*
X148389702Y-51028671D01*
X148339408Y-51163517D01*
X148334769Y-51206672D01*
X148333001Y-51223123D01*
X148333000Y-51223135D01*
X148333000Y-52776870D01*
X139830672Y-52776870D01*
X139942545Y-52617098D01*
X140033465Y-52422120D01*
X140089146Y-52214316D01*
X140107896Y-52000000D01*
X140089146Y-51785684D01*
X140033465Y-51577880D01*
X139942545Y-51382902D01*
X139942543Y-51382899D01*
X139942542Y-51382897D01*
X139819148Y-51206672D01*
X139667027Y-51054551D01*
X139490802Y-50931157D01*
X139490798Y-50931155D01*
X139452834Y-50913452D01*
X139295820Y-50840235D01*
X139295816Y-50840234D01*
X139295812Y-50840232D01*
X139088021Y-50784555D01*
X139088017Y-50784554D01*
X139088016Y-50784554D01*
X139088015Y-50784553D01*
X139088010Y-50784553D01*
X138873702Y-50765804D01*
X138873698Y-50765804D01*
X138659389Y-50784553D01*
X138659378Y-50784555D01*
X138451587Y-50840232D01*
X138451578Y-50840236D01*
X138256601Y-50931155D01*
X138256597Y-50931157D01*
X138080372Y-51054551D01*
X137928251Y-51206672D01*
X137804857Y-51382897D01*
X137804855Y-51382901D01*
X137713936Y-51577878D01*
X137713932Y-51577887D01*
X137658255Y-51785678D01*
X137658253Y-51785689D01*
X137639504Y-51999998D01*
X137639504Y-52000001D01*
X134103200Y-52000001D01*
X134103199Y-51223128D01*
X134096791Y-51163517D01*
X134056149Y-51054551D01*
X134046497Y-51028671D01*
X134046493Y-51028664D01*
X133960247Y-50913455D01*
X133960244Y-50913452D01*
X133845035Y-50827206D01*
X133845028Y-50827202D01*
X133710182Y-50776908D01*
X133710183Y-50776908D01*
X133650583Y-50770501D01*
X133650581Y-50770500D01*
X133650573Y-50770500D01*
X133650564Y-50770500D01*
X132096829Y-50770500D01*
X132096823Y-50770501D01*
X132037216Y-50776908D01*
X131902371Y-50827202D01*
X131902364Y-50827206D01*
X131787155Y-50913452D01*
X131787152Y-50913455D01*
X131700906Y-51028664D01*
X131700902Y-51028671D01*
X131650608Y-51163517D01*
X131645969Y-51206672D01*
X131644201Y-51223123D01*
X131644200Y-51223135D01*
X131644200Y-52776870D01*
X123231372Y-52776870D01*
X123343245Y-52617098D01*
X123434165Y-52422120D01*
X123489846Y-52214316D01*
X123508596Y-52000000D01*
X123489846Y-51785684D01*
X123434165Y-51577880D01*
X123343245Y-51382902D01*
X123343243Y-51382899D01*
X123343242Y-51382897D01*
X123219848Y-51206672D01*
X123067727Y-51054551D01*
X122891502Y-50931157D01*
X122891498Y-50931155D01*
X122853534Y-50913452D01*
X122696520Y-50840235D01*
X122696516Y-50840234D01*
X122696512Y-50840232D01*
X122488721Y-50784555D01*
X122488717Y-50784554D01*
X122488716Y-50784554D01*
X122488715Y-50784553D01*
X122488710Y-50784553D01*
X122274402Y-50765804D01*
X122274398Y-50765804D01*
X122060089Y-50784553D01*
X122060078Y-50784555D01*
X121852287Y-50840232D01*
X121852278Y-50840236D01*
X121657301Y-50931155D01*
X121657297Y-50931157D01*
X121481072Y-51054551D01*
X121328951Y-51206672D01*
X121205557Y-51382897D01*
X121205555Y-51382901D01*
X121114636Y-51577878D01*
X121114632Y-51577887D01*
X121058955Y-51785678D01*
X121058953Y-51785689D01*
X121040204Y-51999998D01*
X121040204Y-52000001D01*
X120040500Y-52000001D01*
X120040500Y-50537708D01*
X120040499Y-50537705D01*
X120011498Y-50467690D01*
X119957910Y-50414102D01*
X119950845Y-50407037D01*
X119950838Y-50407031D01*
X117341723Y-47797916D01*
X117308238Y-47736593D01*
X117313222Y-47666901D01*
X117327830Y-47639112D01*
X117343245Y-47617098D01*
X117434165Y-47422120D01*
X117489846Y-47214316D01*
X117508596Y-47000001D01*
X121040204Y-47000001D01*
X121058953Y-47214310D01*
X121058955Y-47214321D01*
X121114632Y-47422112D01*
X121114634Y-47422116D01*
X121114635Y-47422120D01*
X121205555Y-47617097D01*
X121205555Y-47617098D01*
X121205557Y-47617102D01*
X121328951Y-47793327D01*
X121481072Y-47945448D01*
X121657297Y-48068842D01*
X121657299Y-48068843D01*
X121657302Y-48068845D01*
X121852280Y-48159765D01*
X122060084Y-48215446D01*
X122213166Y-48228838D01*
X122274398Y-48234196D01*
X122274400Y-48234196D01*
X122274402Y-48234196D01*
X122327979Y-48229508D01*
X122488716Y-48215446D01*
X122696520Y-48159765D01*
X122891498Y-48068845D01*
X123067726Y-47945449D01*
X123219849Y-47793326D01*
X123343245Y-47617098D01*
X123434165Y-47422120D01*
X123489846Y-47214316D01*
X123508596Y-47000001D01*
X131639504Y-47000001D01*
X131658253Y-47214310D01*
X131658255Y-47214321D01*
X131713932Y-47422112D01*
X131713934Y-47422116D01*
X131713935Y-47422120D01*
X131804855Y-47617097D01*
X131804855Y-47617098D01*
X131804857Y-47617102D01*
X131928251Y-47793327D01*
X132080372Y-47945448D01*
X132256597Y-48068842D01*
X132256599Y-48068843D01*
X132256602Y-48068845D01*
X132451580Y-48159765D01*
X132659384Y-48215446D01*
X132812466Y-48228838D01*
X132873698Y-48234196D01*
X132873700Y-48234196D01*
X132873702Y-48234196D01*
X132927279Y-48229508D01*
X133088016Y-48215446D01*
X133295820Y-48159765D01*
X133490798Y-48068845D01*
X133667026Y-47945449D01*
X133819149Y-47793326D01*
X133942545Y-47617098D01*
X134033465Y-47422120D01*
X134089146Y-47214316D01*
X134107896Y-47000001D01*
X137639504Y-47000001D01*
X137658253Y-47214310D01*
X137658255Y-47214321D01*
X137713932Y-47422112D01*
X137713934Y-47422116D01*
X137713935Y-47422120D01*
X137804855Y-47617097D01*
X137804855Y-47617098D01*
X137804857Y-47617102D01*
X137928251Y-47793327D01*
X138080372Y-47945448D01*
X138256597Y-48068842D01*
X138256599Y-48068843D01*
X138256602Y-48068845D01*
X138451580Y-48159765D01*
X138659384Y-48215446D01*
X138812466Y-48228838D01*
X138873698Y-48234196D01*
X138873700Y-48234196D01*
X138873702Y-48234196D01*
X138927279Y-48229508D01*
X139088016Y-48215446D01*
X139295820Y-48159765D01*
X139490798Y-48068845D01*
X139667026Y-47945449D01*
X139819149Y-47793326D01*
X139942545Y-47617098D01*
X140033465Y-47422120D01*
X140089146Y-47214316D01*
X140107896Y-47000001D01*
X148328304Y-47000001D01*
X148347053Y-47214310D01*
X148347055Y-47214321D01*
X148402732Y-47422112D01*
X148402734Y-47422116D01*
X148402735Y-47422120D01*
X148493655Y-47617097D01*
X148493655Y-47617098D01*
X148493657Y-47617102D01*
X148617051Y-47793327D01*
X148769172Y-47945448D01*
X148945397Y-48068842D01*
X148945399Y-48068843D01*
X148945402Y-48068845D01*
X149140380Y-48159765D01*
X149348184Y-48215446D01*
X149501266Y-48228838D01*
X149562498Y-48234196D01*
X149562500Y-48234196D01*
X149562502Y-48234196D01*
X149616079Y-48229508D01*
X149776816Y-48215446D01*
X149984620Y-48159765D01*
X150179598Y-48068845D01*
X150355826Y-47945449D01*
X150507949Y-47793326D01*
X150631345Y-47617098D01*
X150722265Y-47422120D01*
X150777946Y-47214316D01*
X150796696Y-47000001D01*
X154328304Y-47000001D01*
X154347053Y-47214310D01*
X154347055Y-47214321D01*
X154402732Y-47422112D01*
X154402734Y-47422116D01*
X154402735Y-47422120D01*
X154493655Y-47617097D01*
X154493655Y-47617098D01*
X154493657Y-47617102D01*
X154617051Y-47793327D01*
X154769172Y-47945448D01*
X154945397Y-48068842D01*
X154945399Y-48068843D01*
X154945402Y-48068845D01*
X155140380Y-48159765D01*
X155348184Y-48215446D01*
X155501266Y-48228838D01*
X155562498Y-48234196D01*
X155562500Y-48234196D01*
X155562502Y-48234196D01*
X155616079Y-48229508D01*
X155776816Y-48215446D01*
X155984620Y-48159765D01*
X156179598Y-48068845D01*
X156355826Y-47945449D01*
X156507949Y-47793326D01*
X156631345Y-47617098D01*
X156722265Y-47422120D01*
X156777946Y-47214316D01*
X156796696Y-47000001D01*
X164838004Y-47000001D01*
X164856753Y-47214310D01*
X164856755Y-47214321D01*
X164912432Y-47422112D01*
X164912434Y-47422116D01*
X164912435Y-47422120D01*
X165003355Y-47617097D01*
X165003355Y-47617098D01*
X165003357Y-47617102D01*
X165126751Y-47793327D01*
X165278872Y-47945448D01*
X165455097Y-48068842D01*
X165455099Y-48068843D01*
X165455102Y-48068845D01*
X165650080Y-48159765D01*
X165857884Y-48215446D01*
X166010966Y-48228838D01*
X166072198Y-48234196D01*
X166072200Y-48234196D01*
X166072202Y-48234196D01*
X166125779Y-48229508D01*
X166286516Y-48215446D01*
X166494320Y-48159765D01*
X166689298Y-48068845D01*
X166865526Y-47945449D01*
X167017649Y-47793326D01*
X167141045Y-47617098D01*
X167231965Y-47422120D01*
X167287646Y-47214316D01*
X167306396Y-47000001D01*
X170838004Y-47000001D01*
X170856753Y-47214310D01*
X170856755Y-47214321D01*
X170912432Y-47422112D01*
X170912434Y-47422116D01*
X170912435Y-47422120D01*
X171003355Y-47617097D01*
X171003355Y-47617098D01*
X171003357Y-47617102D01*
X171126751Y-47793327D01*
X171278872Y-47945448D01*
X171455097Y-48068842D01*
X171455099Y-48068843D01*
X171455102Y-48068845D01*
X171650080Y-48159765D01*
X171857884Y-48215446D01*
X172010966Y-48228838D01*
X172072198Y-48234196D01*
X172072200Y-48234196D01*
X172072202Y-48234196D01*
X172125779Y-48229508D01*
X172286516Y-48215446D01*
X172494320Y-48159765D01*
X172689298Y-48068845D01*
X172865526Y-47945449D01*
X173017649Y-47793326D01*
X173141045Y-47617098D01*
X173231965Y-47422120D01*
X173287646Y-47214316D01*
X173306396Y-47000001D01*
X181437304Y-47000001D01*
X181456053Y-47214310D01*
X181456055Y-47214321D01*
X181511732Y-47422112D01*
X181511734Y-47422116D01*
X181511735Y-47422120D01*
X181602655Y-47617097D01*
X181602655Y-47617098D01*
X181602657Y-47617102D01*
X181726051Y-47793327D01*
X181878172Y-47945448D01*
X182054397Y-48068842D01*
X182054399Y-48068843D01*
X182054402Y-48068845D01*
X182249380Y-48159765D01*
X182457184Y-48215446D01*
X182610266Y-48228838D01*
X182671498Y-48234196D01*
X182671500Y-48234196D01*
X182671502Y-48234196D01*
X182725079Y-48229508D01*
X182885816Y-48215446D01*
X183093620Y-48159765D01*
X183288598Y-48068845D01*
X183464826Y-47945449D01*
X183616949Y-47793326D01*
X183740345Y-47617098D01*
X183831265Y-47422120D01*
X183886946Y-47214316D01*
X183905696Y-47000001D01*
X187437304Y-47000001D01*
X187456053Y-47214310D01*
X187456055Y-47214321D01*
X187511732Y-47422112D01*
X187511734Y-47422116D01*
X187511735Y-47422120D01*
X187602655Y-47617097D01*
X187602655Y-47617098D01*
X187602657Y-47617102D01*
X187726051Y-47793327D01*
X187878172Y-47945448D01*
X188054397Y-48068842D01*
X188054399Y-48068843D01*
X188054402Y-48068845D01*
X188249380Y-48159765D01*
X188457184Y-48215446D01*
X188610266Y-48228838D01*
X188671498Y-48234196D01*
X188671500Y-48234196D01*
X188671502Y-48234196D01*
X188725079Y-48229508D01*
X188885816Y-48215446D01*
X189093620Y-48159765D01*
X189288598Y-48068845D01*
X189464826Y-47945449D01*
X189616949Y-47793326D01*
X189740345Y-47617098D01*
X189831265Y-47422120D01*
X189886946Y-47214316D01*
X189905696Y-47000000D01*
X189886946Y-46785684D01*
X189831265Y-46577880D01*
X189740345Y-46382902D01*
X189740343Y-46382899D01*
X189740342Y-46382897D01*
X189616948Y-46206672D01*
X189464827Y-46054551D01*
X189288602Y-45931157D01*
X189288598Y-45931155D01*
X189093620Y-45840235D01*
X189093616Y-45840234D01*
X189093612Y-45840232D01*
X188885821Y-45784555D01*
X188885817Y-45784554D01*
X188885816Y-45784554D01*
X188885815Y-45784553D01*
X188885810Y-45784553D01*
X188671502Y-45765804D01*
X188671498Y-45765804D01*
X188457189Y-45784553D01*
X188457178Y-45784555D01*
X188249387Y-45840232D01*
X188249378Y-45840236D01*
X188054401Y-45931155D01*
X188054397Y-45931157D01*
X187878172Y-46054551D01*
X187726051Y-46206672D01*
X187602657Y-46382897D01*
X187602655Y-46382901D01*
X187511736Y-46577878D01*
X187511732Y-46577887D01*
X187456055Y-46785678D01*
X187456053Y-46785689D01*
X187437304Y-46999998D01*
X187437304Y-47000001D01*
X183905696Y-47000001D01*
X183905696Y-47000000D01*
X183886946Y-46785684D01*
X183831265Y-46577880D01*
X183740345Y-46382902D01*
X183740343Y-46382899D01*
X183740342Y-46382897D01*
X183616948Y-46206672D01*
X183464827Y-46054551D01*
X183288602Y-45931157D01*
X183288598Y-45931155D01*
X183093620Y-45840235D01*
X183093616Y-45840234D01*
X183093612Y-45840232D01*
X182885821Y-45784555D01*
X182885817Y-45784554D01*
X182885816Y-45784554D01*
X182885815Y-45784553D01*
X182885810Y-45784553D01*
X182671502Y-45765804D01*
X182671498Y-45765804D01*
X182457189Y-45784553D01*
X182457178Y-45784555D01*
X182249387Y-45840232D01*
X182249378Y-45840236D01*
X182054401Y-45931155D01*
X182054397Y-45931157D01*
X181878172Y-46054551D01*
X181726051Y-46206672D01*
X181602657Y-46382897D01*
X181602655Y-46382901D01*
X181511736Y-46577878D01*
X181511732Y-46577887D01*
X181456055Y-46785678D01*
X181456053Y-46785689D01*
X181437304Y-46999998D01*
X181437304Y-47000001D01*
X173306396Y-47000001D01*
X173306396Y-47000000D01*
X173287646Y-46785684D01*
X173231965Y-46577880D01*
X173141045Y-46382902D01*
X173141043Y-46382899D01*
X173141042Y-46382897D01*
X173017648Y-46206672D01*
X172865527Y-46054551D01*
X172689302Y-45931157D01*
X172689298Y-45931155D01*
X172494320Y-45840235D01*
X172494316Y-45840234D01*
X172494312Y-45840232D01*
X172286521Y-45784555D01*
X172286517Y-45784554D01*
X172286516Y-45784554D01*
X172286515Y-45784553D01*
X172286510Y-45784553D01*
X172072202Y-45765804D01*
X172072198Y-45765804D01*
X171857889Y-45784553D01*
X171857878Y-45784555D01*
X171650087Y-45840232D01*
X171650078Y-45840236D01*
X171455101Y-45931155D01*
X171455097Y-45931157D01*
X171278872Y-46054551D01*
X171126751Y-46206672D01*
X171003357Y-46382897D01*
X171003355Y-46382901D01*
X170912436Y-46577878D01*
X170912432Y-46577887D01*
X170856755Y-46785678D01*
X170856753Y-46785689D01*
X170838004Y-46999998D01*
X170838004Y-47000001D01*
X167306396Y-47000001D01*
X167306396Y-47000000D01*
X167287646Y-46785684D01*
X167231965Y-46577880D01*
X167141045Y-46382902D01*
X167141043Y-46382899D01*
X167141042Y-46382897D01*
X167017648Y-46206672D01*
X166865527Y-46054551D01*
X166689302Y-45931157D01*
X166689298Y-45931155D01*
X166494320Y-45840235D01*
X166494316Y-45840234D01*
X166494312Y-45840232D01*
X166286521Y-45784555D01*
X166286517Y-45784554D01*
X166286516Y-45784554D01*
X166286515Y-45784553D01*
X166286510Y-45784553D01*
X166072202Y-45765804D01*
X166072198Y-45765804D01*
X165857889Y-45784553D01*
X165857878Y-45784555D01*
X165650087Y-45840232D01*
X165650078Y-45840236D01*
X165455101Y-45931155D01*
X165455097Y-45931157D01*
X165278872Y-46054551D01*
X165126751Y-46206672D01*
X165003357Y-46382897D01*
X165003355Y-46382901D01*
X164912436Y-46577878D01*
X164912432Y-46577887D01*
X164856755Y-46785678D01*
X164856753Y-46785689D01*
X164838004Y-46999998D01*
X164838004Y-47000001D01*
X156796696Y-47000001D01*
X156796696Y-47000000D01*
X156777946Y-46785684D01*
X156722265Y-46577880D01*
X156631345Y-46382902D01*
X156631343Y-46382899D01*
X156631342Y-46382897D01*
X156507948Y-46206672D01*
X156355827Y-46054551D01*
X156179602Y-45931157D01*
X156179598Y-45931155D01*
X155984620Y-45840235D01*
X155984616Y-45840234D01*
X155984612Y-45840232D01*
X155776821Y-45784555D01*
X155776817Y-45784554D01*
X155776816Y-45784554D01*
X155776815Y-45784553D01*
X155776810Y-45784553D01*
X155562502Y-45765804D01*
X155562498Y-45765804D01*
X155348189Y-45784553D01*
X155348178Y-45784555D01*
X155140387Y-45840232D01*
X155140378Y-45840236D01*
X154945401Y-45931155D01*
X154945397Y-45931157D01*
X154769172Y-46054551D01*
X154617051Y-46206672D01*
X154493657Y-46382897D01*
X154493655Y-46382901D01*
X154402736Y-46577878D01*
X154402732Y-46577887D01*
X154347055Y-46785678D01*
X154347053Y-46785689D01*
X154328304Y-46999998D01*
X154328304Y-47000001D01*
X150796696Y-47000001D01*
X150796696Y-47000000D01*
X150777946Y-46785684D01*
X150722265Y-46577880D01*
X150631345Y-46382902D01*
X150631343Y-46382899D01*
X150631342Y-46382897D01*
X150507948Y-46206672D01*
X150355827Y-46054551D01*
X150179602Y-45931157D01*
X150179598Y-45931155D01*
X149984620Y-45840235D01*
X149984616Y-45840234D01*
X149984612Y-45840232D01*
X149776821Y-45784555D01*
X149776817Y-45784554D01*
X149776816Y-45784554D01*
X149776815Y-45784553D01*
X149776810Y-45784553D01*
X149562502Y-45765804D01*
X149562498Y-45765804D01*
X149348189Y-45784553D01*
X149348178Y-45784555D01*
X149140387Y-45840232D01*
X149140378Y-45840236D01*
X148945401Y-45931155D01*
X148945397Y-45931157D01*
X148769172Y-46054551D01*
X148617051Y-46206672D01*
X148493657Y-46382897D01*
X148493655Y-46382901D01*
X148402736Y-46577878D01*
X148402732Y-46577887D01*
X148347055Y-46785678D01*
X148347053Y-46785689D01*
X148328304Y-46999998D01*
X148328304Y-47000001D01*
X140107896Y-47000001D01*
X140107896Y-47000000D01*
X140089146Y-46785684D01*
X140033465Y-46577880D01*
X139942545Y-46382902D01*
X139942543Y-46382899D01*
X139942542Y-46382897D01*
X139819148Y-46206672D01*
X139667027Y-46054551D01*
X139490802Y-45931157D01*
X139490798Y-45931155D01*
X139295820Y-45840235D01*
X139295816Y-45840234D01*
X139295812Y-45840232D01*
X139088021Y-45784555D01*
X139088017Y-45784554D01*
X139088016Y-45784554D01*
X139088015Y-45784553D01*
X139088010Y-45784553D01*
X138873702Y-45765804D01*
X138873698Y-45765804D01*
X138659389Y-45784553D01*
X138659378Y-45784555D01*
X138451587Y-45840232D01*
X138451578Y-45840236D01*
X138256601Y-45931155D01*
X138256597Y-45931157D01*
X138080372Y-46054551D01*
X137928251Y-46206672D01*
X137804857Y-46382897D01*
X137804855Y-46382901D01*
X137713936Y-46577878D01*
X137713932Y-46577887D01*
X137658255Y-46785678D01*
X137658253Y-46785689D01*
X137639504Y-46999998D01*
X137639504Y-47000001D01*
X134107896Y-47000001D01*
X134107896Y-47000000D01*
X134089146Y-46785684D01*
X134033465Y-46577880D01*
X133942545Y-46382902D01*
X133942543Y-46382899D01*
X133942542Y-46382897D01*
X133819148Y-46206672D01*
X133667027Y-46054551D01*
X133490802Y-45931157D01*
X133490798Y-45931155D01*
X133295820Y-45840235D01*
X133295816Y-45840234D01*
X133295812Y-45840232D01*
X133088021Y-45784555D01*
X133088017Y-45784554D01*
X133088016Y-45784554D01*
X133088015Y-45784553D01*
X133088010Y-45784553D01*
X132873702Y-45765804D01*
X132873698Y-45765804D01*
X132659389Y-45784553D01*
X132659378Y-45784555D01*
X132451587Y-45840232D01*
X132451578Y-45840236D01*
X132256601Y-45931155D01*
X132256597Y-45931157D01*
X132080372Y-46054551D01*
X131928251Y-46206672D01*
X131804857Y-46382897D01*
X131804855Y-46382901D01*
X131713936Y-46577878D01*
X131713932Y-46577887D01*
X131658255Y-46785678D01*
X131658253Y-46785689D01*
X131639504Y-46999998D01*
X131639504Y-47000001D01*
X123508596Y-47000001D01*
X123508596Y-47000000D01*
X123489846Y-46785684D01*
X123434165Y-46577880D01*
X123343245Y-46382902D01*
X123343243Y-46382899D01*
X123343242Y-46382897D01*
X123219848Y-46206672D01*
X123067727Y-46054551D01*
X122891502Y-45931157D01*
X122891498Y-45931155D01*
X122696520Y-45840235D01*
X122696516Y-45840234D01*
X122696512Y-45840232D01*
X122488721Y-45784555D01*
X122488717Y-45784554D01*
X122488716Y-45784554D01*
X122488715Y-45784553D01*
X122488710Y-45784553D01*
X122274402Y-45765804D01*
X122274398Y-45765804D01*
X122060089Y-45784553D01*
X122060078Y-45784555D01*
X121852287Y-45840232D01*
X121852278Y-45840236D01*
X121657301Y-45931155D01*
X121657297Y-45931157D01*
X121481072Y-46054551D01*
X121328951Y-46206672D01*
X121205557Y-46382897D01*
X121205555Y-46382901D01*
X121114636Y-46577878D01*
X121114632Y-46577887D01*
X121058955Y-46785678D01*
X121058953Y-46785689D01*
X121040204Y-46999998D01*
X121040204Y-47000001D01*
X117508596Y-47000001D01*
X117508596Y-47000000D01*
X117489846Y-46785684D01*
X117434165Y-46577880D01*
X117343245Y-46382902D01*
X117343243Y-46382899D01*
X117343242Y-46382897D01*
X117219848Y-46206672D01*
X117067727Y-46054551D01*
X116891502Y-45931157D01*
X116891498Y-45931155D01*
X116696520Y-45840235D01*
X116696516Y-45840234D01*
X116696512Y-45840232D01*
X116488721Y-45784555D01*
X116488717Y-45784554D01*
X116488716Y-45784554D01*
X116488715Y-45784553D01*
X116488710Y-45784553D01*
X116274402Y-45765804D01*
X116274398Y-45765804D01*
X116060089Y-45784553D01*
X116060078Y-45784555D01*
X115852287Y-45840232D01*
X115852278Y-45840236D01*
X115657301Y-45931155D01*
X115657297Y-45931157D01*
X115481072Y-46054551D01*
X115328951Y-46206672D01*
X115205557Y-46382897D01*
X115205555Y-46382901D01*
X115114636Y-46577878D01*
X115114632Y-46577887D01*
X115058955Y-46785678D01*
X115058953Y-46785689D01*
X115040204Y-46999998D01*
X115040204Y-47000001D01*
X115058953Y-47214310D01*
X115058955Y-47214321D01*
X115114632Y-47422112D01*
X115114634Y-47422116D01*
X115114635Y-47422120D01*
X115205555Y-47617097D01*
X115205555Y-47617098D01*
X115205557Y-47617102D01*
X115328951Y-47793327D01*
X115481072Y-47945448D01*
X115657297Y-48068842D01*
X115657299Y-48068843D01*
X115657302Y-48068845D01*
X115852280Y-48159765D01*
X116060084Y-48215446D01*
X116213166Y-48228838D01*
X116274398Y-48234196D01*
X116274400Y-48234196D01*
X116274402Y-48234196D01*
X116327979Y-48229508D01*
X116488716Y-48215446D01*
X116696520Y-48159765D01*
X116891498Y-48068845D01*
X116913509Y-48053432D01*
X116979712Y-48031102D01*
X117047480Y-48048109D01*
X117072316Y-48067323D01*
X119623181Y-50618188D01*
X119656666Y-50679511D01*
X119659500Y-50705869D01*
X119659500Y-89040005D01*
X119639815Y-89107044D01*
X119587011Y-89152799D01*
X119517853Y-89162743D01*
X119454297Y-89133718D01*
X119447819Y-89127686D01*
X119305933Y-88985800D01*
X119305924Y-88985792D01*
X119126426Y-88864306D01*
X119126412Y-88864298D01*
X118927173Y-88778979D01*
X118927161Y-88778975D01*
X118830000Y-88757838D01*
X118830000Y-90576000D01*
X118810315Y-90643039D01*
X118757511Y-90688794D01*
X118706000Y-90700000D01*
X117299500Y-90700000D01*
X117232461Y-90680315D01*
X117186706Y-90627511D01*
X117175500Y-90576000D01*
X117175500Y-90250000D01*
X117445000Y-90250000D01*
X118330000Y-90250000D01*
X118330000Y-88757838D01*
X118232838Y-88778975D01*
X118232826Y-88778979D01*
X118033587Y-88864298D01*
X118033573Y-88864306D01*
X117854075Y-88985792D01*
X117854066Y-88985800D01*
X117700800Y-89139066D01*
X117700792Y-89139075D01*
X117579306Y-89318573D01*
X117579300Y-89318583D01*
X117493976Y-89517832D01*
X117493974Y-89517839D01*
X117447900Y-89729635D01*
X117445000Y-89778336D01*
X117445000Y-90250000D01*
X117175500Y-90250000D01*
X117175500Y-89778308D01*
X117175500Y-89778296D01*
X117172598Y-89729581D01*
X117126536Y-89517839D01*
X117126504Y-89517690D01*
X117126502Y-89517686D01*
X117126502Y-89517683D01*
X117120787Y-89504338D01*
X117110011Y-89479171D01*
X117100000Y-89430360D01*
X117100000Y-88000000D01*
X108624500Y-88000000D01*
X108557461Y-87980315D01*
X108511706Y-87927511D01*
X108500500Y-87876000D01*
X108500500Y-64700001D01*
X112856673Y-64700001D01*
X112875557Y-64964027D01*
X112875558Y-64964034D01*
X112931821Y-65222673D01*
X113024326Y-65470690D01*
X113024328Y-65470694D01*
X113151180Y-65703005D01*
X113151185Y-65703013D01*
X113309806Y-65914907D01*
X113309822Y-65914925D01*
X113496974Y-66102077D01*
X113496992Y-66102093D01*
X113708886Y-66260714D01*
X113708894Y-66260719D01*
X113941205Y-66387571D01*
X113941209Y-66387573D01*
X113941211Y-66387574D01*
X114189222Y-66480077D01*
X114189225Y-66480077D01*
X114189226Y-66480078D01*
X114384452Y-66522546D01*
X114447874Y-66536343D01*
X114691560Y-66553772D01*
X114711899Y-66555227D01*
X114711900Y-66555227D01*
X114711901Y-66555227D01*
X114730785Y-66553876D01*
X114975926Y-66536343D01*
X115234578Y-66480077D01*
X115482589Y-66387574D01*
X115714911Y-66260716D01*
X115926815Y-66102087D01*
X116113987Y-65914915D01*
X116272616Y-65703011D01*
X116399474Y-65470689D01*
X116491977Y-65222678D01*
X116548243Y-64964026D01*
X116567127Y-64700000D01*
X116548243Y-64435974D01*
X116491977Y-64177322D01*
X116399474Y-63929311D01*
X116272616Y-63696989D01*
X116272614Y-63696986D01*
X116113993Y-63485092D01*
X116113977Y-63485074D01*
X115926825Y-63297922D01*
X115926807Y-63297906D01*
X115714913Y-63139285D01*
X115714905Y-63139280D01*
X115482594Y-63012428D01*
X115482590Y-63012426D01*
X115234573Y-62919921D01*
X114975934Y-62863658D01*
X114975927Y-62863657D01*
X114711901Y-62844773D01*
X114711899Y-62844773D01*
X114447872Y-62863657D01*
X114447865Y-62863658D01*
X114189226Y-62919921D01*
X113941209Y-63012426D01*
X113941205Y-63012428D01*
X113708894Y-63139280D01*
X113708886Y-63139285D01*
X113496992Y-63297906D01*
X113496974Y-63297922D01*
X113309822Y-63485074D01*
X113309806Y-63485092D01*
X113151185Y-63696986D01*
X113151180Y-63696994D01*
X113024328Y-63929305D01*
X113024326Y-63929309D01*
X112931821Y-64177326D01*
X112875558Y-64435965D01*
X112875557Y-64435972D01*
X112856673Y-64699998D01*
X112856673Y-64700001D01*
X108500500Y-64700001D01*
X108500500Y-59350005D01*
X115681845Y-59350005D01*
X115702030Y-59593605D01*
X115762038Y-59830573D01*
X115860230Y-60054429D01*
X115956526Y-60201819D01*
X116560858Y-59597487D01*
X116585878Y-59657890D01*
X116657012Y-59764351D01*
X116747549Y-59854888D01*
X116854010Y-59926022D01*
X116914411Y-59951041D01*
X116309658Y-60555794D01*
X116309658Y-60555796D01*
X116352378Y-60589046D01*
X116352384Y-60589050D01*
X116567368Y-60705394D01*
X116567376Y-60705397D01*
X116798564Y-60784765D01*
X117039679Y-60825000D01*
X117284121Y-60825000D01*
X117525235Y-60784765D01*
X117756423Y-60705397D01*
X117756431Y-60705394D01*
X117971414Y-60589051D01*
X117971414Y-60589050D01*
X118014140Y-60555795D01*
X118014140Y-60555794D01*
X117409388Y-59951041D01*
X117469790Y-59926022D01*
X117576251Y-59854888D01*
X117666788Y-59764351D01*
X117737922Y-59657890D01*
X117762941Y-59597488D01*
X118367272Y-60201819D01*
X118463567Y-60054431D01*
X118463572Y-60054423D01*
X118561761Y-59830573D01*
X118621769Y-59593605D01*
X118641955Y-59350005D01*
X118641955Y-59349994D01*
X118621769Y-59106394D01*
X118561761Y-58869426D01*
X118463569Y-58645570D01*
X118367272Y-58498179D01*
X117762941Y-59102510D01*
X117737922Y-59042110D01*
X117666788Y-58935649D01*
X117576251Y-58845112D01*
X117469790Y-58773978D01*
X117409387Y-58748958D01*
X118014140Y-58144204D01*
X118014140Y-58144203D01*
X117971414Y-58110949D01*
X117756431Y-57994605D01*
X117756423Y-57994602D01*
X117525235Y-57915234D01*
X117284121Y-57875000D01*
X117039679Y-57875000D01*
X116798564Y-57915234D01*
X116567376Y-57994602D01*
X116567368Y-57994605D01*
X116352381Y-58110951D01*
X116309658Y-58144202D01*
X116309657Y-58144204D01*
X116914411Y-58748958D01*
X116854010Y-58773978D01*
X116747549Y-58845112D01*
X116657012Y-58935649D01*
X116585878Y-59042110D01*
X116560858Y-59102511D01*
X115956526Y-58498179D01*
X115860228Y-58645575D01*
X115762038Y-58869426D01*
X115702030Y-59106394D01*
X115681845Y-59349994D01*
X115681845Y-59350005D01*
X108500500Y-59350005D01*
X108500500Y-52776870D01*
X115044900Y-52776870D01*
X115044901Y-52776876D01*
X115051308Y-52836483D01*
X115101602Y-52971328D01*
X115101606Y-52971335D01*
X115187852Y-53086544D01*
X115187855Y-53086547D01*
X115303064Y-53172793D01*
X115303071Y-53172797D01*
X115437917Y-53223091D01*
X115437916Y-53223091D01*
X115444844Y-53223835D01*
X115497527Y-53229500D01*
X117051272Y-53229499D01*
X117110883Y-53223091D01*
X117245731Y-53172796D01*
X117360946Y-53086546D01*
X117447196Y-52971331D01*
X117497491Y-52836483D01*
X117503900Y-52776873D01*
X117503899Y-51223128D01*
X117497491Y-51163517D01*
X117456849Y-51054551D01*
X117447197Y-51028671D01*
X117447193Y-51028664D01*
X117360947Y-50913455D01*
X117360944Y-50913452D01*
X117245735Y-50827206D01*
X117245728Y-50827202D01*
X117110882Y-50776908D01*
X117110883Y-50776908D01*
X117051283Y-50770501D01*
X117051281Y-50770500D01*
X117051273Y-50770500D01*
X117051264Y-50770500D01*
X115497529Y-50770500D01*
X115497523Y-50770501D01*
X115437916Y-50776908D01*
X115303071Y-50827202D01*
X115303064Y-50827206D01*
X115187855Y-50913452D01*
X115187852Y-50913455D01*
X115101606Y-51028664D01*
X115101602Y-51028671D01*
X115051308Y-51163517D01*
X115046669Y-51206672D01*
X115044901Y-51223123D01*
X115044900Y-51223135D01*
X115044900Y-52776870D01*
X108500500Y-52776870D01*
X108500500Y-43356797D01*
X108520185Y-43289758D01*
X108572989Y-43244003D01*
X108642147Y-43234059D01*
X108705703Y-43263084D01*
X108742431Y-43318479D01*
X108764125Y-43385247D01*
X108764127Y-43385252D01*
X108892704Y-43658491D01*
X108892707Y-43658497D01*
X109054516Y-43913469D01*
X109135311Y-44011133D01*
X110063708Y-43082736D01*
X110160967Y-43216602D01*
X110283398Y-43339033D01*
X110417262Y-43436290D01*
X109486564Y-44366987D01*
X109486565Y-44366989D01*
X109711461Y-44530385D01*
X109711479Y-44530397D01*
X109976109Y-44675878D01*
X109976117Y-44675882D01*
X110256889Y-44787047D01*
X110256892Y-44787048D01*
X110549399Y-44862150D01*
X110848995Y-44899999D01*
X110849007Y-44900000D01*
X111150993Y-44900000D01*
X111151004Y-44899999D01*
X111450600Y-44862150D01*
X111743107Y-44787048D01*
X111743110Y-44787047D01*
X112023882Y-44675882D01*
X112023890Y-44675878D01*
X112288520Y-44530397D01*
X112288530Y-44530390D01*
X112513433Y-44366987D01*
X112513434Y-44366987D01*
X111582737Y-43436290D01*
X111716602Y-43339033D01*
X111839033Y-43216602D01*
X111936290Y-43082737D01*
X112864687Y-44011134D01*
X112945486Y-43913464D01*
X113107292Y-43658497D01*
X113107295Y-43658491D01*
X113235872Y-43385252D01*
X113235874Y-43385247D01*
X113329194Y-43098040D01*
X113385783Y-42801390D01*
X113385784Y-42801383D01*
X113404745Y-42500005D01*
X113404745Y-42499994D01*
X113385784Y-42198616D01*
X113385783Y-42198609D01*
X113329194Y-41901959D01*
X113235874Y-41614752D01*
X113235872Y-41614747D01*
X113107295Y-41341508D01*
X113107292Y-41341502D01*
X112945483Y-41086530D01*
X112864686Y-40988864D01*
X111936289Y-41917261D01*
X111839033Y-41783398D01*
X111716602Y-41660967D01*
X111582736Y-41563709D01*
X112513434Y-40633011D01*
X112513433Y-40633009D01*
X112288538Y-40469614D01*
X112288520Y-40469602D01*
X112023890Y-40324121D01*
X112023882Y-40324117D01*
X111810899Y-40239792D01*
X111755813Y-40196811D01*
X111732710Y-40130872D01*
X111748923Y-40062910D01*
X111799306Y-40014502D01*
X111856546Y-40000500D01*
X193643454Y-40000500D01*
X193710493Y-40020185D01*
G37*
%TD.AperFunction*%
%TA.AperFunction,Conductor*%
G36*
X196364687Y-151511134D02*
G01*
X196445486Y-151413464D01*
X196607292Y-151158497D01*
X196607295Y-151158491D01*
X196735872Y-150885252D01*
X196735874Y-150885247D01*
X196757569Y-150818479D01*
X196797006Y-150760804D01*
X196861365Y-150733605D01*
X196930211Y-150745520D01*
X196981687Y-150792764D01*
X196999500Y-150856797D01*
X196999500Y-152375500D01*
X196979815Y-152442539D01*
X196927011Y-152488294D01*
X196875500Y-152499500D01*
X195356546Y-152499500D01*
X195289507Y-152479815D01*
X195243752Y-152427011D01*
X195233808Y-152357853D01*
X195262833Y-152294297D01*
X195310899Y-152260208D01*
X195523882Y-152175882D01*
X195523890Y-152175878D01*
X195788520Y-152030397D01*
X195788530Y-152030390D01*
X196013433Y-151866987D01*
X196013434Y-151866987D01*
X195082737Y-150936290D01*
X195216602Y-150839033D01*
X195339033Y-150716602D01*
X195436290Y-150582737D01*
X196364687Y-151511134D01*
G37*
%TD.AperFunction*%
%TA.AperFunction,Conductor*%
G36*
X110210493Y-40020185D02*
G01*
X110256248Y-40072989D01*
X110266192Y-40142147D01*
X110237167Y-40205703D01*
X110189101Y-40239792D01*
X109976117Y-40324117D01*
X109976109Y-40324121D01*
X109711476Y-40469604D01*
X109711471Y-40469607D01*
X109486565Y-40633010D01*
X109486564Y-40633011D01*
X110417262Y-41563709D01*
X110283398Y-41660967D01*
X110160967Y-41783398D01*
X110063709Y-41917262D01*
X109135311Y-40988864D01*
X109054520Y-41086525D01*
X109054518Y-41086528D01*
X108892707Y-41341502D01*
X108892704Y-41341508D01*
X108764127Y-41614747D01*
X108764125Y-41614752D01*
X108742431Y-41681520D01*
X108702993Y-41739196D01*
X108638635Y-41766394D01*
X108569788Y-41754479D01*
X108518313Y-41707235D01*
X108500500Y-41643202D01*
X108500500Y-40124500D01*
X108520185Y-40057461D01*
X108572989Y-40011706D01*
X108624500Y-40000500D01*
X110143454Y-40000500D01*
X110210493Y-40020185D01*
G37*
%TD.AperFunction*%
%TA.AperFunction,Conductor*%
G36*
X196942539Y-40020185D02*
G01*
X196988294Y-40072989D01*
X196999500Y-40124500D01*
X196999500Y-41643202D01*
X196979815Y-41710241D01*
X196927011Y-41755996D01*
X196857853Y-41765940D01*
X196794297Y-41736915D01*
X196757569Y-41681520D01*
X196735874Y-41614752D01*
X196735872Y-41614747D01*
X196607295Y-41341508D01*
X196607292Y-41341502D01*
X196445483Y-41086530D01*
X196364686Y-40988864D01*
X195436289Y-41917261D01*
X195339033Y-41783398D01*
X195216602Y-41660967D01*
X195082736Y-41563709D01*
X196013434Y-40633011D01*
X196013433Y-40633009D01*
X195788538Y-40469614D01*
X195788520Y-40469602D01*
X195523890Y-40324121D01*
X195523882Y-40324117D01*
X195310899Y-40239792D01*
X195255813Y-40196811D01*
X195232710Y-40130872D01*
X195248923Y-40062910D01*
X195299306Y-40014502D01*
X195356546Y-40000500D01*
X196875500Y-40000500D01*
X196942539Y-40020185D01*
G37*
%TD.AperFunction*%
%TD*%
M02*
