%TF.GenerationSoftware,KiCad,Pcbnew,8.0.1*%
%TF.CreationDate,2024-03-29T21:28:49-04:00*%
%TF.ProjectId,mandreko-deej,6d616e64-7265-46b6-9f2d-6465656a2e6b,rev?*%
%TF.SameCoordinates,Original*%
%TF.FileFunction,Copper,L1,Top*%
%TF.FilePolarity,Positive*%
%FSLAX46Y46*%
G04 Gerber Fmt 4.6, Leading zero omitted, Abs format (unit mm)*
G04 Created by KiCad (PCBNEW 8.0.1) date 2024-03-29 21:28:49*
%MOMM*%
%LPD*%
G01*
G04 APERTURE LIST*
G04 Aperture macros list*
%AMRoundRect*
0 Rectangle with rounded corners*
0 $1 Rounding radius*
0 $2 $3 $4 $5 $6 $7 $8 $9 X,Y pos of 4 corners*
0 Add a 4 corners polygon primitive as box body*
4,1,4,$2,$3,$4,$5,$6,$7,$8,$9,$2,$3,0*
0 Add four circle primitives for the rounded corners*
1,1,$1+$1,$2,$3*
1,1,$1+$1,$4,$5*
1,1,$1+$1,$6,$7*
1,1,$1+$1,$8,$9*
0 Add four rect primitives between the rounded corners*
20,1,$1+$1,$2,$3,$4,$5,0*
20,1,$1+$1,$4,$5,$6,$7,0*
20,1,$1+$1,$6,$7,$8,$9,0*
20,1,$1+$1,$8,$9,$2,$3,0*%
G04 Aperture macros list end*
%TA.AperFunction,SMDPad,CuDef*%
%ADD10RoundRect,0.225000X-0.225000X-0.250000X0.225000X-0.250000X0.225000X0.250000X-0.225000X0.250000X0*%
%TD*%
%TA.AperFunction,ComponentPad*%
%ADD11R,1.458000X1.458000*%
%TD*%
%TA.AperFunction,ComponentPad*%
%ADD12C,1.458000*%
%TD*%
%TA.AperFunction,ComponentPad*%
%ADD13C,3.800000*%
%TD*%
%TA.AperFunction,ComponentPad*%
%ADD14C,1.950000*%
%TD*%
%TA.AperFunction,ComponentPad*%
%ADD15C,2.700000*%
%TD*%
%TA.AperFunction,SMDPad,CuDef*%
%ADD16R,1.500000X0.900000*%
%TD*%
%TA.AperFunction,SMDPad,CuDef*%
%ADD17RoundRect,0.200000X-0.200000X-0.275000X0.200000X-0.275000X0.200000X0.275000X-0.200000X0.275000X0*%
%TD*%
%TA.AperFunction,ViaPad*%
%ADD18C,0.600000*%
%TD*%
%TA.AperFunction,Conductor*%
%ADD19C,0.200000*%
%TD*%
G04 APERTURE END LIST*
D10*
%TO.P,C1,2*%
%TO.N,5V*%
X119686900Y-149500000D03*
%TO.P,C1,1*%
%TO.N,GND*%
X118136900Y-149500000D03*
%TD*%
D11*
%TO.P,S2,1*%
%TO.N,Net-(R2-Pad1)*%
X132873700Y-52000000D03*
D12*
%TO.P,S2,1_*%
%TO.N,unconnected-(S2-Pad1_)*%
X138873700Y-52000000D03*
%TO.P,S2,2*%
%TO.N,5V*%
X132873700Y-47000000D03*
%TO.P,S2,2_*%
%TO.N,unconnected-(S2-Pad2_)*%
X138873700Y-47000000D03*
%TD*%
D13*
%TO.P,TopLeftMountingHole,1*%
%TO.N,GND*%
X111000000Y-42500000D03*
%TD*%
D14*
%TO.P,R2,1*%
%TO.N,Net-(R2-Pad1)*%
X133761200Y-132850000D03*
%TO.P,R2,2*%
%TO.N,A2*%
X137261200Y-132850000D03*
%TO.P,R2,3*%
%TO.N,GND*%
X133761200Y-59350000D03*
D15*
%TO.P,R2,S1*%
%TO.N,N/C*%
X131311200Y-127500000D03*
%TO.P,R2,S2*%
X139711200Y-128700000D03*
%TO.P,R2,S3*%
X131311200Y-64700000D03*
%TO.P,R2,S4*%
X139711200Y-63500000D03*
%TD*%
D11*
%TO.P,S3,1*%
%TO.N,Net-(R3-Pad1)*%
X149562500Y-52000000D03*
D12*
%TO.P,S3,1_*%
%TO.N,unconnected-(S3-Pad1_)*%
X155562500Y-52000000D03*
%TO.P,S3,2*%
%TO.N,5V*%
X149562500Y-47000000D03*
%TO.P,S3,2_*%
%TO.N,unconnected-(S3-Pad2_)*%
X155562500Y-47000000D03*
%TD*%
D13*
%TO.P,TopRightMountingHole,1*%
%TO.N,GND*%
X194500000Y-42500000D03*
%TD*%
D14*
%TO.P,R3,1*%
%TO.N,Net-(R3-Pad1)*%
X150450000Y-132850000D03*
%TO.P,R3,2*%
%TO.N,A1*%
X153950000Y-132850000D03*
%TO.P,R3,3*%
%TO.N,GND*%
X150450000Y-59350000D03*
D15*
%TO.P,R3,S1*%
%TO.N,N/C*%
X148000000Y-127500000D03*
%TO.P,R3,S2*%
X156400000Y-128700000D03*
%TO.P,R3,S3*%
X148000000Y-64700000D03*
%TO.P,R3,S4*%
X156400000Y-63500000D03*
%TD*%
D10*
%TO.P,C5,1*%
%TO.N,GND*%
X184534000Y-149500000D03*
%TO.P,C5,2*%
%TO.N,5V*%
X186084000Y-149500000D03*
%TD*%
D16*
%TO.P,D2,1,VDD*%
%TO.N,GND*%
X133061200Y-140350000D03*
%TO.P,D2,2,DOUT*%
%TO.N,Net-(D2-DOUT)*%
X133061200Y-143650000D03*
%TO.P,D2,3,VSS*%
%TO.N,5V*%
X137961200Y-143650000D03*
%TO.P,D2,4,DIN*%
%TO.N,Net-(D1-DOUT)*%
X137961200Y-140350000D03*
%TD*%
D17*
%TO.P,R6,1*%
%TO.N,A7*%
X126175000Y-136500000D03*
%TO.P,R6,2*%
%TO.N,Net-(D1-DIN)*%
X127825000Y-136500000D03*
%TD*%
D11*
%TO.P,S4,1*%
%TO.N,Net-(R4-Pad1)*%
X166072200Y-52000000D03*
D12*
%TO.P,S4,1_*%
%TO.N,unconnected-(S4-Pad1_)*%
X172072200Y-52000000D03*
%TO.P,S4,2*%
%TO.N,5V*%
X166072200Y-47000000D03*
%TO.P,S4,2_*%
%TO.N,unconnected-(S4-Pad2_)*%
X172072200Y-47000000D03*
%TD*%
D14*
%TO.P,R1,1*%
%TO.N,Net-(R1-Pad1)*%
X117161900Y-132850000D03*
%TO.P,R1,2*%
%TO.N,A3*%
X120661900Y-132850000D03*
%TO.P,R1,3*%
%TO.N,GND*%
X117161900Y-59350000D03*
D15*
%TO.P,R1,S1*%
%TO.N,N/C*%
X114711900Y-127500000D03*
%TO.P,R1,S2*%
X123111900Y-128700000D03*
%TO.P,R1,S3*%
X114711900Y-64700000D03*
%TO.P,R1,S4*%
X123111900Y-63500000D03*
%TD*%
D11*
%TO.P,S1,1*%
%TO.N,Net-(R1-Pad1)*%
X116274400Y-52000000D03*
D12*
%TO.P,S1,1_*%
%TO.N,unconnected-(S1-Pad1_)*%
X122274400Y-52000000D03*
%TO.P,S1,2*%
%TO.N,5V*%
X116274400Y-47000000D03*
%TO.P,S1,2_*%
%TO.N,unconnected-(S1-Pad2_)*%
X122274400Y-47000000D03*
%TD*%
D16*
%TO.P,D5,1,VDD*%
%TO.N,GND*%
X182859000Y-140350000D03*
%TO.P,D5,2,DOUT*%
%TO.N,unconnected-(D5-DOUT-Pad2)*%
X182859000Y-143650000D03*
%TO.P,D5,3,VSS*%
%TO.N,5V*%
X187759000Y-143650000D03*
%TO.P,D5,4,DIN*%
%TO.N,Net-(D4-DOUT)*%
X187759000Y-140350000D03*
%TD*%
D10*
%TO.P,C4,1*%
%TO.N,GND*%
X167934700Y-149500000D03*
%TO.P,C4,2*%
%TO.N,5V*%
X169484700Y-149500000D03*
%TD*%
D16*
%TO.P,D1,4,DIN*%
%TO.N,Net-(D1-DIN)*%
X121361900Y-140350000D03*
%TO.P,D1,3,VSS*%
%TO.N,5V*%
X121361900Y-143650000D03*
%TO.P,D1,2,DOUT*%
%TO.N,Net-(D1-DOUT)*%
X116461900Y-143650000D03*
%TO.P,D1,1,VDD*%
%TO.N,GND*%
X116461900Y-140350000D03*
%TD*%
%TO.P,D4,1,VDD*%
%TO.N,GND*%
X166259700Y-140350000D03*
%TO.P,D4,2,DOUT*%
%TO.N,Net-(D4-DOUT)*%
X166259700Y-143650000D03*
%TO.P,D4,3,VSS*%
%TO.N,5V*%
X171159700Y-143650000D03*
%TO.P,D4,4,DIN*%
%TO.N,Net-(D3-DOUT)*%
X171159700Y-140350000D03*
%TD*%
D13*
%TO.P,BottomRightMountingHole,1*%
%TO.N,GND*%
X194500000Y-150000000D03*
%TD*%
D16*
%TO.P,D3,1,VDD*%
%TO.N,GND*%
X149660500Y-140350000D03*
%TO.P,D3,2,DOUT*%
%TO.N,Net-(D3-DOUT)*%
X149660500Y-143650000D03*
%TO.P,D3,3,VSS*%
%TO.N,5V*%
X154560500Y-143650000D03*
%TO.P,D3,4,DIN*%
%TO.N,Net-(D2-DOUT)*%
X154560500Y-140350000D03*
%TD*%
D11*
%TO.P,S5,1*%
%TO.N,Net-(R5-Pad1)*%
X182671500Y-52000000D03*
D12*
%TO.P,S5,1_*%
%TO.N,unconnected-(S5-Pad1_)*%
X188671500Y-52000000D03*
%TO.P,S5,2*%
%TO.N,5V*%
X182671500Y-47000000D03*
%TO.P,S5,2_*%
%TO.N,unconnected-(S5-Pad2_)*%
X188671500Y-47000000D03*
%TD*%
D14*
%TO.P,R4,1*%
%TO.N,Net-(R4-Pad1)*%
X166959700Y-132850000D03*
%TO.P,R4,2*%
%TO.N,A0*%
X170459700Y-132850000D03*
%TO.P,R4,3*%
%TO.N,GND*%
X166959700Y-59350000D03*
D15*
%TO.P,R4,S1*%
%TO.N,N/C*%
X164509700Y-127500000D03*
%TO.P,R4,S2*%
X172909700Y-128700000D03*
%TO.P,R4,S3*%
X164509700Y-64700000D03*
%TO.P,R4,S4*%
X172909700Y-63500000D03*
%TD*%
D10*
%TO.P,C2,1*%
%TO.N,GND*%
X134736200Y-149500000D03*
%TO.P,C2,2*%
%TO.N,5V*%
X136286200Y-149500000D03*
%TD*%
D13*
%TO.P,BottomLeftMountingHole,1*%
%TO.N,GND*%
X111500000Y-150000000D03*
%TD*%
D14*
%TO.P,R5,1*%
%TO.N,Net-(R5-Pad1)*%
X183559000Y-132850000D03*
%TO.P,R5,2*%
%TO.N,A6*%
X187059000Y-132850000D03*
%TO.P,R5,3*%
%TO.N,GND*%
X183559000Y-59350000D03*
D15*
%TO.P,R5,S1*%
%TO.N,N/C*%
X181109000Y-127500000D03*
%TO.P,R5,S2*%
X189509000Y-128700000D03*
%TO.P,R5,S3*%
X181109000Y-64700000D03*
%TO.P,R5,S4*%
X189509000Y-63500000D03*
%TD*%
D10*
%TO.P,C3,1*%
%TO.N,GND*%
X151335500Y-149500000D03*
%TO.P,C3,2*%
%TO.N,5V*%
X152885500Y-149500000D03*
%TD*%
D18*
%TO.N,A7*%
X129304200Y-132834400D03*
%TO.N,5V*%
X118750000Y-145750000D03*
%TD*%
D19*
%TO.N,5V*%
X137961000Y-143650000D02*
X137961000Y-143825000D01*
X137961200Y-143650000D02*
X137961000Y-143650000D01*
X137961000Y-143825000D02*
X134286000Y-147500000D01*
X134286000Y-147500000D02*
X136286000Y-149500000D01*
X136286200Y-149500000D02*
X136286000Y-149500000D01*
X123500000Y-144000000D02*
X123150000Y-143650000D01*
X123500000Y-145000000D02*
X123500000Y-144000000D01*
X121813000Y-146687000D02*
X123500000Y-145000000D01*
X119687000Y-146687000D02*
X121813000Y-146687000D01*
X119687000Y-146687000D02*
X119687000Y-147113000D01*
X118750000Y-145750000D02*
X119687000Y-146687000D01*
%TO.N,Net-(R5-Pad1)*%
X182672000Y-52000000D02*
X182672000Y-53414200D01*
X181850000Y-132850000D02*
X183559000Y-132850000D01*
X178000000Y-129000000D02*
X181850000Y-132850000D01*
X178000000Y-59500000D02*
X178000000Y-129000000D01*
X182672000Y-54828500D02*
X178000000Y-59500000D01*
X182672000Y-53414200D02*
X182672000Y-54828500D01*
X182671500Y-53413700D02*
X182671500Y-52000000D01*
X182672000Y-53414200D02*
X182671500Y-53413700D01*
%TO.N,Net-(R4-Pad1)*%
X166959700Y-132850000D02*
X166960000Y-132850000D01*
X166072000Y-52000000D02*
X166072000Y-53713900D01*
X164850000Y-132850000D02*
X166959700Y-132850000D01*
X161000000Y-129000000D02*
X164850000Y-132850000D01*
X161000000Y-60500000D02*
X161000000Y-129000000D01*
X166072000Y-55427800D02*
X161000000Y-60500000D01*
X166072000Y-53713900D02*
X166072000Y-55427800D01*
X166072200Y-53713700D02*
X166072200Y-52000000D01*
X166072000Y-53713900D02*
X166072200Y-53713700D01*
%TO.N,Net-(R3-Pad1)*%
X149562000Y-52000000D02*
X149562000Y-53718700D01*
X148850000Y-132850000D02*
X150450000Y-132850000D01*
X145000000Y-129000000D02*
X148850000Y-132850000D01*
X145000000Y-60000000D02*
X145000000Y-129000000D01*
X149562000Y-55437500D02*
X145000000Y-60000000D01*
X149562000Y-53718700D02*
X149562000Y-55437500D01*
X149562500Y-53718200D02*
X149562500Y-52000000D01*
X149562000Y-53718700D02*
X149562500Y-53718200D01*
%TO.N,Net-(R2-Pad1)*%
X133761000Y-132850000D02*
X133761200Y-132850000D01*
X132874000Y-52000000D02*
X132874000Y-53813100D01*
X131850000Y-132850000D02*
X133761000Y-132850000D01*
X128000000Y-129000000D02*
X131850000Y-132850000D01*
X128000000Y-60500000D02*
X128000000Y-129000000D01*
X132874000Y-55626300D02*
X128000000Y-60500000D01*
X132874000Y-53813100D02*
X132874000Y-55626300D01*
X132873700Y-53812800D02*
X132873700Y-52000000D01*
X132874000Y-53813100D02*
X132873700Y-53812800D01*
%TO.N,Net-(R1-Pad1)*%
X117161900Y-132850000D02*
X117162000Y-132850000D01*
X116274000Y-52000000D02*
X116274000Y-53862800D01*
X115350000Y-132850000D02*
X117161900Y-132850000D01*
X111500000Y-129000000D02*
X115350000Y-132850000D01*
X111500000Y-60500000D02*
X111500000Y-129000000D01*
X116274000Y-55725600D02*
X111500000Y-60500000D01*
X116274000Y-53862800D02*
X116274000Y-55725600D01*
X116274400Y-53862400D02*
X116274400Y-52000000D01*
X116274000Y-53862800D02*
X116274400Y-53862400D01*
%TO.N,A7*%
X129304200Y-133370800D02*
X129304200Y-132834400D01*
X126175000Y-136500000D02*
X129304200Y-133370800D01*
%TO.N,Net-(D4-DOUT)*%
X166260000Y-143650000D02*
X166835000Y-143075000D01*
X186609000Y-141500000D02*
X187759000Y-140350000D01*
X174000000Y-141500000D02*
X186609000Y-141500000D01*
X173000000Y-142500000D02*
X174000000Y-141500000D01*
X167410000Y-142500000D02*
X173000000Y-142500000D01*
X166835000Y-143075000D02*
X167410000Y-142500000D01*
X166834700Y-143075000D02*
X166259700Y-143650000D01*
X166835000Y-143075000D02*
X166834700Y-143075000D01*
%TO.N,Net-(D3-DOUT)*%
X171159700Y-140350300D02*
X171160000Y-140350000D01*
X171159700Y-140350300D02*
X171159700Y-140350000D01*
X149660300Y-143649800D02*
X149660300Y-143649700D01*
X149660500Y-143650000D02*
X149660300Y-143649800D01*
X149660000Y-143650000D02*
X149660300Y-143649700D01*
X170010000Y-141500000D02*
X171159700Y-140350300D01*
X159000000Y-141500000D02*
X170010000Y-141500000D01*
X158000000Y-142500000D02*
X159000000Y-141500000D01*
X150810000Y-142500000D02*
X158000000Y-142500000D01*
X149660300Y-143649700D02*
X150810000Y-142500000D01*
%TO.N,Net-(D2-DOUT)*%
X133061000Y-143650000D02*
X133061200Y-143649800D01*
X153410000Y-141500000D02*
X154560000Y-140350000D01*
X141000000Y-141500000D02*
X153410000Y-141500000D01*
X140500000Y-142000000D02*
X141000000Y-141500000D01*
X134711000Y-142000000D02*
X140500000Y-142000000D01*
X133061200Y-143649800D02*
X134711000Y-142000000D01*
X133061200Y-143649800D02*
X133061200Y-143650000D01*
X154560500Y-140350000D02*
X154560000Y-140350000D01*
%TO.N,Net-(D1-DOUT)*%
X137961000Y-140539000D02*
X137961000Y-140444500D01*
X137000000Y-141500000D02*
X137961000Y-140539000D01*
X118612000Y-141500000D02*
X137000000Y-141500000D01*
X116462000Y-143650000D02*
X118612000Y-141500000D01*
X137961000Y-140444500D02*
X137961000Y-140350000D01*
X137961200Y-140444300D02*
X137961200Y-140350000D01*
X137961000Y-140444500D02*
X137961200Y-140444300D01*
X116461900Y-143650000D02*
X116462000Y-143650000D01*
%TO.N,Net-(D1-DIN)*%
X123975000Y-140350000D02*
X127825000Y-136500000D01*
X121362000Y-140350000D02*
X123975000Y-140350000D01*
X121362000Y-140350000D02*
X121361900Y-140350000D01*
%TO.N,5V*%
X162072000Y-43000000D02*
X161500000Y-43000000D01*
X145562000Y-43000000D02*
X145000000Y-43000000D01*
X128500000Y-43000000D02*
X128874000Y-43000000D01*
X119000000Y-43000000D02*
X128500000Y-43000000D01*
X116274000Y-45725600D02*
X119000000Y-43000000D01*
X116274000Y-47000000D02*
X116274000Y-45725600D01*
X154560000Y-143940000D02*
X151000000Y-147500000D01*
X154560000Y-143650000D02*
X154560000Y-143940000D01*
X167500000Y-147500000D02*
X151000000Y-147500000D01*
X171160000Y-144340000D02*
X168000000Y-147500000D01*
X171160000Y-143650000D02*
X171160000Y-144340000D01*
X184559000Y-147500000D02*
X168000000Y-147500000D01*
X187759000Y-144300000D02*
X184559000Y-147500000D01*
X187759000Y-143650000D02*
X187759000Y-144300000D01*
X186084000Y-149025000D02*
X184559000Y-147500000D01*
X186084000Y-149500000D02*
X186084000Y-149025000D01*
X150886000Y-147500000D02*
X150500000Y-147500000D01*
X134000000Y-147500000D02*
X134286000Y-147500000D01*
X127000000Y-147500000D02*
X134000000Y-147500000D01*
X123150000Y-143650000D02*
X127000000Y-147500000D01*
X150500000Y-147500000D02*
X134286000Y-147500000D01*
X134286000Y-147500000D02*
X134000000Y-147500000D01*
X151000000Y-147500000D02*
X150886000Y-147500000D01*
X150886000Y-147500000D02*
X150500000Y-147500000D01*
X168000000Y-147500000D02*
X167960000Y-147500000D01*
X167960000Y-147500000D02*
X167500000Y-147500000D01*
X169485000Y-149025000D02*
X167960000Y-147500000D01*
X169485000Y-149500000D02*
X169485000Y-149025000D01*
X167960000Y-147500000D02*
X167500000Y-147500000D01*
X145000000Y-43000000D02*
X128874000Y-43000000D01*
X128874000Y-43000000D02*
X128500000Y-43000000D01*
X145562000Y-43000000D02*
X145000000Y-43000000D01*
X162072000Y-43000000D02*
X161500000Y-43000000D01*
X128874000Y-43000000D02*
X132873700Y-46999700D01*
X132873700Y-46999700D02*
X132874000Y-47000000D01*
X132873700Y-46999700D02*
X132873700Y-47000000D01*
X121362000Y-143650000D02*
X123150000Y-143650000D01*
X121362000Y-143650000D02*
X121361900Y-143650000D01*
X154560500Y-143650000D02*
X154560000Y-143650000D01*
X171159700Y-143650000D02*
X171160000Y-143650000D01*
X116274400Y-47000000D02*
X116274000Y-47000000D01*
X161500000Y-43000000D02*
X145562000Y-43000000D01*
X182672000Y-47000000D02*
X182671500Y-46999500D01*
X178672000Y-43000000D02*
X162072000Y-43000000D01*
X182671500Y-46999500D02*
X178672000Y-43000000D01*
X182671500Y-46999500D02*
X182671500Y-47000000D01*
X169484700Y-149500000D02*
X169485000Y-149500000D01*
X152886000Y-149500000D02*
X152885500Y-149499500D01*
X152885500Y-149499500D02*
X150886000Y-147500000D01*
X152885500Y-149499500D02*
X152885500Y-149500000D01*
X149562000Y-47000000D02*
X147562000Y-45000000D01*
X147562000Y-45000000D02*
X145562000Y-43000000D01*
X147562500Y-45000000D02*
X149562500Y-47000000D01*
X147562000Y-45000000D02*
X147562500Y-45000000D01*
X166072000Y-47000000D02*
X164072000Y-45000000D01*
X164072000Y-45000000D02*
X162072000Y-43000000D01*
X164072200Y-45000000D02*
X166072200Y-47000000D01*
X164072000Y-45000000D02*
X164072200Y-45000000D01*
X119687000Y-147709700D02*
X119687000Y-147113000D01*
X119687000Y-149500000D02*
X119687000Y-148604800D01*
X119687000Y-148604800D02*
X119687000Y-147709700D01*
X119686900Y-148604900D02*
X119686900Y-149500000D01*
X119687000Y-148604800D02*
X119686900Y-148604900D01*
%TO.N,GND*%
X192000000Y-138000000D02*
X182000000Y-138000000D01*
X194500000Y-140500000D02*
X192000000Y-138000000D01*
X194500000Y-150000000D02*
X194500000Y-140500000D01*
X111500000Y-150000000D02*
X114500000Y-147000000D01*
X182534000Y-151500000D02*
X165935000Y-151500000D01*
X184534000Y-149500000D02*
X182534000Y-151500000D01*
X165935000Y-151500000D02*
X165500000Y-151500000D01*
X149000000Y-151500000D02*
X132500000Y-151500000D01*
X149336000Y-151500000D02*
X149000000Y-151500000D01*
X114500000Y-141500000D02*
X114500000Y-147000000D01*
X115650000Y-140350000D02*
X114500000Y-141500000D01*
X116461900Y-140350000D02*
X115650000Y-140350000D01*
X116462000Y-140350000D02*
X116461900Y-140350000D01*
X117000000Y-149500000D02*
X118136900Y-149500000D01*
X114500000Y-147000000D02*
X117000000Y-149500000D01*
X119000000Y-151500000D02*
X132500000Y-151500000D01*
X118137000Y-150637000D02*
X119000000Y-151500000D01*
X118137000Y-149500000D02*
X118137000Y-150637000D01*
X118136900Y-149500000D02*
X118137000Y-149500000D01*
X165500000Y-151500000D02*
X149336000Y-151500000D01*
X149336000Y-151500000D02*
X149000000Y-151500000D01*
X165935000Y-151500000D02*
X165500000Y-151500000D01*
X182859000Y-138859000D02*
X182000000Y-138000000D01*
X182859000Y-140350000D02*
X182859000Y-138859000D01*
X182000000Y-138000000D02*
X181500000Y-138000000D01*
X182000000Y-138000000D02*
X181500000Y-138000000D01*
X181500000Y-138000000D02*
X169000000Y-138000000D01*
X152010000Y-138000000D02*
X168610000Y-138000000D01*
X168610000Y-138000000D02*
X169000000Y-138000000D01*
X169000000Y-138000000D02*
X168610000Y-138000000D01*
X149660000Y-140350000D02*
X149660500Y-140349500D01*
X149660500Y-140349500D02*
X152010000Y-138000000D01*
X149660500Y-140349500D02*
X149660500Y-140350000D01*
X168610000Y-138000000D02*
X166260000Y-140350000D01*
X133061000Y-140350000D02*
X133061200Y-140349800D01*
X135411000Y-138000000D02*
X152010000Y-138000000D01*
X133061200Y-140349800D02*
X135411000Y-138000000D01*
X133061200Y-140349800D02*
X133061200Y-140350000D01*
X166259700Y-140350000D02*
X166260000Y-140350000D01*
X151336000Y-149500000D02*
X151335500Y-149500500D01*
X151335500Y-149500500D02*
X149336000Y-151500000D01*
X151335500Y-149500500D02*
X151335500Y-149500000D01*
X134500000Y-149500000D02*
X134736000Y-149500000D01*
X132500000Y-151500000D02*
X134500000Y-149500000D01*
X134736000Y-149500000D02*
X134736200Y-149500000D01*
X167935000Y-149500000D02*
X167934700Y-149500300D01*
X167934700Y-149500300D02*
X165935000Y-151500000D01*
X167934700Y-149500300D02*
X167934700Y-149500000D01*
%TD*%
M02*
