M48
; DRILL file {KiCad 8.0.1} date 2024-03-29T21:27:57-0400
; FORMAT={-:-/ absolute / inch / decimal}
; #@! TF.CreationDate,2024-03-29T21:27:57-04:00
; #@! TF.GenerationSoftware,Kicad,Pcbnew,8.0.1
; #@! TF.FileFunction,Plated,1,2,PTH
FMAT,2
INCH
; #@! TA.AperFunction,Plated,PTH,ViaDrill
T1C0.0118
; #@! TA.AperFunction,Plated,PTH,ComponentDrill
T2C0.0374
; #@! TA.AperFunction,Plated,PTH,ComponentDrill
T3C0.0512
; #@! TA.AperFunction,Plated,PTH,ComponentDrill
T4C0.0709
; #@! TA.AperFunction,Plated,PTH,ComponentDrill
T5C0.0866
%
G90
G05
T1
X4.6752Y-5.7382
X5.0907Y-5.2297
T2
X4.5777Y-1.8504
X4.5777Y-2.0472
X4.814Y-1.8504
X4.814Y-2.0472
X5.2312Y-1.8504
X5.2312Y-2.0472
X5.4675Y-1.8504
X5.4675Y-2.0472
X5.8883Y-1.8504
X5.8883Y-2.0472
X6.1245Y-1.8504
X6.1245Y-2.0472
X6.5383Y-1.8504
X6.5383Y-2.0472
X6.7745Y-1.8504
X6.7745Y-2.0472
X7.1918Y-1.8504
X7.1918Y-2.0472
X7.428Y-1.8504
X7.428Y-2.0472
T3
X4.6127Y-2.3366
X4.6127Y-5.2303
X4.7505Y-5.2303
X5.2662Y-2.3366
X5.2662Y-5.2303
X5.404Y-5.2303
X5.9232Y-2.3366
X5.9232Y-5.2303
X6.061Y-5.2303
X6.5732Y-2.3366
X6.5732Y-5.2303
X6.711Y-5.2303
X7.2267Y-2.3366
X7.2267Y-5.2303
X7.3645Y-5.2303
T4
X4.5162Y-2.5472
X4.5162Y-5.0197
X4.8469Y-2.5
X4.8469Y-5.0669
X5.1697Y-2.5472
X5.1697Y-5.0197
X5.5004Y-2.5
X5.5004Y-5.0669
X5.8268Y-2.5472
X5.8268Y-5.0197
X6.1575Y-2.5
X6.1575Y-5.0669
X6.4768Y-2.5472
X6.4768Y-5.0197
X6.8075Y-2.5
X6.8075Y-5.0669
X7.1303Y-2.5472
X7.1303Y-5.0197
X7.461Y-2.5
X7.461Y-5.0669
T5
X4.3701Y-1.6732
X4.3898Y-5.9055
X7.6575Y-1.6732
X7.6575Y-5.9055
M30
